<?xml version="1.0" encoding="utf-8"?>
<!-- Generator: Adobe Illustrator 23.0.1, SVG Export Plug-In . SVG Version: 6.00 Build 0)  -->
<svg version="1.1" id="图层_1" xmlns="http://www.w3.org/2000/svg" xmlns:xlink="http://www.w3.org/1999/xlink" x="0px" y="0px"
	 viewBox="0 0 391 119" style="enable-background:new 0 0 391 119;" xml:space="preserve">
<style type="text/css">
	.st0{fill:#FFFFFF;}
	.st1{fill-rule:evenodd;clip-rule:evenodd;fill:#FFFFFF;}
	.st2{fill:#2053CD;}
	.st3{fill:#00A0FF;}
</style>
<g>
	<g>
		<g>
			<g>
				<path class="st0" d="M193.67,59.46h10.5c0,0-3.23,13.79-12.56,13.79h-6.47l-1.06-2.98c0,0,1.94-0.02,2.56-0.15
					C191.75,68.08,193.67,59.46,193.67,59.46z M220.19,57.89v9.38c0,5.87-5.08,5.93-5.08,5.93h-11.09l-1.06-3.1
					c0,0,1.25-0.04,3.75,0c3.08,0.05,2.81-2.81,2.81-2.81v-9.41h-22.94l-1.79-5.04c0,0,8.3,0.2,18.26-3.27h-15.89
					c-0.27-0.32-2.08-4.53-2.08-4.53s11.73-1.23,15.64-7.01h13.18c0,0-3.08,3.47-8.58,6.6h8.16c2.83-1.76,5.62-3.9,8.23-6.49h13.39
					c-4.61,6.58-12.9,11.45-21.87,14.7h19.7c0.63-0.18,1.24-0.66,0.94-1.87l-3.39-6.52h9.42c0,0,3.56,7.15,3.59,7.25
					c1.26,3.52-1.2,6.17-5.07,6.17l-2.65-0.01L220.19,57.89z M215.3,12.42l9.97,0v3.79h18.29v5.06h-18.29v6.01
					c0,0-0.09,3.64,3.08,3.64h15.43v5.04h-22.39c0,0-6.07-0.19-6.07-6.86C215.32,22.03,215.3,12.42,215.3,12.42z M185.25,14.3h8.89
					v13.09c0,0-0.21,3.64,3.43,3.64h1.05V12.42h9.95v3.79h5.06v5.04h-5.06v9.78H214v5.04h-22.75c0,0-6-0.29-6-6.86V14.3z
					 M235.21,59.39c0,0,1.92,8.61,7.03,10.67c0.62,0.12,2.56,0.14,2.56,0.14v2.98h-7.53c-9.34,0-12.56-13.8-12.56-13.8H235.21z"/>
				<path class="st0" d="M253.87,13.25h10.78c0,0,6.06,18.79,8.93,18.79h2.16v3.08c0,0-6.84,0.01-6.98,0
					c-2.22-0.09-4.83-0.51-7.29-3.9C259.01,26.81,253.87,13.25,253.87,13.25z M311.49,13.25c0,0-5.13,13.55-7.6,17.97
					c-2.46,3.39-5.07,3.81-7.29,3.9c-0.14,0.01-6.98,0-6.98,0v-3.08h2.16c2.88,0,8.93-18.79,8.93-18.79H311.49z M278.93,42.99
					c-0.22,1.22-3.66,20.34-5.94,25.41c-2.36,5.24-9.14,4.73-9.14,4.73h-9.72l-1.06-2.88h4.52c4,0,6.67-10.68,6.67-10.68l3.45-16.57
					h-13.37l-1.52-4.87h24.12V12.46h11.4v25.65h24.53v4.87h-14.41v20.29c0,0-0.31,4.72,5.13,4.72h9.96v5.13h-15.61
					c0,0-10.37,0.21-10.37-9.14l0.01-21.01H278.93z"/>
				<g>
					<path class="st1" d="M230.2,44.78"/>
				</g>
			</g>
			<path class="st0" d="M325.81,13.45h56.82v6.34h-55.47L325.81,13.45z M325.1,34.95h58.4v6.31h-35.37l-9.04,26.36h28.64
				c1.77,0,3.11-1.58,2.84-3.32l-1.86-11.81h11.57l2.48,11.21c1.09,4.91-2.65,9.56-7.68,9.56h-47.43v-5.63l8.51-26.36H325.1V34.95z"
				/>
			<g>
				<path class="st0" d="M188.43,84.85v10.33c0,3.09,1.17,4.66,3.25,4.66c2.13,0,3.3-1.49,3.3-4.66V84.85h4.05v10.06
					c0,5.54-2.8,8.17-7.48,8.17c-4.52,0-7.19-2.5-7.19-8.22V84.85H188.43z"/>
				<path class="st0" d="M203.6,102.79V84.85h4.74l3.73,6.57c1.06,1.89,2.13,4.13,2.93,6.15h0.08c-0.27-2.37-0.35-4.79-0.35-7.48
					v-5.24h3.73v17.94h-4.26l-3.83-6.92c-1.06-1.92-2.24-4.23-3.11-6.33l-0.08,0.03c0.11,2.37,0.16,4.9,0.16,7.83v5.4H203.6z"/>
				<path class="st0" d="M227.09,84.85v17.94h-4.07V84.85H227.09z"/>
				<path class="st0" d="M244.85,102.28c-0.75,0.37-2.42,0.77-4.61,0.77c-6.2,0-9.4-3.86-9.4-8.97c0-6.12,4.37-9.53,9.79-9.53
					c2.1,0,3.7,0.43,4.42,0.8l-0.83,3.22c-0.83-0.35-1.97-0.67-3.41-0.67c-3.22,0-5.72,1.94-5.72,5.94c0,3.59,2.13,5.86,5.75,5.86
					c1.22,0,2.58-0.27,3.38-0.59L244.85,102.28z"/>
				<path class="st0" d="M248.57,84.85h4.07v14.53h7.13v3.41h-11.2V84.85z"/>
				<path class="st0" d="M278.64,93.63c0,5.88-3.57,9.45-8.81,9.45c-5.32,0-8.44-4.02-8.44-9.13c0-5.38,3.43-9.4,8.73-9.4
					C275.63,84.56,278.64,88.68,278.64,93.63z M265.68,93.87c0,3.51,1.65,5.99,4.37,5.99c2.74,0,4.31-2.61,4.31-6.09
					c0-3.22-1.54-5.99-4.34-5.99C267.28,87.78,265.68,90.38,265.68,93.87z"/>
				<path class="st0" d="M286.41,84.85v10.33c0,3.09,1.17,4.66,3.25,4.66c2.13,0,3.3-1.49,3.3-4.66V84.85H297v10.06
					c0,5.54-2.8,8.17-7.48,8.17c-4.52,0-7.18-2.5-7.18-8.22V84.85H286.41z"/>
				<path class="st0" d="M301.57,85.09c1.49-0.24,3.43-0.37,5.48-0.37c3.41,0,5.62,0.61,7.35,1.92c1.86,1.38,3.03,3.59,3.03,6.76
					c0,3.43-1.25,5.8-2.98,7.27c-1.89,1.57-4.76,2.32-8.28,2.32c-2.1,0-3.59-0.13-4.61-0.27V85.09z M305.65,99.73
					c0.35,0.08,0.9,0.08,1.41,0.08c3.67,0.03,6.07-2,6.07-6.28c0.03-3.73-2.16-5.7-5.64-5.7c-0.9,0-1.49,0.08-1.84,0.16V99.73z"/>
				<path class="st0" d="M319.67,100.63c0-1.44,0.99-2.48,2.4-2.48c1.41,0,2.37,1.01,2.37,2.48c0,1.41-0.96,2.45-2.39,2.45
					C320.66,103.08,319.67,102.04,319.67,100.63z"/>
				<path class="st0" d="M341.25,102.28c-0.75,0.37-2.42,0.77-4.61,0.77c-6.2,0-9.4-3.86-9.4-8.97c0-6.12,4.37-9.53,9.79-9.53
					c2.1,0,3.7,0.43,4.42,0.8l-0.83,3.22c-0.83-0.35-1.97-0.67-3.41-0.67c-3.22,0-5.72,1.94-5.72,5.94c0,3.59,2.13,5.86,5.75,5.86
					c1.22,0,2.58-0.27,3.38-0.59L341.25,102.28z"/>
				<path class="st0" d="M360.6,93.63c0,5.88-3.57,9.45-8.81,9.45c-5.32,0-8.44-4.02-8.44-9.13c0-5.38,3.43-9.4,8.73-9.4
					C357.59,84.56,360.6,88.68,360.6,93.63z M347.64,93.87c0,3.51,1.65,5.99,4.37,5.99c2.74,0,4.31-2.61,4.31-6.09
					c0-3.22-1.54-5.99-4.34-5.99C349.24,87.78,347.64,90.38,347.64,93.87z"/>
				<path class="st0" d="M379.49,95.92c-0.08-2.16-0.16-4.76-0.16-7.37h-0.08c-0.56,2.29-1.3,4.85-2,6.95l-2.18,7h-3.17l-1.92-6.95
					c-0.59-2.1-1.2-4.66-1.62-7h-0.05c-0.11,2.42-0.19,5.19-0.32,7.43l-0.32,6.81h-3.75l1.14-17.94h5.4l1.76,5.99
					c0.56,2.08,1.12,4.31,1.52,6.41h0.08c0.51-2.07,1.12-4.44,1.7-6.44l1.92-5.96h5.3l0.98,17.94h-3.97L379.49,95.92z"/>
			</g>
		</g>
	</g>
	<g>
		<polygon class="st2" points="131.82,87.96 131.82,46.24 86.15,28.55 120.17,15.46 156.42,29.54 156.42,29.5 156.42,97.15 
			132.46,114.15 48.82,81.98 83.45,68.62 		"/>
		<polygon class="st3" points="33.68,87.77 33.68,45.86 116.42,14.02 82.87,1.09 9.16,29.51 9.11,29.47 9.11,97.12 33.34,114.41 
			79.68,96.58 45.22,83.33 		"/>
	</g>
</g>
</svg>
