# 3ds Max Wavefront OBJ Exporter v0.97b - (c)2007 guruware
# File Created: 28.10.2017 11:19:20

#
# object Box1153
#

v  1231.9905 783.3165 1776.1893
v  1231.9905 783.3165 1740.7562
v  1267.4236 783.3165 1740.7562
v  1267.4236 783.3165 1776.1893
v  1231.9905 983.4285 1776.1893
v  1267.4236 983.4285 1776.1893
v  1267.4236 983.4285 1740.7562
v  1231.9905 983.4285 1740.7562
# 8 vertices

vn 0.0000 -1.0000 -0.0000
vn 0.0000 1.0000 -0.0000
vn 0.0000 0.0000 1.0000
vn 1.0000 0.0000 -0.0000
vn 0.0000 0.0000 -1.0000
vn -1.0000 0.0000 -0.0000
# 6 vertex normals

vt 1.0000 0.0000 0.0000
vt 1.0000 1.0000 0.0000
vt 0.0000 1.0000 0.0000
vt 0.0000 0.0000 0.0000
# 4 texture coords

g Box1153
s 2
f 1/1/1 2/2/1 3/3/1 4/4/1 
s 4
f 5/4/2 6/1/2 7/2/2 8/3/2 
s 8
f 1/4/3 4/1/3 6/2/3 5/3/3 
s 16
f 4/4/4 3/1/4 7/2/4 6/3/4 
s 32
f 3/4/5 2/1/5 8/2/5 7/3/5 
s 64
f 2/4/6 1/1/6 5/2/6 8/3/6 
# 6 polygons

#
# object Box1154
#

v  1200.2795 783.3165 1040.2443
v  1200.2795 783.3165 1004.8112
v  1235.7126 783.3165 1004.8112
v  1235.7126 783.3165 1040.2443
v  1200.2795 983.4285 1040.2443
v  1235.7126 983.4285 1040.2443
v  1235.7126 983.4285 1004.8112
v  1200.2795 983.4285 1004.8112
# 8 vertices

vn 0.0000 -1.0000 -0.0000
vn 0.0000 1.0000 -0.0000
vn 0.0000 0.0000 1.0000
vn 1.0000 0.0000 -0.0000
vn 0.0000 0.0000 -1.0000
vn -1.0000 0.0000 -0.0000
# 6 vertex normals

vt 1.0000 0.0000 0.0000
vt 1.0000 1.0000 0.0000
vt 0.0000 1.0000 0.0000
vt 0.0000 0.0000 0.0000
# 4 texture coords

g Box1154
s 2
f 9/5/7 10/6/7 11/7/7 12/8/7 
s 4
f 13/8/8 14/5/8 15/6/8 16/7/8 
s 8
f 9/8/9 12/5/9 14/6/9 13/7/9 
s 16
f 12/8/10 11/5/10 15/6/10 14/7/10 
s 32
f 11/8/11 10/5/11 16/6/11 15/7/11 
s 64
f 10/8/12 9/5/12 13/6/12 16/7/12 
# 6 polygons

#
# object Line09
#

v  1936.2273 783.3164 1279.3713
v  1820.7747 783.3164 1286.5232
v  1820.7747 811.6345 1286.5232
v  1936.2273 811.6345 1279.3713
v  1801.0934 783.3164 967.8311
v  1801.0934 811.6345 967.8311
v  1917.4729 783.3164 959.6677
v  1917.4729 811.6345 959.6677
v  1711.5125 783.3164 1258.1510
v  1586.5190 783.3164 1265.5452
v  1586.5190 811.6345 1265.5452
v  1711.5125 811.6345 1258.1510
v  1567.5546 783.3164 985.8322
v  1567.5546 811.6345 985.8322
v  1692.5480 783.3164 978.4380
v  1692.5480 811.6345 978.4380
v  1352.1162 783.3164 1279.8878
v  1227.1228 783.3164 1287.2820
v  1227.1228 811.6345 1287.2820
v  1352.1162 811.6345 1279.8878
v  1208.1583 783.3164 1007.5690
v  1208.1583 811.6345 1007.5690
v  1333.1517 783.3164 1000.1748
v  1333.1517 811.6345 1000.1748
v  1162.3250 783.3164 644.5476
v  1233.3860 783.3164 1806.9814
v  1233.3860 811.6345 1806.9814
v  1162.3250 811.6345 644.5476
v  2400.4644 783.3164 1735.6068
v  2400.4644 811.6345 1735.6068
v  2329.1392 783.3164 568.4521
v  2329.1392 811.6345 568.4521
# 32 vertices

vn -0.0618 0.0000 -0.9981
vn 0.9981 0.0000 -0.0616
vn 0.0700 0.0000 0.9975
vn -0.9983 0.0000 0.0586
vn -0.0591 0.0000 -0.9983
vn 0.9977 0.0000 -0.0676
vn 0.0591 0.0000 0.9983
vn -0.9977 0.0000 0.0676
vn -0.9981 0.0000 0.0610
vn 0.0610 0.0000 0.9981
vn 0.9981 0.0000 -0.0610
vn -0.0651 0.0000 -0.9979
vn 0.0000 -1.0000 -0.0000
vn 0.0000 1.0000 -0.0000
# 14 vertex normals

g Line09
s 1
f 17//13 18//13 19//13 20//13 
s 4
f 18//14 21//14 22//14 19//14 
s 2
f 21//15 23//15 24//15 22//15 
s 4
f 23//16 17//16 20//16 24//16 
s 1
f 25//17 26//17 27//17 28//17 
s 4
f 26//18 29//18 30//18 27//18 
s 2
f 29//19 31//19 32//19 30//19 
s 4
f 31//20 25//20 28//20 32//20 
s 1
f 33//17 34//17 35//17 36//17 
s 4
f 34//18 37//18 38//18 35//18 
s 2
f 37//19 39//19 40//19 38//19 
s 4
f 39//20 33//20 36//20 40//20 
s 1
f 41//21 42//21 43//21 44//21 
s 4
f 42//22 45//22 46//22 43//22 
s 2
f 45//23 47//23 48//23 46//23 
s 4
f 47//24 41//24 44//24 48//24 
s 16
f 47//25 23//25 21//25 41//25 
f 45//25 17//25 23//25 47//25 
f 42//25 18//25 17//25 45//25 
f 42//25 26//25 25//25 18//25 
f 42//25 34//25 33//25 26//25 
f 25//25 31//25 21//25 18//25 
f 31//25 29//25 41//25 21//25 
f 41//25 37//25 34//25 42//25 
f 29//25 39//25 37//25 41//25 
f 29//25 26//25 33//25 39//25 
f 48//26 44//26 32//26 22//26 
f 48//26 22//26 24//26 46//26 
f 46//26 24//26 20//26 43//26 
f 43//26 20//26 19//26 28//26 
f 43//26 28//26 27//26 36//26 
f 28//26 19//26 22//26 32//26 
f 30//26 32//26 44//26 38//26 
f 43//26 36//26 35//26 44//26 
f 44//26 35//26 38//26 
f 30//26 38//26 40//26 36//26 
f 27//26 30//26 36//26 
# 35 polygons - 2 triangles

#
# object Box1156
#

v  1576.5413 783.3165 1370.2596
v  1576.5413 783.3165 1334.8265
v  1611.9744 783.3165 1334.8265
v  1611.9744 783.3165 1370.2596
v  1576.5413 983.4285 1370.2596
v  1611.9744 983.4285 1370.2596
v  1611.9744 983.4285 1334.8265
v  1576.5413 983.4285 1334.8265
# 8 vertices

vn 0.0000 -1.0000 -0.0000
vn 0.0000 1.0000 -0.0000
vn 0.0000 0.0000 1.0000
vn 1.0000 0.0000 -0.0000
vn 0.0000 0.0000 -1.0000
vn -1.0000 0.0000 -0.0000
# 6 vertex normals

vt 1.0000 0.0000 0.0000
vt 1.0000 1.0000 0.0000
vt 0.0000 1.0000 0.0000
vt 0.0000 0.0000 0.0000
# 4 texture coords

g Box1156
s 2
f 49/9/27 50/10/27 51/11/27 52/12/27 
s 4
f 53/12/28 54/9/28 55/10/28 56/11/28 
s 8
f 49/12/29 52/9/29 54/10/29 53/11/29 
s 16
f 52/12/30 51/9/30 55/10/30 54/11/30 
s 32
f 51/12/31 50/9/31 56/10/31 55/11/31 
s 64
f 50/12/32 49/9/32 53/10/32 56/11/32 
# 6 polygons

#
# object Box1157
#

v  1220.8221 783.3161 1198.8036
v  1276.2413 783.3161 1194.6364
v  1282.5573 783.3161 1284.9584
v  1227.1381 783.3161 1289.1256
v  1345.4856 783.3161 1190.9138
v  1351.8015 783.3161 1281.2360
v  1220.8221 805.3643 1198.8036
v  1227.1381 805.3643 1289.1256
v  1282.5573 805.3643 1284.9584
v  1276.2413 805.3643 1194.6364
v  1351.8015 805.3643 1281.2360
v  1345.4856 805.3643 1190.9138
v  1332.7295 882.9897 1000.0059
v  1263.4852 882.9897 1003.7283
v  1263.4852 905.0378 1003.7283
v  1332.7295 905.0378 1000.0059
v  1267.0771 882.9897 1064.5558
v  1336.3214 882.9897 1060.8333
v  1336.3214 905.0378 1060.8333
v  1267.0771 905.0378 1064.5558
v  1211.4996 882.9897 1068.7341
v  1211.4996 905.0378 1068.7341
v  1207.9077 905.0378 1007.9066
v  1207.9077 882.9897 1007.9066
v  1276.2456 989.7408 1194.6971
v  1276.2456 1011.7890 1194.6971
v  1220.6681 1011.7890 1198.8755
v  1220.6681 989.7408 1198.8755
# 28 vertices

vn 0.0000 -1.0000 -0.0000
vn -0.0000 1.0000 0.0000
vn -0.9976 -0.0000 0.0698
vn 0.0750 0.0000 0.9972
vn 0.0643 -0.0000 0.9979
vn 0.0537 -0.0000 0.9986
vn 0.9976 0.0000 -0.0698
vn -0.0537 0.0000 -0.9986
vn -0.0750 -0.0000 -0.9972
vn -0.0396 -0.6753 -0.7364
vn 0.0396 0.6753 0.7364
vn 0.9975 0.0000 -0.0703
vn -0.9975 -0.0000 0.0703
vn -0.9983 -0.0000 0.0589
vn 0.9983 0.0000 -0.0589
vn -0.0570 0.6501 -0.7577
vn 0.0570 -0.6501 0.7577
# 17 vertex normals

vt 1.0000 0.0000 0.0000
vt 1.0000 0.5000 0.0000
vt 0.0000 0.5000 0.0000
vt 0.0000 0.0000 0.0000
vt 1.0000 1.0000 0.0000
vt 0.0000 1.0000 0.0000
vt 0.5000 0.0000 0.0000
vt 0.5000 1.0000 0.0000
# 8 texture coords

g Box1157
s 2
f 57/13/33 58/14/33 59/15/33 60/16/33 
f 58/14/33 61/17/33 62/18/33 59/15/33 
s 4
f 63/16/34 64/13/34 65/14/34 66/15/34 
f 66/15/34 65/14/34 67/17/34 68/18/34 
s 8
f 57/16/35 60/13/35 64/17/35 63/18/35 
s 16
f 60/16/36 59/19/37 65/20/37 64/18/36 
f 59/19/37 62/13/38 67/17/38 65/20/37 
s 32
f 62/16/39 61/13/39 68/17/39 67/18/39 
s 64
f 69/16/40 70/19/40 71/20/40 72/18/40 
f 58/19/41 57/13/41 63/17/41 66/20/41 
s off
f 61/16/42 58/19/42 73/19/42 74/16/42 
f 66/20/43 68/18/43 75/18/43 76/20/43 
f 68/18/44 61/16/44 74/16/44 75/18/44 
f 58/19/45 66/20/45 76/20/45 73/19/45 
f 74/16/33 73/19/33 70/19/33 69/16/33 
f 77/19/46 78/20/46 79/20/46 80/19/46 
f 76/20/34 75/18/34 72/18/34 71/20/34 
f 75/18/47 74/16/47 69/16/47 72/18/47 
f 71/20/41 70/19/41 80/19/41 79/20/41 
f 81/19/36 82/20/36 83/20/36 84/19/36 
f 70/19/33 73/19/33 77/19/33 80/19/33 
f 76/20/34 71/20/34 79/20/34 78/20/34 
f 73/19/44 76/20/44 82/20/44 81/19/44 
f 78/20/45 77/19/45 84/19/45 83/20/45 
f 76/20/48 78/20/48 83/20/48 82/20/48 
f 77/19/49 73/19/49 81/19/49 84/19/49 
# 26 polygons

#
# object Box1158
#

v  1580.3815 783.3161 1177.4537
v  1635.8007 783.3161 1173.2865
v  1642.1166 783.3161 1263.6085
v  1586.6974 783.3161 1267.7758
v  1705.0449 783.3161 1169.5640
v  1711.3608 783.3161 1259.8861
v  1580.3815 805.3643 1177.4537
v  1586.6974 805.3643 1267.7758
v  1642.1166 805.3643 1263.6085
v  1635.8007 805.3643 1173.2865
v  1711.3608 805.3643 1259.8861
v  1705.0449 805.3643 1169.5640
v  1692.2888 882.9897 978.6560
v  1623.0446 882.9897 982.3785
v  1623.0446 905.0378 982.3785
v  1692.2888 905.0378 978.6560
v  1626.6365 882.9897 1043.2059
v  1695.8807 882.9897 1039.4834
v  1695.8807 905.0378 1039.4834
v  1626.6365 905.0378 1043.2059
v  1571.0590 882.9897 1047.3843
v  1571.0590 905.0378 1047.3843
v  1567.4670 905.0378 986.5568
v  1567.4670 882.9897 986.5568
v  1635.8049 989.7408 1173.3473
v  1635.8049 1011.7890 1173.3473
v  1580.2274 1011.7890 1177.5256
v  1580.2274 989.7408 1177.5256
# 28 vertices

vn 0.0000 -1.0000 -0.0000
vn -0.0000 1.0000 0.0000
vn -0.9976 -0.0000 0.0698
vn 0.0750 0.0000 0.9972
vn 0.0643 -0.0000 0.9979
vn 0.0537 -0.0000 0.9986
vn 0.9976 0.0000 -0.0698
vn -0.0537 0.0000 -0.9986
vn -0.0750 -0.0000 -0.9972
vn -0.0396 -0.6753 -0.7364
vn 0.0396 0.6753 0.7364
vn 0.9975 0.0000 -0.0703
vn -0.9975 -0.0000 0.0703
vn -0.9983 -0.0000 0.0589
vn 0.9983 0.0000 -0.0589
vn -0.0570 0.6501 -0.7577
vn 0.0570 -0.6501 0.7577
# 17 vertex normals

vt 1.0000 0.0000 0.0000
vt 1.0000 0.5000 0.0000
vt 0.0000 0.5000 0.0000
vt 0.0000 0.0000 0.0000
vt 1.0000 1.0000 0.0000
vt 0.0000 1.0000 0.0000
vt 0.5000 0.0000 0.0000
vt 0.5000 1.0000 0.0000
# 8 texture coords

g Box1158
s 2
f 85/21/50 86/22/50 87/23/50 88/24/50 
f 86/22/50 89/25/50 90/26/50 87/23/50 
s 4
f 91/24/51 92/21/51 93/22/51 94/23/51 
f 94/23/51 93/22/51 95/25/51 96/26/51 
s 8
f 85/24/52 88/21/52 92/25/52 91/26/52 
s 16
f 88/24/53 87/27/54 93/28/54 92/26/53 
f 87/27/54 90/21/55 95/25/55 93/28/54 
s 32
f 90/24/56 89/21/56 96/25/56 95/26/56 
s 64
f 97/24/57 98/27/57 99/28/57 100/26/57 
f 86/27/58 85/21/58 91/25/58 94/28/58 
s off
f 89/24/59 86/27/59 101/27/59 102/24/59 
f 94/28/60 96/26/60 103/26/60 104/28/60 
f 96/26/61 89/24/61 102/24/61 103/26/61 
f 86/27/62 94/28/62 104/28/62 101/27/62 
f 102/24/50 101/27/50 98/27/50 97/24/50 
f 105/27/63 106/28/63 107/28/63 108/27/63 
f 104/28/51 103/26/51 100/26/51 99/28/51 
f 103/26/64 102/24/64 97/24/64 100/26/64 
f 99/28/58 98/27/58 108/27/58 107/28/58 
f 109/27/53 110/28/53 111/28/53 112/27/53 
f 98/27/50 101/27/50 105/27/50 108/27/50 
f 104/28/51 99/28/51 107/28/51 106/28/51 
f 101/27/61 104/28/61 110/28/61 109/27/61 
f 106/28/62 105/27/62 112/27/62 111/28/62 
f 104/28/65 106/28/65 111/28/65 110/28/65 
f 105/27/66 101/27/66 109/27/66 112/27/66 
# 26 polygons

#
# object Box1174
#

v  1551.8811 783.3165 684.1346
v  1551.8811 783.3165 648.7015
v  1587.3142 783.3165 648.7015
v  1587.3142 783.3165 684.1346
v  1551.8811 983.4285 684.1346
v  1587.3142 983.4285 684.1346
v  1587.3142 983.4285 648.7015
v  1551.8811 983.4285 648.7015
# 8 vertices

vn 0.0000 -1.0000 -0.0000
vn 0.0000 1.0000 -0.0000
vn 0.0000 0.0000 1.0000
vn 1.0000 0.0000 -0.0000
vn 0.0000 0.0000 -1.0000
vn -1.0000 0.0000 -0.0000
# 6 vertex normals

vt 1.0000 0.0000 0.0000
vt 1.0000 1.0000 0.0000
vt 0.0000 1.0000 0.0000
vt 0.0000 0.0000 0.0000
# 4 texture coords

g Box1174
s 2
f 113/29/67 114/30/67 115/31/67 116/32/67 
s 4
f 117/32/68 118/29/68 119/30/68 120/31/68 
s 8
f 113/32/69 116/29/69 118/30/69 117/31/69 
s 16
f 116/32/70 115/29/70 119/30/70 118/31/70 
s 32
f 115/32/71 114/29/71 120/30/71 119/31/71 
s 64
f 114/32/72 113/29/72 117/30/72 120/31/72 
# 6 polygons

#
# object Box1175
#

v  1189.7092 783.3165 702.5878
v  1189.7092 783.3165 667.1547
v  1225.1423 783.3165 667.1547
v  1225.1423 783.3165 702.5878
v  1189.7092 983.4285 702.5878
v  1225.1423 983.4285 702.5878
v  1225.1423 983.4285 667.1547
v  1189.7092 983.4285 667.1547
# 8 vertices

vn 0.0000 -1.0000 -0.0000
vn 0.0000 1.0000 -0.0000
vn 0.0000 0.0000 1.0000
vn 1.0000 0.0000 -0.0000
vn 0.0000 0.0000 -1.0000
vn -1.0000 0.0000 -0.0000
# 6 vertex normals

vt 1.0000 0.0000 0.0000
vt 1.0000 1.0000 0.0000
vt 0.0000 1.0000 0.0000
vt 0.0000 0.0000 0.0000
# 4 texture coords

g Box1175
s 2
f 121/33/73 122/34/73 123/35/73 124/36/73 
s 4
f 125/36/74 126/33/74 127/34/74 128/35/74 
s 8
f 121/36/75 124/33/75 126/34/75 125/35/75 
s 16
f 124/36/76 123/33/76 127/34/76 126/35/76 
s 32
f 123/36/77 122/33/77 128/34/77 127/35/77 
s 64
f 122/36/78 121/33/78 125/34/78 128/35/78 
# 6 polygons

#
# object Box1176
#

v  2248.2131 783.3165 632.5917
v  2248.2131 783.3165 597.1586
v  2283.6462 783.3165 597.1586
v  2283.6462 783.3165 632.5917
v  2248.2131 983.4285 632.5917
v  2283.6462 983.4285 632.5917
v  2283.6462 983.4285 597.1586
v  2248.2131 983.4285 597.1586
# 8 vertices

vn 0.0000 -1.0000 -0.0000
vn 0.0000 1.0000 -0.0000
vn 0.0000 0.0000 1.0000
vn 1.0000 0.0000 -0.0000
vn 0.0000 0.0000 -1.0000
vn -1.0000 0.0000 -0.0000
# 6 vertex normals

vt 1.0000 0.0000 0.0000
vt 1.0000 1.0000 0.0000
vt 0.0000 1.0000 0.0000
vt 0.0000 0.0000 0.0000
# 4 texture coords

g Box1176
s 2
f 129/37/79 130/38/79 131/39/79 132/40/79 
s 4
f 133/40/80 134/37/80 135/38/80 136/39/80 
s 8
f 129/40/81 132/37/81 134/38/81 133/39/81 
s 16
f 132/40/82 131/37/82 135/38/82 134/39/82 
s 32
f 131/40/83 130/37/83 136/38/83 135/39/83 
s 64
f 130/40/84 129/37/84 133/38/84 136/39/84 
# 6 polygons

#
# object Box1177
#

v  1896.4868 783.3165 664.1464
v  1896.4868 783.3165 628.7133
v  1931.9199 783.3165 628.7133
v  1931.9199 783.3165 664.1464
v  1896.4868 983.4285 664.1464
v  1931.9199 983.4285 664.1464
v  1931.9199 983.4285 628.7133
v  1896.4868 983.4285 628.7133
# 8 vertices

vn 0.0000 -1.0000 -0.0000
vn 0.0000 1.0000 -0.0000
vn 0.0000 0.0000 1.0000
vn 1.0000 0.0000 -0.0000
vn 0.0000 0.0000 -1.0000
vn -1.0000 0.0000 -0.0000
# 6 vertex normals

vt 1.0000 0.0000 0.0000
vt 1.0000 1.0000 0.0000
vt 0.0000 1.0000 0.0000
vt 0.0000 0.0000 0.0000
# 4 texture coords

g Box1177
s 2
f 137/41/85 138/42/85 139/43/85 140/44/85 
s 4
f 141/44/86 142/41/86 143/42/86 144/43/86 
s 8
f 137/44/87 140/41/87 142/42/87 141/43/87 
s 16
f 140/44/88 139/41/88 143/42/88 142/43/88 
s 32
f 139/44/89 138/41/89 144/42/89 143/43/89 
s 64
f 138/44/90 137/41/90 141/42/90 144/43/90 
# 6 polygons

#
# object Box1178
#

v  1562.4514 783.3165 1021.7911
v  1562.4514 783.3165 986.3580
v  1597.8845 783.3165 986.3580
v  1597.8845 783.3165 1021.7911
v  1562.4514 983.4285 1021.7911
v  1597.8845 983.4285 1021.7911
v  1597.8845 983.4285 986.3580
v  1562.4514 983.4285 986.3580
# 8 vertices

vn 0.0000 -1.0000 -0.0000
vn 0.0000 1.0000 -0.0000
vn 0.0000 0.0000 1.0000
vn 1.0000 0.0000 -0.0000
vn 0.0000 0.0000 -1.0000
vn -1.0000 0.0000 -0.0000
# 6 vertex normals

vt 1.0000 0.0000 0.0000
vt 1.0000 1.0000 0.0000
vt 0.0000 1.0000 0.0000
vt 0.0000 0.0000 0.0000
# 4 texture coords

g Box1178
s 2
f 145/45/91 146/46/91 147/47/91 148/48/91 
s 4
f 149/48/92 150/45/92 151/46/92 152/47/92 
s 8
f 145/48/93 148/45/93 150/46/93 149/47/93 
s 16
f 148/48/94 147/45/94 151/46/94 150/47/94 
s 32
f 147/48/95 146/45/95 152/46/95 151/47/95 
s 64
f 146/48/96 145/45/96 149/46/96 152/47/96 
# 6 polygons

#
# object Box1179
#

v  2258.7913 783.3165 970.2501
v  2258.7913 783.3165 934.8170
v  2294.2244 783.3165 934.8170
v  2294.2244 783.3165 970.2501
v  2258.7913 983.4285 970.2501
v  2294.2244 983.4285 970.2501
v  2294.2244 983.4285 934.8170
v  2258.7913 983.4285 934.8170
# 8 vertices

vn 0.0000 -1.0000 -0.0000
vn 0.0000 1.0000 -0.0000
vn 0.0000 0.0000 1.0000
vn 1.0000 0.0000 -0.0000
vn 0.0000 0.0000 -1.0000
vn -1.0000 0.0000 -0.0000
# 6 vertex normals

vt 1.0000 0.0000 0.0000
vt 1.0000 1.0000 0.0000
vt 0.0000 1.0000 0.0000
vt 0.0000 0.0000 0.0000
# 4 texture coords

g Box1179
s 2
f 153/49/97 154/50/97 155/51/97 156/52/97 
s 4
f 157/52/98 158/49/98 159/50/98 160/51/98 
s 8
f 153/52/99 156/49/99 158/50/99 157/51/99 
s 16
f 156/52/100 155/49/100 159/50/100 158/51/100 
s 32
f 155/52/101 154/49/101 160/50/101 159/51/101 
s 64
f 154/52/102 153/49/102 157/50/102 160/51/102 
# 6 polygons

#
# object Box1180
#

v  1907.0571 783.3165 1001.8029
v  1907.0571 783.3165 966.3698
v  1942.4902 783.3165 966.3698
v  1942.4902 783.3165 1001.8029
v  1907.0571 983.4285 1001.8029
v  1942.4902 983.4285 1001.8029
v  1942.4902 983.4285 966.3698
v  1907.0571 983.4285 966.3698
# 8 vertices

vn 0.0000 -1.0000 -0.0000
vn 0.0000 1.0000 -0.0000
vn 0.0000 0.0000 1.0000
vn 1.0000 0.0000 -0.0000
vn 0.0000 0.0000 -1.0000
vn -1.0000 0.0000 -0.0000
# 6 vertex normals

vt 1.0000 0.0000 0.0000
vt 1.0000 1.0000 0.0000
vt 0.0000 1.0000 0.0000
vt 0.0000 0.0000 0.0000
# 4 texture coords

g Box1180
s 2
f 161/53/103 162/54/103 163/55/103 164/56/103 
s 4
f 165/56/104 166/53/104 167/54/104 168/55/104 
s 8
f 161/56/105 164/53/105 166/54/105 165/55/105 
s 16
f 164/56/106 163/53/106 167/54/106 166/55/106 
s 32
f 163/56/107 162/53/107 168/54/107 167/55/107 
s 64
f 162/56/108 161/53/108 165/54/108 168/55/108 
# 6 polygons

#
# object Box1181
#

v  1214.3694 783.3165 1388.7128
v  1214.3694 783.3165 1353.2797
v  1249.8025 783.3165 1353.2797
v  1249.8025 783.3165 1388.7128
v  1214.3694 983.4285 1388.7128
v  1249.8025 983.4285 1388.7128
v  1249.8025 983.4285 1353.2797
v  1214.3694 983.4285 1353.2797
# 8 vertices

vn 0.0000 -1.0000 -0.0000
vn 0.0000 1.0000 -0.0000
vn 0.0000 0.0000 1.0000
vn 1.0000 0.0000 -0.0000
vn 0.0000 0.0000 -1.0000
vn -1.0000 0.0000 -0.0000
# 6 vertex normals

vt 1.0000 0.0000 0.0000
vt 1.0000 1.0000 0.0000
vt 0.0000 1.0000 0.0000
vt 0.0000 0.0000 0.0000
# 4 texture coords

g Box1181
s 2
f 169/57/109 170/58/109 171/59/109 172/60/109 
s 4
f 173/60/110 174/57/110 175/58/110 176/59/110 
s 8
f 169/60/111 172/57/111 174/58/111 173/59/111 
s 16
f 172/60/112 171/57/112 175/58/112 174/59/112 
s 32
f 171/60/113 170/57/113 176/58/113 175/59/113 
s 64
f 170/60/114 169/57/114 173/58/114 176/59/114 
# 6 polygons

#
# object Box1182
#

v  2272.8772 783.3165 1318.7206
v  2272.8772 783.3165 1283.2875
v  2308.3103 783.3165 1283.2875
v  2308.3103 783.3165 1318.7206
v  2272.8772 983.4285 1318.7206
v  2308.3103 983.4285 1318.7206
v  2308.3103 983.4285 1283.2875
v  2272.8772 983.4285 1283.2875
# 8 vertices

vn 0.0000 -1.0000 -0.0000
vn 0.0000 1.0000 -0.0000
vn 0.0000 0.0000 1.0000
vn 1.0000 0.0000 -0.0000
vn 0.0000 0.0000 -1.0000
vn -1.0000 0.0000 -0.0000
# 6 vertex normals

vt 1.0000 0.0000 0.0000
vt 1.0000 1.0000 0.0000
vt 0.0000 1.0000 0.0000
vt 0.0000 0.0000 0.0000
# 4 texture coords

g Box1182
s 2
f 177/61/115 178/62/115 179/63/115 180/64/115 
s 4
f 181/64/116 182/61/116 183/62/116 184/63/116 
s 8
f 177/64/117 180/61/117 182/62/117 181/63/117 
s 16
f 180/64/118 179/61/118 183/62/118 182/63/118 
s 32
f 179/64/119 178/61/119 184/62/119 183/63/119 
s 64
f 178/64/120 177/61/120 181/62/120 184/63/120 
# 6 polygons

#
# object Box1183
#

v  1921.1509 783.3165 1350.2714
v  1921.1509 783.3165 1314.8383
v  1956.5840 783.3165 1314.8383
v  1956.5840 783.3165 1350.2714
v  1921.1509 983.4285 1350.2714
v  1956.5840 983.4285 1350.2714
v  1956.5840 983.4285 1314.8383
v  1921.1509 983.4285 1314.8383
# 8 vertices

vn 0.0000 -1.0000 -0.0000
vn 0.0000 1.0000 -0.0000
vn 0.0000 0.0000 1.0000
vn 1.0000 0.0000 -0.0000
vn 0.0000 0.0000 -1.0000
vn -1.0000 0.0000 -0.0000
# 6 vertex normals

vt 1.0000 0.0000 0.0000
vt 1.0000 1.0000 0.0000
vt 0.0000 1.0000 0.0000
vt 0.0000 0.0000 0.0000
# 4 texture coords

g Box1183
s 2
f 185/65/121 186/66/121 187/67/121 188/68/121 
s 4
f 189/68/122 190/65/122 191/66/122 192/67/122 
s 8
f 185/68/123 188/65/123 190/66/123 189/67/123 
s 16
f 188/68/124 187/65/124 191/66/124 190/67/124 
s 32
f 187/68/125 186/65/125 192/66/125 191/67/125 
s 64
f 186/68/126 185/65/126 189/66/126 192/67/126 
# 6 polygons

#
# object Box1184
#

v  1944.1353 783.3165 1746.5682
v  1944.1353 783.3165 1711.1351
v  1979.5684 783.3165 1711.1351
v  1979.5684 783.3165 1746.5682
v  1944.1353 983.4285 1746.5682
v  1979.5684 983.4285 1746.5682
v  1979.5684 983.4285 1711.1351
v  1944.1353 983.4285 1711.1351
# 8 vertices

vn 0.0000 -1.0000 -0.0000
vn 0.0000 1.0000 -0.0000
vn 0.0000 0.0000 1.0000
vn 1.0000 0.0000 -0.0000
vn 0.0000 0.0000 -1.0000
vn -1.0000 0.0000 -0.0000
# 6 vertex normals

vt 1.0000 0.0000 0.0000
vt 1.0000 1.0000 0.0000
vt 0.0000 1.0000 0.0000
vt 0.0000 0.0000 0.0000
# 4 texture coords

g Box1184
s 2
f 193/69/127 194/70/127 195/71/127 196/72/127 
s 4
f 197/72/128 198/69/128 199/70/128 200/71/128 
s 8
f 193/72/129 196/69/129 198/70/129 197/71/129 
s 16
f 196/72/130 195/69/130 199/70/130 198/71/130 
s 32
f 195/72/131 194/69/131 200/70/131 199/71/131 
s 64
f 194/72/132 193/69/132 197/70/132 200/71/132 
# 6 polygons

#
# object Box1185
#

v  2297.7756 783.3165 1725.5604
v  2297.7756 783.3165 1690.1273
v  2333.2087 783.3165 1690.1273
v  2333.2087 783.3165 1725.5604
v  2297.7756 983.4285 1725.5604
v  2333.2087 983.4285 1725.5604
v  2333.2087 983.4285 1690.1273
v  2297.7756 983.4285 1690.1273
# 8 vertices

vn 0.0000 -1.0000 -0.0000
vn 0.0000 1.0000 -0.0000
vn 0.0000 0.0000 1.0000
vn 1.0000 0.0000 -0.0000
vn 0.0000 0.0000 -1.0000
vn -1.0000 0.0000 -0.0000
# 6 vertex normals

vt 1.0000 0.0000 0.0000
vt 1.0000 1.0000 0.0000
vt 0.0000 1.0000 0.0000
vt 0.0000 0.0000 0.0000
# 4 texture coords

g Box1185
s 2
f 201/73/133 202/74/133 203/75/133 204/76/133 
s 4
f 205/76/134 206/73/134 207/74/134 208/75/134 
s 8
f 201/76/135 204/73/135 206/74/135 205/75/135 
s 16
f 204/76/136 203/73/136 207/74/136 206/75/136 
s 32
f 203/76/137 202/73/137 208/74/137 207/75/137 
s 64
f 202/76/138 201/73/138 205/74/138 208/75/138 
# 6 polygons

#
# object Box1186
#

v  1594.1077 783.3165 1766.5721
v  1594.1077 783.3165 1731.1390
v  1629.5408 783.3165 1731.1390
v  1629.5408 783.3165 1766.5721
v  1594.1077 983.4285 1766.5721
v  1629.5408 983.4285 1766.5721
v  1629.5408 983.4285 1731.1390
v  1594.1077 983.4285 1731.1390
# 8 vertices

vn 0.0000 -1.0000 -0.0000
vn 0.0000 1.0000 -0.0000
vn 0.0000 0.0000 1.0000
vn 1.0000 0.0000 -0.0000
vn 0.0000 0.0000 -1.0000
vn -1.0000 0.0000 -0.0000
# 6 vertex normals

vt 1.0000 0.0000 0.0000
vt 1.0000 1.0000 0.0000
vt 0.0000 1.0000 0.0000
vt 0.0000 0.0000 0.0000
# 4 texture coords

g Box1186
s 2
f 209/77/139 210/78/139 211/79/139 212/80/139 
s 4
f 213/80/140 214/77/140 215/78/140 216/79/140 
s 8
f 209/80/141 212/77/141 214/78/141 213/79/141 
s 16
f 212/80/142 211/77/142 215/78/142 214/79/142 
s 32
f 211/80/143 210/77/143 216/78/143 215/79/143 
s 64
f 210/80/144 209/77/144 213/78/144 216/79/144 
# 6 polygons

