# 3ds Max Wavefront OBJ Exporter v0.97b - (c)2007 guruware
# File Created: 28.10.2017 11:23:47

#
# object Box1257
#

v  1425.2834 1382.2109 -1066.0079
v  1425.2834 1382.2109 -1101.4410
v  1460.7166 1382.2109 -1101.4410
v  1460.7166 1382.2109 -1066.0079
v  1425.2834 1582.3229 -1066.0079
v  1460.7166 1582.3229 -1066.0079
v  1460.7166 1582.3229 -1101.4410
v  1425.2834 1582.3229 -1101.4410
# 8 vertices

vn 0.0000 -1.0000 -0.0000
vn 0.0000 1.0000 -0.0000
vn 0.0000 0.0000 1.0000
vn 1.0000 0.0000 -0.0000
vn 0.0000 0.0000 -1.0000
vn -1.0000 0.0000 -0.0000
# 6 vertex normals

vt 1.0000 0.0000 0.0000
vt 1.0000 1.0000 0.0000
vt 0.0000 1.0000 0.0000
vt 0.0000 0.0000 0.0000
# 4 texture coords

g Box1257
s 2
f 1/1/1 2/2/1 3/3/1 4/4/1 
s 4
f 5/4/2 6/1/2 7/2/2 8/3/2 
s 8
f 1/4/3 4/1/3 6/2/3 5/3/3 
s 16
f 4/4/4 3/1/4 7/2/4 6/3/4 
s 32
f 3/4/5 2/1/5 8/2/5 7/3/5 
s 64
f 2/4/6 1/1/6 5/2/6 8/3/6 
# 6 polygons

#
# object Line12
#

v  1102.7388 1382.2108 -330.1780
v  2269.7715 1382.2108 -398.3174
v  2269.7715 1410.5289 -398.3174
v  1102.7388 1410.5289 -330.1780
v  2198.7930 1382.2108 -1565.4159
v  2198.7930 1410.5289 -1565.4159
v  1031.6128 1382.2108 -1493.6742
v  1031.6128 1410.5289 -1493.6742
v  1585.0149 1382.2108 -729.5573
v  1460.0215 1382.2108 -722.1631
v  1460.0215 1410.5289 -722.1631
v  1585.0149 1410.5289 -729.5573
v  1441.0570 1382.2108 -1001.8762
v  1441.0570 1410.5289 -1001.8762
v  1566.0504 1382.2108 -1009.2703
v  1566.0504 1410.5289 -1009.2703
v  1225.6187 1382.2108 -707.8205
v  1100.6252 1382.2108 -700.4263
v  1100.6252 1410.5289 -700.4263
v  1225.6187 1410.5289 -707.8205
v  1081.6608 1382.2108 -980.1393
v  1081.6608 1410.5289 -980.1393
v  1206.6542 1382.2108 -987.5335
v  1206.6542 1410.5289 -987.5335
v  1806.5679 1382.2108 -731.4587
v  1691.1152 1382.2108 -724.3068
v  1691.1152 1410.5289 -724.3068
v  1806.5679 1410.5289 -731.4587
v  1671.4340 1382.2108 -1042.9991
v  1671.4340 1410.5289 -1042.9991
v  1787.8134 1382.2108 -1051.1624
v  1787.8134 1410.5289 -1051.1624
# 32 vertices

vn 0.0583 0.0000 0.9983
vn 0.9982 0.0000 -0.0607
vn -0.0614 0.0000 -0.9981
vn -0.9981 0.0000 0.0610
vn -0.0591 0.0000 -0.9983
vn 0.9977 0.0000 -0.0676
vn 0.0591 0.0000 0.9983
vn -0.9977 0.0000 0.0676
vn -0.0618 0.0000 -0.9981
vn 0.9981 0.0000 -0.0616
vn 0.0700 0.0000 0.9975
vn -0.9983 0.0000 0.0586
vn 0.0000 -1.0000 -0.0000
vn 0.0000 1.0000 -0.0000
# 14 vertex normals

g Line12
s 1
f 9//7 10//7 11//7 12//7 
s 4
f 10//8 13//8 14//8 11//8 
s 2
f 13//9 15//9 16//9 14//9 
s 4
f 15//10 9//10 12//10 16//10 
s 1
f 17//11 18//11 19//11 20//11 
s 4
f 18//12 21//12 22//12 19//12 
s 2
f 21//13 23//13 24//13 22//13 
s 4
f 23//14 17//14 20//14 24//14 
s 1
f 25//11 26//11 27//11 28//11 
s 4
f 26//12 29//12 30//12 27//12 
s 2
f 29//13 31//13 32//13 30//13 
s 4
f 31//14 25//14 28//14 32//14 
s 1
f 33//15 34//15 35//15 36//15 
s 4
f 34//16 37//16 38//16 35//16 
s 2
f 37//17 39//17 40//17 38//17 
s 4
f 39//18 33//18 36//18 40//18 
s 16
f 37//19 21//19 31//19 29//19 
f 9//19 25//19 18//19 17//19 
f 17//19 34//19 10//19 9//19 
f 9//19 15//19 26//19 25//19 
f 15//19 13//19 29//19 26//19 
f 13//19 39//19 37//19 29//19 
f 10//19 33//19 39//19 13//19 
f 25//19 31//19 21//19 18//19 
f 37//19 34//19 23//19 21//19 
f 34//19 17//19 23//19 
f 34//19 33//19 10//19 
f 38//20 14//20 30//20 32//20 
f 12//20 11//20 20//20 19//20 
f 12//20 19//20 22//20 28//20 
f 12//20 28//20 27//20 16//20 
f 16//20 27//20 30//20 14//20 
f 14//20 38//20 40//20 11//20 
f 11//20 40//20 36//20 35//20 
f 32//20 28//20 22//20 38//20 
f 38//20 22//20 24//20 35//20 
f 35//20 24//20 20//20 11//20 
# 35 polygons - 2 triangles

#
# object Box1258
#

v  1405.2795 1382.2109 -1425.5177
v  1405.2795 1382.2109 -1460.9508
v  1440.7126 1382.2109 -1460.9508
v  1440.7126 1382.2109 -1425.5177
v  1405.2795 1582.3229 -1425.5177
v  1440.7126 1582.3229 -1425.5177
v  1440.7126 1582.3229 -1460.9508
v  1405.2795 1582.3229 -1460.9508
# 8 vertices

vn 0.0000 -1.0000 -0.0000
vn 0.0000 1.0000 -0.0000
vn 0.0000 0.0000 1.0000
vn 1.0000 0.0000 -0.0000
vn 0.0000 0.0000 -1.0000
vn -1.0000 0.0000 -0.0000
# 6 vertex normals

vt 1.0000 0.0000 0.0000
vt 1.0000 1.0000 0.0000
vt 0.0000 1.0000 0.0000
vt 0.0000 0.0000 0.0000
# 4 texture coords

g Box1258
s 2
f 41/5/21 42/6/21 43/7/21 44/8/21 
s 4
f 45/8/22 46/5/22 47/6/22 48/7/22 
s 8
f 41/8/23 44/5/23 46/6/23 45/7/23 
s 16
f 44/8/24 43/5/24 47/6/24 46/7/24 
s 32
f 43/8/25 42/5/25 48/6/25 47/7/25 
s 64
f 42/8/26 41/5/26 45/6/26 48/7/26 
# 6 polygons

#
# object Box1261
#

v  1445.6311 1382.2109 -698.9473
v  1445.6311 1382.2109 -734.3804
v  1481.0642 1382.2109 -734.3804
v  1481.0642 1382.2109 -698.9473
v  1445.6311 1582.3229 -698.9473
v  1481.0642 1582.3229 -698.9473
v  1481.0642 1582.3229 -734.3804
v  1445.6311 1582.3229 -734.3804
# 8 vertices

vn 0.0000 -1.0000 -0.0000
vn 0.0000 1.0000 -0.0000
vn 0.0000 0.0000 1.0000
vn 1.0000 0.0000 -0.0000
vn 0.0000 0.0000 -1.0000
vn -1.0000 0.0000 -0.0000
# 6 vertex normals

vt 1.0000 0.0000 0.0000
vt 1.0000 1.0000 0.0000
vt 0.0000 1.0000 0.0000
vt 0.0000 0.0000 0.0000
# 4 texture coords

g Box1261
s 2
f 49/9/27 50/10/27 51/11/27 52/12/27 
s 4
f 53/12/28 54/9/28 55/10/28 56/11/28 
s 8
f 49/12/29 52/9/29 54/10/29 53/11/29 
s 16
f 52/12/30 51/9/30 55/10/30 54/11/30 
s 32
f 51/12/31 50/9/31 56/10/31 55/11/31 
s 64
f 50/12/32 49/9/32 53/10/32 56/11/32 
# 6 polygons

#
# object Box1265
#

v  1087.1522 1382.2108 -889.1509
v  1142.6412 1382.2106 -892.2530
v  1137.1138 1382.2106 -982.6266
v  1081.6248 1382.2108 -979.5245
v  1211.7788 1382.2103 -897.6005
v  1206.2513 1382.2103 -987.9741
v  1087.1523 1404.2589 -889.1509
v  1081.6249 1404.2589 -979.5245
v  1137.1139 1404.2587 -982.6266
v  1142.6414 1404.2587 -892.2530
v  1206.2515 1404.2584 -987.9741
v  1211.7789 1404.2584 -897.6005
v  1224.0507 1481.8839 -706.6611
v  1154.9131 1481.8842 -701.3135
v  1154.9132 1503.9324 -701.3135
v  1224.0508 1503.9320 -706.6611
v  1150.5348 1481.8842 -762.0894
v  1219.6724 1481.8839 -767.4369
v  1219.6724 1503.9320 -767.4369
v  1150.5348 1503.9324 -762.0894
v  1094.8875 1481.8844 -758.9776
v  1094.8875 1503.9325 -758.9777
v  1099.2659 1503.9325 -698.2018
v  1099.2657 1481.8844 -698.2018
v  1142.6383 1588.6353 -892.3139
v  1142.6383 1610.6835 -892.3139
v  1086.9910 1610.6836 -889.2021
v  1086.9910 1588.6355 -889.2021
# 28 vertices

vn -0.0000 -1.0000 0.0000
vn 0.0000 1.0000 -0.0000
vn -0.9981 0.0000 0.0610
vn -0.0558 -0.0000 -0.9984
vn -0.0665 0.0000 -0.9978
vn -0.0771 0.0000 -0.9970
vn 0.9981 -0.0000 -0.0610
vn 0.0771 -0.0000 0.9970
vn 0.0558 0.0000 0.9984
vn 0.0569 -0.6753 0.7353
vn -0.0569 0.6753 -0.7353
vn 0.9982 -0.0000 -0.0605
vn -0.9982 0.0000 0.0605
vn -0.9974 0.0000 0.0719
vn 0.9974 -0.0000 -0.0719
vn 0.0424 0.6501 0.7587
vn -0.0424 -0.6501 -0.7587
# 17 vertex normals

vt 1.0000 0.0000 0.0000
vt 1.0000 0.5000 0.0000
vt 0.0000 0.5000 0.0000
vt 0.0000 0.0000 0.0000
vt 1.0000 1.0000 0.0000
vt 0.0000 1.0000 0.0000
vt 0.5000 0.0000 0.0000
vt 0.5000 1.0000 0.0000
# 8 texture coords

g Box1265
s 2
f 60/16/33 59/15/33 58/14/33 57/13/33 
f 59/15/33 62/18/33 61/17/33 58/14/33 
s 4
f 66/15/34 65/14/34 64/13/34 63/16/34 
f 68/18/34 67/17/34 65/14/34 66/15/34 
s 8
f 63/18/35 64/17/35 60/13/35 57/16/35 
s 16
f 64/18/36 65/20/37 59/19/37 60/16/36 
f 65/20/37 67/17/38 62/13/38 59/19/37 
s 32
f 67/18/39 68/17/39 61/13/39 62/16/39 
s 64
f 72/18/40 71/20/40 70/19/40 69/16/40 
f 66/20/41 63/17/41 57/13/41 58/19/41 
s off
f 74/16/42 73/19/42 58/19/42 61/16/42 
f 76/20/43 75/18/43 68/18/43 66/20/43 
f 75/18/44 74/16/44 61/16/44 68/18/44 
f 73/19/45 76/20/45 66/20/45 58/19/45 
f 69/16/33 70/19/33 73/19/33 74/16/33 
f 80/19/46 79/20/46 78/20/46 77/19/46 
f 71/20/34 72/18/34 75/18/34 76/20/34 
f 72/18/47 69/16/47 74/16/47 75/18/47 
f 79/20/41 80/19/41 70/19/41 71/20/41 
f 84/19/36 83/20/36 82/20/36 81/19/36 
f 80/19/33 77/19/33 73/19/33 70/19/33 
f 78/20/34 79/20/34 71/20/34 76/20/34 
f 81/19/44 82/20/44 76/20/44 73/19/44 
f 83/20/45 84/19/45 77/19/45 78/20/45 
f 82/20/48 83/20/48 78/20/48 76/20/48 
f 84/19/49 81/19/49 73/19/49 77/19/49 
# 26 polygons

#
# object Box1266
#

v  1444.5292 1382.2108 -911.0963
v  1500.0182 1382.2106 -914.1983
v  1494.4907 1382.2106 -1004.5719
v  1439.0017 1382.2108 -1001.4698
v  1569.1558 1382.2103 -919.5458
v  1563.6283 1382.2103 -1009.9194
v  1444.5293 1404.2589 -911.0963
v  1439.0018 1404.2589 -1001.4698
v  1494.4908 1404.2587 -1004.5719
v  1500.0183 1404.2587 -914.1983
v  1563.6284 1404.2584 -1009.9194
v  1569.1559 1404.2584 -919.5458
v  1581.4276 1481.8839 -728.6064
v  1512.2900 1481.8842 -723.2589
v  1512.2902 1503.9324 -723.2589
v  1581.4277 1503.9320 -728.6064
v  1507.9117 1481.8842 -784.0347
v  1577.0493 1481.8839 -789.3822
v  1577.0493 1503.9320 -789.3822
v  1507.9117 1503.9324 -784.0347
v  1452.2644 1481.8844 -780.9229
v  1452.2644 1503.9325 -780.9230
v  1456.6428 1503.9325 -720.1471
v  1456.6427 1481.8844 -720.1471
v  1500.0153 1588.6353 -914.2592
v  1500.0153 1610.6835 -914.2592
v  1444.3679 1610.6836 -911.1475
v  1444.3679 1588.6355 -911.1475
# 28 vertices

vn -0.0000 -1.0000 0.0000
vn 0.0000 1.0000 -0.0000
vn -0.9981 0.0000 0.0610
vn -0.0558 -0.0000 -0.9984
vn -0.0665 0.0000 -0.9978
vn -0.0771 0.0000 -0.9970
vn 0.9981 -0.0000 -0.0610
vn 0.0771 -0.0000 0.9970
vn 0.0558 0.0000 0.9984
vn 0.0569 -0.6753 0.7353
vn -0.0569 0.6753 -0.7353
vn 0.9982 -0.0000 -0.0605
vn -0.9982 0.0000 0.0605
vn -0.9974 0.0000 0.0719
vn 0.9974 -0.0000 -0.0719
vn 0.0424 0.6501 0.7587
vn -0.0424 -0.6501 -0.7587
# 17 vertex normals

vt 1.0000 0.0000 0.0000
vt 1.0000 0.5000 0.0000
vt 0.0000 0.5000 0.0000
vt 0.0000 0.0000 0.0000
vt 1.0000 1.0000 0.0000
vt 0.0000 1.0000 0.0000
vt 0.5000 0.0000 0.0000
vt 0.5000 1.0000 0.0000
# 8 texture coords

g Box1266
s 2
f 88/24/50 87/23/50 86/22/50 85/21/50 
f 87/23/50 90/26/50 89/25/50 86/22/50 
s 4
f 94/23/51 93/22/51 92/21/51 91/24/51 
f 96/26/51 95/25/51 93/22/51 94/23/51 
s 8
f 91/26/52 92/25/52 88/21/52 85/24/52 
s 16
f 92/26/53 93/28/54 87/27/54 88/24/53 
f 93/28/54 95/25/55 90/21/55 87/27/54 
s 32
f 95/26/56 96/25/56 89/21/56 90/24/56 
s 64
f 100/26/57 99/28/57 98/27/57 97/24/57 
f 94/28/58 91/25/58 85/21/58 86/27/58 
s off
f 102/24/59 101/27/59 86/27/59 89/24/59 
f 104/28/60 103/26/60 96/26/60 94/28/60 
f 103/26/61 102/24/61 89/24/61 96/26/61 
f 101/27/62 104/28/62 94/28/62 86/27/62 
f 97/24/50 98/27/50 101/27/50 102/24/50 
f 108/27/63 107/28/63 106/28/63 105/27/63 
f 99/28/51 100/26/51 103/26/51 104/28/51 
f 100/26/64 97/24/64 102/24/64 103/26/64 
f 107/28/58 108/27/58 98/27/58 99/28/58 
f 112/27/53 111/28/53 110/28/53 109/27/53 
f 108/27/50 105/27/50 101/27/50 98/27/50 
f 106/28/51 107/28/51 99/28/51 104/28/51 
f 109/27/61 110/28/61 104/28/61 101/27/61 
f 111/28/62 112/27/62 105/27/62 106/28/62 
f 110/28/65 111/28/65 106/28/65 104/28/65 
f 112/27/66 109/27/66 101/27/66 105/27/66 
# 26 polygons

#
# object Box1267
#

v  2102.1663 1382.2109 -1465.4591
v  2102.1663 1382.2109 -1500.8922
v  2137.5994 1382.2109 -1500.8922
v  2137.5994 1382.2109 -1465.4591
v  2102.1663 1582.3229 -1465.4591
v  2137.5994 1582.3229 -1465.4591
v  2137.5994 1582.3229 -1500.8922
v  2102.1663 1582.3229 -1500.8922
# 8 vertices

vn 0.0000 -1.0000 -0.0000
vn 0.0000 1.0000 -0.0000
vn 0.0000 0.0000 1.0000
vn 1.0000 0.0000 -0.0000
vn 0.0000 0.0000 -1.0000
vn -1.0000 0.0000 -0.0000
# 6 vertex normals

vt 1.0000 0.0000 0.0000
vt 1.0000 1.0000 0.0000
vt 0.0000 1.0000 0.0000
vt 0.0000 0.0000 0.0000
# 4 texture coords

g Box1267
s 2
f 113/29/67 114/30/67 115/31/67 116/32/67 
s 4
f 117/32/68 118/29/68 119/30/68 120/31/68 
s 8
f 113/32/69 116/29/69 118/30/69 117/31/69 
s 16
f 116/32/70 115/29/70 119/30/70 118/31/70 
s 32
f 115/32/71 114/29/71 120/30/71 119/31/71 
s 64
f 114/32/72 113/29/72 117/30/72 120/31/72 
# 6 polygons

#
# object Box1268
#

v  1749.8850 1382.2109 -1445.5060
v  1749.8850 1382.2109 -1480.9391
v  1785.3181 1382.2109 -1480.9391
v  1785.3181 1382.2109 -1445.5060
v  1749.8850 1582.3229 -1445.5060
v  1785.3181 1582.3229 -1445.5060
v  1785.3181 1582.3229 -1480.9391
v  1749.8850 1582.3229 -1480.9391
# 8 vertices

vn 0.0000 -1.0000 -0.0000
vn 0.0000 1.0000 -0.0000
vn 0.0000 0.0000 1.0000
vn 1.0000 0.0000 -0.0000
vn 0.0000 0.0000 -1.0000
vn -1.0000 0.0000 -0.0000
# 6 vertex normals

vt 1.0000 0.0000 0.0000
vt 1.0000 1.0000 0.0000
vt 0.0000 1.0000 0.0000
vt 0.0000 0.0000 0.0000
# 4 texture coords

g Box1268
s 2
f 121/33/73 122/34/73 123/35/73 124/36/73 
s 4
f 125/36/74 126/33/74 127/34/74 128/35/74 
s 8
f 121/36/75 124/33/75 126/34/75 125/35/75 
s 16
f 124/36/76 123/33/76 127/34/76 126/35/76 
s 32
f 123/36/77 122/33/77 128/34/77 127/35/77 
s 64
f 122/36/78 121/33/78 125/34/78 128/35/78 
# 6 polygons

#
# object Box1269
#

v  1043.1077 1382.2109 -1407.0646
v  1043.1077 1382.2109 -1442.4977
v  1078.5408 1382.2109 -1442.4977
v  1078.5408 1382.2109 -1407.0646
v  1043.1077 1582.3229 -1407.0646
v  1078.5408 1582.3229 -1407.0646
v  1078.5408 1582.3229 -1442.4977
v  1043.1077 1582.3229 -1442.4977
# 8 vertices

vn 0.0000 -1.0000 -0.0000
vn 0.0000 1.0000 -0.0000
vn 0.0000 0.0000 1.0000
vn 1.0000 0.0000 -0.0000
vn 0.0000 0.0000 -1.0000
vn -1.0000 0.0000 -0.0000
# 6 vertex normals

vt 1.0000 0.0000 0.0000
vt 1.0000 1.0000 0.0000
vt 0.0000 1.0000 0.0000
vt 0.0000 0.0000 0.0000
# 4 texture coords

g Box1269
s 2
f 129/37/79 130/38/79 131/39/79 132/40/79 
s 4
f 133/40/80 134/37/80 135/38/80 136/39/80 
s 8
f 129/40/81 132/37/81 134/38/81 133/39/81 
s 16
f 132/40/82 131/37/82 135/38/82 134/39/82 
s 32
f 131/40/83 130/37/83 136/38/83 135/39/83 
s 64
f 130/40/84 129/37/84 133/38/84 136/39/84 
# 6 polygons

#
# object Box1270
#

v  1063.1116 1382.2109 -1047.5548
v  1063.1116 1382.2109 -1082.9879
v  1098.5447 1382.2109 -1082.9879
v  1098.5447 1382.2109 -1047.5548
v  1063.1116 1582.3229 -1047.5548
v  1098.5447 1582.3229 -1047.5548
v  1098.5447 1582.3229 -1082.9879
v  1063.1116 1582.3229 -1082.9879
# 8 vertices

vn 0.0000 -1.0000 -0.0000
vn 0.0000 1.0000 -0.0000
vn 0.0000 0.0000 1.0000
vn 1.0000 0.0000 -0.0000
vn 0.0000 0.0000 -1.0000
vn -1.0000 0.0000 -0.0000
# 6 vertex normals

vt 1.0000 0.0000 0.0000
vt 1.0000 1.0000 0.0000
vt 0.0000 1.0000 0.0000
vt 0.0000 0.0000 0.0000
# 4 texture coords

g Box1270
s 2
f 137/41/85 138/42/85 139/43/85 140/44/85 
s 4
f 141/44/86 142/41/86 143/42/86 144/43/86 
s 8
f 137/44/87 140/41/87 142/42/87 141/43/87 
s 16
f 140/44/88 139/41/88 143/42/88 142/43/88 
s 32
f 139/44/89 138/41/89 144/42/89 143/43/89 
s 64
f 138/44/90 137/41/90 141/42/90 144/43/90 
# 6 polygons

#
# object Box1271
#

v  2122.1741 1382.2109 -1105.9493
v  2122.1741 1382.2109 -1141.3824
v  2157.6072 1382.2109 -1141.3824
v  2157.6072 1382.2109 -1105.9493
v  2122.1741 1582.3229 -1105.9493
v  2157.6072 1582.3229 -1105.9493
v  2157.6072 1582.3229 -1141.3824
v  2122.1741 1582.3229 -1141.3824
# 8 vertices

vn 0.0000 -1.0000 -0.0000
vn 0.0000 1.0000 -0.0000
vn 0.0000 0.0000 1.0000
vn 1.0000 0.0000 -0.0000
vn 0.0000 0.0000 -1.0000
vn -1.0000 0.0000 -0.0000
# 6 vertex normals

vt 1.0000 0.0000 0.0000
vt 1.0000 1.0000 0.0000
vt 0.0000 1.0000 0.0000
vt 0.0000 0.0000 0.0000
# 4 texture coords

g Box1271
s 2
f 145/45/91 146/46/91 147/47/91 148/48/91 
s 4
f 149/48/92 150/45/92 151/46/92 152/47/92 
s 8
f 145/48/93 148/45/93 150/46/93 149/47/93 
s 16
f 148/48/94 147/45/94 151/46/94 150/47/94 
s 32
f 147/48/95 146/45/95 152/46/95 151/47/95 
s 64
f 146/48/96 145/45/96 149/46/96 152/47/96 
# 6 polygons

#
# object Box1272
#

v  1769.8850 1382.2109 -1085.9962
v  1769.8850 1382.2109 -1121.4293
v  1805.3181 1382.2109 -1121.4293
v  1805.3181 1382.2109 -1085.9962
v  1769.8850 1582.3229 -1085.9962
v  1805.3181 1582.3229 -1085.9962
v  1805.3181 1582.3229 -1121.4293
v  1769.8850 1582.3229 -1121.4293
# 8 vertices

vn 0.0000 -1.0000 -0.0000
vn 0.0000 1.0000 -0.0000
vn 0.0000 0.0000 1.0000
vn 1.0000 0.0000 -0.0000
vn 0.0000 0.0000 -1.0000
vn -1.0000 0.0000 -0.0000
# 6 vertex normals

vt 1.0000 0.0000 0.0000
vt 1.0000 1.0000 0.0000
vt 0.0000 1.0000 0.0000
vt 0.0000 0.0000 0.0000
# 4 texture coords

g Box1272
s 2
f 153/49/97 154/50/97 155/51/97 156/52/97 
s 4
f 157/52/98 158/49/98 159/50/98 160/51/98 
s 8
f 153/52/99 156/49/99 158/50/99 157/51/99 
s 16
f 156/52/100 155/49/100 159/50/100 158/51/100 
s 32
f 155/52/101 154/49/101 160/50/101 159/51/101 
s 64
f 154/52/102 153/49/102 157/50/102 160/51/102 
# 6 polygons

#
# object Box1273
#

v  1083.4592 1382.2109 -680.4942
v  1083.4592 1382.2109 -715.9273
v  1118.8923 1382.2109 -715.9273
v  1118.8923 1382.2109 -680.4942
v  1083.4592 1582.3229 -680.4942
v  1118.8923 1582.3229 -680.4942
v  1118.8923 1582.3229 -715.9273
v  1083.4592 1582.3229 -715.9273
# 8 vertices

vn 0.0000 -1.0000 -0.0000
vn 0.0000 1.0000 -0.0000
vn 0.0000 0.0000 1.0000
vn 1.0000 0.0000 -0.0000
vn 0.0000 0.0000 -1.0000
vn -1.0000 0.0000 -0.0000
# 6 vertex normals

vt 1.0000 0.0000 0.0000
vt 1.0000 1.0000 0.0000
vt 0.0000 1.0000 0.0000
vt 0.0000 0.0000 0.0000
# 4 texture coords

g Box1273
s 2
f 161/53/103 162/54/103 163/55/103 164/56/103 
s 4
f 165/56/104 166/53/104 167/54/104 168/55/104 
s 8
f 161/56/105 164/53/105 166/54/105 165/55/105 
s 16
f 164/56/106 163/53/106 167/54/106 166/55/106 
s 32
f 163/56/107 162/53/107 168/54/107 167/55/107 
s 64
f 162/56/108 161/53/108 165/54/108 168/55/108 
# 6 polygons

#
# object Box1274
#

v  2141.9631 1382.2109 -750.4883
v  2141.9631 1382.2109 -785.9214
v  2177.3962 1382.2109 -785.9214
v  2177.3962 1382.2109 -750.4883
v  2141.9631 1582.3229 -750.4883
v  2177.3962 1582.3229 -750.4883
v  2177.3962 1582.3229 -785.9214
v  2141.9631 1582.3229 -785.9214
# 8 vertices

vn 0.0000 -1.0000 -0.0000
vn 0.0000 1.0000 -0.0000
vn 0.0000 0.0000 1.0000
vn 1.0000 0.0000 -0.0000
vn 0.0000 0.0000 -1.0000
vn -1.0000 0.0000 -0.0000
# 6 vertex normals

vt 1.0000 0.0000 0.0000
vt 1.0000 1.0000 0.0000
vt 0.0000 1.0000 0.0000
vt 0.0000 0.0000 0.0000
# 4 texture coords

g Box1274
s 2
f 169/57/109 170/58/109 171/59/109 172/60/109 
s 4
f 173/60/110 174/57/110 175/58/110 176/59/110 
s 8
f 169/60/111 172/57/111 174/58/111 173/59/111 
s 16
f 172/60/112 171/57/112 175/58/112 174/59/112 
s 32
f 171/60/113 170/57/113 176/58/113 175/59/113 
s 64
f 170/60/114 169/57/114 173/58/114 176/59/114 
# 6 polygons

#
# object Box1275
#

v  1472.1858 1382.2109 -361.2169
v  1472.1858 1382.2109 -396.6500
v  1507.6189 1382.2109 -396.6500
v  1507.6189 1382.2109 -361.2169
v  1472.1858 1582.3229 -361.2169
v  1507.6189 1582.3229 -361.2169
v  1507.6189 1582.3229 -396.6500
v  1472.1858 1582.3229 -396.6500
# 8 vertices

vn 0.0000 -1.0000 -0.0000
vn 0.0000 1.0000 -0.0000
vn 0.0000 0.0000 1.0000
vn 1.0000 0.0000 -0.0000
vn 0.0000 0.0000 -1.0000
vn -1.0000 0.0000 -0.0000
# 6 vertex normals

vt 1.0000 0.0000 0.0000
vt 1.0000 1.0000 0.0000
vt 0.0000 1.0000 0.0000
vt 0.0000 0.0000 0.0000
# 4 texture coords

g Box1275
s 2
f 177/61/115 178/62/115 179/63/115 180/64/115 
s 4
f 181/64/116 182/61/116 183/62/116 184/63/116 
s 8
f 177/64/117 180/61/117 182/62/117 181/63/117 
s 16
f 180/64/118 179/61/118 183/62/118 182/63/118 
s 32
f 179/64/119 178/61/119 184/62/119 183/63/119 
s 64
f 178/64/120 177/61/120 181/62/120 184/63/120 
# 6 polygons

#
# object Box1276
#

v  1110.0139 1382.2109 -342.7638
v  1110.0139 1382.2109 -378.1969
v  1145.4470 1382.2109 -378.1969
v  1145.4470 1382.2109 -342.7638
v  1110.0139 1582.3229 -342.7638
v  1145.4470 1582.3229 -342.7638
v  1145.4470 1582.3229 -378.1969
v  1110.0139 1582.3229 -378.1969
# 8 vertices

vn 0.0000 -1.0000 -0.0000
vn 0.0000 1.0000 -0.0000
vn 0.0000 0.0000 1.0000
vn 1.0000 0.0000 -0.0000
vn 0.0000 0.0000 -1.0000
vn -1.0000 0.0000 -0.0000
# 6 vertex normals

vt 1.0000 0.0000 0.0000
vt 1.0000 1.0000 0.0000
vt 0.0000 1.0000 0.0000
vt 0.0000 0.0000 0.0000
# 4 texture coords

g Box1276
s 2
f 185/65/121 186/66/121 187/67/121 188/68/121 
s 4
f 189/68/122 190/65/122 191/66/122 192/67/122 
s 8
f 185/68/123 188/65/123 190/66/123 189/67/123 
s 16
f 188/68/124 187/65/124 191/66/124 190/67/124 
s 32
f 187/68/125 186/65/125 192/66/125 191/67/125 
s 64
f 186/68/126 185/65/126 189/66/126 192/67/126 
# 6 polygons

#
# object Box1277
#

v  2168.5256 1382.2109 -412.7580
v  2168.5256 1382.2109 -448.1910
v  2203.9587 1382.2109 -448.1910
v  2203.9587 1382.2109 -412.7580
v  2168.5256 1582.3229 -412.7580
v  2203.9587 1582.3229 -412.7580
v  2203.9587 1582.3229 -448.1910
v  2168.5256 1582.3229 -448.1910
# 8 vertices

vn 0.0000 -1.0000 -0.0000
vn 0.0000 1.0000 -0.0000
vn 0.0000 0.0000 1.0000
vn 1.0000 0.0000 -0.0000
vn 0.0000 0.0000 -1.0000
vn -1.0000 0.0000 -0.0000
# 6 vertex normals

vt 1.0000 0.0000 0.0000
vt 1.0000 1.0000 0.0000
vt 0.0000 1.0000 0.0000
vt 0.0000 0.0000 0.0000
# 4 texture coords

g Box1277
s 2
f 193/69/127 194/70/127 195/71/127 196/72/127 
s 4
f 197/72/128 198/69/128 199/70/128 200/71/128 
s 8
f 193/72/129 196/69/129 198/70/129 197/71/129 
s 16
f 196/72/130 195/69/130 199/70/130 198/71/130 
s 32
f 195/72/131 194/69/131 200/70/131 199/71/131 
s 64
f 194/72/132 193/69/132 197/70/132 200/71/132 
# 6 polygons

#
# object Box1278
#

v  1816.7913 1382.2109 -381.2052
v  1816.7913 1382.2109 -416.6383
v  1852.2244 1382.2109 -416.6383
v  1852.2244 1382.2109 -381.2052
v  1816.7913 1582.3229 -381.2052
v  1852.2244 1582.3229 -381.2052
v  1852.2244 1582.3229 -416.6383
v  1816.7913 1582.3229 -416.6383
# 8 vertices

vn 0.0000 -1.0000 -0.0000
vn 0.0000 1.0000 -0.0000
vn 0.0000 0.0000 1.0000
vn 1.0000 0.0000 -0.0000
vn 0.0000 0.0000 -1.0000
vn -1.0000 0.0000 -0.0000
# 6 vertex normals

vt 1.0000 0.0000 0.0000
vt 1.0000 1.0000 0.0000
vt 0.0000 1.0000 0.0000
vt 0.0000 0.0000 0.0000
# 4 texture coords

g Box1278
s 2
f 201/73/133 202/74/133 203/75/133 204/76/133 
s 4
f 205/76/134 206/73/134 207/74/134 208/75/134 
s 8
f 201/76/135 204/73/135 206/74/135 205/75/135 
s 16
f 204/76/136 203/73/136 207/74/136 206/75/136 
s 32
f 203/76/137 202/73/137 208/74/137 207/75/137 
s 64
f 202/76/138 201/73/138 205/74/138 208/75/138 
# 6 polygons

