# 3ds Max Wavefront OBJ Exporter v0.97b - (c)2007 guruware
# File Created: 28.10.2017 11:25:02

#
# object Box1292
#

v  1472.1858 1582.8521 -361.2169
v  1472.1858 1582.8521 -396.6500
v  1507.6189 1582.8521 -396.6500
v  1507.6189 1582.8521 -361.2169
v  1472.1858 1782.9640 -361.2169
v  1507.6189 1782.9640 -361.2169
v  1507.6189 1782.9640 -396.6500
v  1472.1858 1782.9640 -396.6500
# 8 vertices

vn 0.0000 -1.0000 -0.0000
vn 0.0000 1.0000 -0.0000
vn 0.0000 0.0000 1.0000
vn 1.0000 0.0000 -0.0000
vn 0.0000 0.0000 -1.0000
vn -1.0000 0.0000 -0.0000
# 6 vertex normals

vt 1.0000 0.0000 0.0000
vt 1.0000 1.0000 0.0000
vt 0.0000 1.0000 0.0000
vt 0.0000 0.0000 0.0000
# 4 texture coords

g Box1292
s 2
f 1/1/1 2/2/1 3/3/1 4/4/1 
s 4
f 5/4/2 6/1/2 7/2/2 8/3/2 
s 8
f 1/4/3 4/1/3 6/2/3 5/3/3 
s 16
f 4/4/4 3/1/4 7/2/4 6/3/4 
s 32
f 3/4/5 2/1/5 8/2/5 7/3/5 
s 64
f 2/4/6 1/1/6 5/2/6 8/3/6 
# 6 polygons

#
# object Box1293
#

v  1425.2834 1582.8521 -1066.0079
v  1425.2834 1582.8521 -1101.4410
v  1460.7166 1582.8521 -1101.4410
v  1460.7166 1582.8521 -1066.0079
v  1425.2834 1782.9640 -1066.0079
v  1460.7166 1782.9640 -1066.0079
v  1460.7166 1782.9640 -1101.4410
v  1425.2834 1782.9640 -1101.4410
# 8 vertices

vn 0.0000 -1.0000 -0.0000
vn 0.0000 1.0000 -0.0000
vn 0.0000 0.0000 1.0000
vn 1.0000 0.0000 -0.0000
vn 0.0000 0.0000 -1.0000
vn -1.0000 0.0000 -0.0000
# 6 vertex normals

vt 1.0000 0.0000 0.0000
vt 1.0000 1.0000 0.0000
vt 0.0000 1.0000 0.0000
vt 0.0000 0.0000 0.0000
# 4 texture coords

g Box1293
s 2
f 9/5/7 10/6/7 11/7/7 12/8/7 
s 4
f 13/8/8 14/5/8 15/6/8 16/7/8 
s 8
f 9/8/9 12/5/9 14/6/9 13/7/9 
s 16
f 12/8/10 11/5/10 15/6/10 14/7/10 
s 32
f 11/8/11 10/5/11 16/6/11 15/7/11 
s 64
f 10/8/12 9/5/12 13/6/12 16/7/12 
# 6 polygons

#
# object Line13
#

v  1102.7388 1582.8519 -330.1780
v  2269.7715 1582.8519 -398.3174
v  2269.7715 1611.1700 -398.3174
v  1102.7388 1611.1700 -330.1780
v  2198.7930 1582.8519 -1565.4158
v  2198.7930 1611.1700 -1565.4158
v  1031.6128 1582.8519 -1493.6741
v  1031.6128 1611.1700 -1493.6741
v  1585.0149 1582.8519 -729.5573
v  1460.0215 1582.8519 -722.1631
v  1460.0215 1611.1700 -722.1631
v  1585.0149 1611.1700 -729.5573
v  1441.0570 1582.8519 -1001.8762
v  1441.0570 1611.1700 -1001.8762
v  1566.0504 1582.8519 -1009.2703
v  1566.0504 1611.1700 -1009.2703
v  1225.6187 1582.8519 -707.8205
v  1100.6252 1582.8519 -700.4263
v  1100.6252 1611.1700 -700.4263
v  1225.6187 1611.1700 -707.8205
v  1081.6608 1582.8519 -980.1393
v  1081.6608 1611.1700 -980.1393
v  1206.6542 1582.8519 -987.5335
v  1206.6542 1611.1700 -987.5335
v  1806.5679 1582.8519 -731.4587
v  1691.1152 1582.8519 -724.3068
v  1691.1152 1611.1700 -724.3068
v  1806.5679 1611.1700 -731.4587
v  1671.4340 1582.8519 -1042.9990
v  1671.4340 1611.1700 -1042.9990
v  1787.8134 1582.8519 -1051.1624
v  1787.8134 1611.1700 -1051.1624
# 32 vertices

vn 0.0583 0.0000 0.9983
vn 0.9982 0.0000 -0.0607
vn -0.0614 0.0000 -0.9981
vn -0.9981 0.0000 0.0610
vn -0.0591 0.0000 -0.9983
vn 0.9977 0.0000 -0.0676
vn 0.0591 0.0000 0.9983
vn -0.9977 0.0000 0.0676
vn -0.0618 0.0000 -0.9981
vn 0.9981 0.0000 -0.0616
vn 0.0700 0.0000 0.9975
vn -0.9983 0.0000 0.0586
vn 0.0000 -1.0000 -0.0000
vn 0.0000 1.0000 -0.0000
# 14 vertex normals

g Line13
s 1
f 17//13 18//13 19//13 20//13 
s 4
f 18//14 21//14 22//14 19//14 
s 2
f 21//15 23//15 24//15 22//15 
s 4
f 23//16 17//16 20//16 24//16 
s 1
f 25//17 26//17 27//17 28//17 
s 4
f 26//18 29//18 30//18 27//18 
s 2
f 29//19 31//19 32//19 30//19 
s 4
f 31//20 25//20 28//20 32//20 
s 1
f 33//17 34//17 35//17 36//17 
s 4
f 34//18 37//18 38//18 35//18 
s 2
f 37//19 39//19 40//19 38//19 
s 4
f 39//20 33//20 36//20 40//20 
s 1
f 41//21 42//21 43//21 44//21 
s 4
f 42//22 45//22 46//22 43//22 
s 2
f 45//23 47//23 48//23 46//23 
s 4
f 47//24 41//24 44//24 48//24 
s 16
f 45//25 29//25 39//25 37//25 
f 17//25 33//25 26//25 25//25 
f 25//25 42//25 18//25 17//25 
f 17//25 23//25 34//25 33//25 
f 23//25 21//25 37//25 34//25 
f 21//25 47//25 45//25 37//25 
f 18//25 41//25 47//25 21//25 
f 33//25 39//25 29//25 26//25 
f 45//25 42//25 31//25 29//25 
f 42//25 25//25 31//25 
f 42//25 41//25 18//25 
f 46//26 22//26 38//26 40//26 
f 20//26 19//26 28//26 27//26 
f 20//26 27//26 30//26 36//26 
f 20//26 36//26 35//26 24//26 
f 24//26 35//26 38//26 22//26 
f 22//26 46//26 48//26 19//26 
f 19//26 48//26 44//26 43//26 
f 40//26 36//26 30//26 46//26 
f 46//26 30//26 32//26 43//26 
f 43//26 32//26 28//26 19//26 
# 35 polygons - 2 triangles

#
# object Box1294
#

v  1405.2795 1582.8521 -1425.5177
v  1405.2795 1582.8521 -1460.9508
v  1440.7126 1582.8521 -1460.9508
v  1440.7126 1582.8521 -1425.5177
v  1405.2795 1782.9640 -1425.5177
v  1440.7126 1782.9640 -1425.5177
v  1440.7126 1782.9640 -1460.9508
v  1405.2795 1782.9640 -1460.9508
# 8 vertices

vn 0.0000 -1.0000 -0.0000
vn 0.0000 1.0000 -0.0000
vn 0.0000 0.0000 1.0000
vn 1.0000 0.0000 -0.0000
vn 0.0000 0.0000 -1.0000
vn -1.0000 0.0000 -0.0000
# 6 vertex normals

vt 1.0000 0.0000 0.0000
vt 1.0000 1.0000 0.0000
vt 0.0000 1.0000 0.0000
vt 0.0000 0.0000 0.0000
# 4 texture coords

g Box1294
s 2
f 49/9/27 50/10/27 51/11/27 52/12/27 
s 4
f 53/12/28 54/9/28 55/10/28 56/11/28 
s 8
f 49/12/29 52/9/29 54/10/29 53/11/29 
s 16
f 52/12/30 51/9/30 55/10/30 54/11/30 
s 32
f 51/12/31 50/9/31 56/10/31 55/11/31 
s 64
f 50/12/32 49/9/32 53/10/32 56/11/32 
# 6 polygons

#
# object Box1297
#

v  1445.6311 1582.8521 -698.9473
v  1445.6311 1582.8521 -734.3804
v  1481.0642 1582.8521 -734.3804
v  1481.0642 1582.8521 -698.9473
v  1445.6311 1782.9640 -698.9473
v  1481.0642 1782.9640 -698.9473
v  1481.0642 1782.9640 -734.3804
v  1445.6311 1782.9640 -734.3804
# 8 vertices

vn 0.0000 -1.0000 -0.0000
vn 0.0000 1.0000 -0.0000
vn 0.0000 0.0000 1.0000
vn 1.0000 0.0000 -0.0000
vn 0.0000 0.0000 -1.0000
vn -1.0000 0.0000 -0.0000
# 6 vertex normals

vt 1.0000 0.0000 0.0000
vt 1.0000 1.0000 0.0000
vt 0.0000 1.0000 0.0000
vt 0.0000 0.0000 0.0000
# 4 texture coords

g Box1297
s 2
f 57/13/33 58/14/33 59/15/33 60/16/33 
s 4
f 61/16/34 62/13/34 63/14/34 64/15/34 
s 8
f 57/16/35 60/13/35 62/14/35 61/15/35 
s 16
f 60/16/36 59/13/36 63/14/36 62/15/36 
s 32
f 59/16/37 58/13/37 64/14/37 63/15/37 
s 64
f 58/16/38 57/13/38 61/14/38 64/15/38 
# 6 polygons

#
# object Box1301
#

v  1087.1522 1582.8519 -889.1509
v  1142.6412 1582.8517 -892.2530
v  1137.1138 1582.8517 -982.6266
v  1081.6248 1582.8519 -979.5245
v  1211.7788 1582.8514 -897.6005
v  1206.2513 1582.8514 -987.9741
v  1087.1523 1604.9000 -889.1509
v  1081.6249 1604.9000 -979.5245
v  1137.1139 1604.8998 -982.6266
v  1142.6414 1604.8998 -892.2530
v  1206.2515 1604.8995 -987.9741
v  1211.7789 1604.8995 -897.6005
v  1224.0507 1682.5250 -706.6611
v  1154.9131 1682.5253 -701.3135
v  1154.9132 1704.5735 -701.3135
v  1224.0508 1704.5731 -706.6611
v  1150.5348 1682.5253 -762.0894
v  1219.6724 1682.5250 -767.4369
v  1219.6724 1704.5731 -767.4369
v  1150.5348 1704.5735 -762.0894
v  1094.8875 1682.5255 -758.9776
v  1094.8875 1704.5736 -758.9777
v  1099.2659 1704.5736 -698.2018
v  1099.2657 1682.5255 -698.2018
v  1142.6383 1789.2764 -892.3139
v  1142.6383 1811.3246 -892.3139
v  1086.9910 1811.3247 -889.2021
v  1086.9910 1789.2766 -889.2021
# 28 vertices

vn -0.0000 -1.0000 0.0000
vn 0.0000 1.0000 -0.0000
vn -0.9981 0.0000 0.0610
vn -0.0558 -0.0000 -0.9984
vn -0.0665 0.0000 -0.9978
vn -0.0771 0.0000 -0.9970
vn 0.9981 -0.0000 -0.0610
vn 0.0771 -0.0000 0.9970
vn 0.0558 0.0000 0.9984
vn 0.0569 -0.6753 0.7353
vn -0.0569 0.6753 -0.7353
vn 0.9982 -0.0000 -0.0605
vn -0.9982 0.0000 0.0605
vn -0.9974 0.0000 0.0719
vn 0.9974 -0.0000 -0.0719
vn 0.0424 0.6501 0.7587
vn -0.0424 -0.6501 -0.7587
# 17 vertex normals

vt 1.0000 0.0000 0.0000
vt 1.0000 0.5000 0.0000
vt 0.0000 0.5000 0.0000
vt 0.0000 0.0000 0.0000
vt 1.0000 1.0000 0.0000
vt 0.0000 1.0000 0.0000
vt 0.5000 0.0000 0.0000
vt 0.5000 1.0000 0.0000
# 8 texture coords

g Box1301
s 2
f 68/20/39 67/19/39 66/18/39 65/17/39 
f 67/19/39 70/22/39 69/21/39 66/18/39 
s 4
f 74/19/40 73/18/40 72/17/40 71/20/40 
f 76/22/40 75/21/40 73/18/40 74/19/40 
s 8
f 71/22/41 72/21/41 68/17/41 65/20/41 
s 16
f 72/22/42 73/24/43 67/23/43 68/20/42 
f 73/24/43 75/21/44 70/17/44 67/23/43 
s 32
f 75/22/45 76/21/45 69/17/45 70/20/45 
s 64
f 80/22/46 79/24/46 78/23/46 77/20/46 
f 74/24/47 71/21/47 65/17/47 66/23/47 
s off
f 82/20/48 81/23/48 66/23/48 69/20/48 
f 84/24/49 83/22/49 76/22/49 74/24/49 
f 83/22/50 82/20/50 69/20/50 76/22/50 
f 81/23/51 84/24/51 74/24/51 66/23/51 
f 77/20/39 78/23/39 81/23/39 82/20/39 
f 88/23/52 87/24/52 86/24/52 85/23/52 
f 79/24/40 80/22/40 83/22/40 84/24/40 
f 80/22/53 77/20/53 82/20/53 83/22/53 
f 87/24/47 88/23/47 78/23/47 79/24/47 
f 92/23/42 91/24/42 90/24/42 89/23/42 
f 88/23/39 85/23/39 81/23/39 78/23/39 
f 86/24/40 87/24/40 79/24/40 84/24/40 
f 89/23/50 90/24/50 84/24/50 81/23/50 
f 91/24/51 92/23/51 85/23/51 86/24/51 
f 90/24/54 91/24/54 86/24/54 84/24/54 
f 92/23/55 89/23/55 81/23/55 85/23/55 
# 26 polygons

#
# object Box1302
#

v  1444.5292 1582.8519 -911.0963
v  1500.0182 1582.8517 -914.1983
v  1494.4907 1582.8517 -1004.5719
v  1439.0017 1582.8519 -1001.4698
v  1569.1558 1582.8514 -919.5458
v  1563.6283 1582.8514 -1009.9194
v  1444.5293 1604.9000 -911.0963
v  1439.0018 1604.9000 -1001.4698
v  1494.4908 1604.8998 -1004.5719
v  1500.0183 1604.8998 -914.1983
v  1563.6284 1604.8995 -1009.9194
v  1569.1559 1604.8995 -919.5458
v  1581.4276 1682.5250 -728.6064
v  1512.2900 1682.5253 -723.2589
v  1512.2902 1704.5735 -723.2589
v  1581.4277 1704.5731 -728.6064
v  1507.9117 1682.5253 -784.0347
v  1577.0493 1682.5250 -789.3822
v  1577.0493 1704.5731 -789.3822
v  1507.9117 1704.5735 -784.0347
v  1452.2644 1682.5255 -780.9229
v  1452.2644 1704.5736 -780.9230
v  1456.6428 1704.5736 -720.1471
v  1456.6427 1682.5255 -720.1471
v  1500.0153 1789.2764 -914.2592
v  1500.0153 1811.3246 -914.2592
v  1444.3679 1811.3247 -911.1475
v  1444.3679 1789.2766 -911.1475
# 28 vertices

vn -0.0000 -1.0000 0.0000
vn 0.0000 1.0000 -0.0000
vn -0.9981 0.0000 0.0610
vn -0.0558 -0.0000 -0.9984
vn -0.0665 0.0000 -0.9978
vn -0.0771 0.0000 -0.9970
vn 0.9981 -0.0000 -0.0610
vn 0.0771 -0.0000 0.9970
vn 0.0558 0.0000 0.9984
vn 0.0569 -0.6753 0.7353
vn -0.0569 0.6753 -0.7353
vn 0.9982 -0.0000 -0.0605
vn -0.9982 0.0000 0.0605
vn -0.9974 0.0000 0.0719
vn 0.9974 -0.0000 -0.0719
vn 0.0424 0.6501 0.7587
vn -0.0424 -0.6501 -0.7587
# 17 vertex normals

vt 1.0000 0.0000 0.0000
vt 1.0000 0.5000 0.0000
vt 0.0000 0.5000 0.0000
vt 0.0000 0.0000 0.0000
vt 1.0000 1.0000 0.0000
vt 0.0000 1.0000 0.0000
vt 0.5000 0.0000 0.0000
vt 0.5000 1.0000 0.0000
# 8 texture coords

g Box1302
s 2
f 96/28/56 95/27/56 94/26/56 93/25/56 
f 95/27/56 98/30/56 97/29/56 94/26/56 
s 4
f 102/27/57 101/26/57 100/25/57 99/28/57 
f 104/30/57 103/29/57 101/26/57 102/27/57 
s 8
f 99/30/58 100/29/58 96/25/58 93/28/58 
s 16
f 100/30/59 101/32/60 95/31/60 96/28/59 
f 101/32/60 103/29/61 98/25/61 95/31/60 
s 32
f 103/30/62 104/29/62 97/25/62 98/28/62 
s 64
f 108/30/63 107/32/63 106/31/63 105/28/63 
f 102/32/64 99/29/64 93/25/64 94/31/64 
s off
f 110/28/65 109/31/65 94/31/65 97/28/65 
f 112/32/66 111/30/66 104/30/66 102/32/66 
f 111/30/67 110/28/67 97/28/67 104/30/67 
f 109/31/68 112/32/68 102/32/68 94/31/68 
f 105/28/56 106/31/56 109/31/56 110/28/56 
f 116/31/69 115/32/69 114/32/69 113/31/69 
f 107/32/57 108/30/57 111/30/57 112/32/57 
f 108/30/70 105/28/70 110/28/70 111/30/70 
f 115/32/64 116/31/64 106/31/64 107/32/64 
f 120/31/59 119/32/59 118/32/59 117/31/59 
f 116/31/56 113/31/56 109/31/56 106/31/56 
f 114/32/57 115/32/57 107/32/57 112/32/57 
f 117/31/67 118/32/67 112/32/67 109/31/67 
f 119/32/68 120/31/68 113/31/68 114/32/68 
f 118/32/71 119/32/71 114/32/71 112/32/71 
f 120/31/72 117/31/72 109/31/72 113/31/72 
# 26 polygons

#
# object Box1303
#

v  2102.1663 1582.8521 -1465.4591
v  2102.1663 1582.8521 -1500.8922
v  2137.5994 1582.8521 -1500.8922
v  2137.5994 1582.8521 -1465.4591
v  2102.1663 1782.9640 -1465.4591
v  2137.5994 1782.9640 -1465.4591
v  2137.5994 1782.9640 -1500.8922
v  2102.1663 1782.9640 -1500.8922
# 8 vertices

vn 0.0000 -1.0000 -0.0000
vn 0.0000 1.0000 -0.0000
vn 0.0000 0.0000 1.0000
vn 1.0000 0.0000 -0.0000
vn 0.0000 0.0000 -1.0000
vn -1.0000 0.0000 -0.0000
# 6 vertex normals

vt 1.0000 0.0000 0.0000
vt 1.0000 1.0000 0.0000
vt 0.0000 1.0000 0.0000
vt 0.0000 0.0000 0.0000
# 4 texture coords

g Box1303
s 2
f 121/33/73 122/34/73 123/35/73 124/36/73 
s 4
f 125/36/74 126/33/74 127/34/74 128/35/74 
s 8
f 121/36/75 124/33/75 126/34/75 125/35/75 
s 16
f 124/36/76 123/33/76 127/34/76 126/35/76 
s 32
f 123/36/77 122/33/77 128/34/77 127/35/77 
s 64
f 122/36/78 121/33/78 125/34/78 128/35/78 
# 6 polygons

#
# object Box1304
#

v  1749.8850 1582.8521 -1445.5060
v  1749.8850 1582.8521 -1480.9391
v  1785.3181 1582.8521 -1480.9391
v  1785.3181 1582.8521 -1445.5060
v  1749.8850 1782.9640 -1445.5060
v  1785.3181 1782.9640 -1445.5060
v  1785.3181 1782.9640 -1480.9391
v  1749.8850 1782.9640 -1480.9391
# 8 vertices

vn 0.0000 -1.0000 -0.0000
vn 0.0000 1.0000 -0.0000
vn 0.0000 0.0000 1.0000
vn 1.0000 0.0000 -0.0000
vn 0.0000 0.0000 -1.0000
vn -1.0000 0.0000 -0.0000
# 6 vertex normals

vt 1.0000 0.0000 0.0000
vt 1.0000 1.0000 0.0000
vt 0.0000 1.0000 0.0000
vt 0.0000 0.0000 0.0000
# 4 texture coords

g Box1304
s 2
f 129/37/79 130/38/79 131/39/79 132/40/79 
s 4
f 133/40/80 134/37/80 135/38/80 136/39/80 
s 8
f 129/40/81 132/37/81 134/38/81 133/39/81 
s 16
f 132/40/82 131/37/82 135/38/82 134/39/82 
s 32
f 131/40/83 130/37/83 136/38/83 135/39/83 
s 64
f 130/40/84 129/37/84 133/38/84 136/39/84 
# 6 polygons

#
# object Box1305
#

v  1043.1077 1582.8521 -1407.0646
v  1043.1077 1582.8521 -1442.4977
v  1078.5408 1582.8521 -1442.4977
v  1078.5408 1582.8521 -1407.0646
v  1043.1077 1782.9640 -1407.0646
v  1078.5408 1782.9640 -1407.0646
v  1078.5408 1782.9640 -1442.4977
v  1043.1077 1782.9640 -1442.4977
# 8 vertices

vn 0.0000 -1.0000 -0.0000
vn 0.0000 1.0000 -0.0000
vn 0.0000 0.0000 1.0000
vn 1.0000 0.0000 -0.0000
vn 0.0000 0.0000 -1.0000
vn -1.0000 0.0000 -0.0000
# 6 vertex normals

vt 1.0000 0.0000 0.0000
vt 1.0000 1.0000 0.0000
vt 0.0000 1.0000 0.0000
vt 0.0000 0.0000 0.0000
# 4 texture coords

g Box1305
s 2
f 137/41/85 138/42/85 139/43/85 140/44/85 
s 4
f 141/44/86 142/41/86 143/42/86 144/43/86 
s 8
f 137/44/87 140/41/87 142/42/87 141/43/87 
s 16
f 140/44/88 139/41/88 143/42/88 142/43/88 
s 32
f 139/44/89 138/41/89 144/42/89 143/43/89 
s 64
f 138/44/90 137/41/90 141/42/90 144/43/90 
# 6 polygons

#
# object Box1306
#

v  1063.1116 1582.8521 -1047.5548
v  1063.1116 1582.8521 -1082.9879
v  1098.5447 1582.8521 -1082.9879
v  1098.5447 1582.8521 -1047.5548
v  1063.1116 1782.9640 -1047.5548
v  1098.5447 1782.9640 -1047.5548
v  1098.5447 1782.9640 -1082.9879
v  1063.1116 1782.9640 -1082.9879
# 8 vertices

vn 0.0000 -1.0000 -0.0000
vn 0.0000 1.0000 -0.0000
vn 0.0000 0.0000 1.0000
vn 1.0000 0.0000 -0.0000
vn 0.0000 0.0000 -1.0000
vn -1.0000 0.0000 -0.0000
# 6 vertex normals

vt 1.0000 0.0000 0.0000
vt 1.0000 1.0000 0.0000
vt 0.0000 1.0000 0.0000
vt 0.0000 0.0000 0.0000
# 4 texture coords

g Box1306
s 2
f 145/45/91 146/46/91 147/47/91 148/48/91 
s 4
f 149/48/92 150/45/92 151/46/92 152/47/92 
s 8
f 145/48/93 148/45/93 150/46/93 149/47/93 
s 16
f 148/48/94 147/45/94 151/46/94 150/47/94 
s 32
f 147/48/95 146/45/95 152/46/95 151/47/95 
s 64
f 146/48/96 145/45/96 149/46/96 152/47/96 
# 6 polygons

#
# object Box1307
#

v  2122.1741 1582.8521 -1105.9493
v  2122.1741 1582.8521 -1141.3824
v  2157.6072 1582.8521 -1141.3824
v  2157.6072 1582.8521 -1105.9493
v  2122.1741 1782.9640 -1105.9493
v  2157.6072 1782.9640 -1105.9493
v  2157.6072 1782.9640 -1141.3824
v  2122.1741 1782.9640 -1141.3824
# 8 vertices

vn 0.0000 -1.0000 -0.0000
vn 0.0000 1.0000 -0.0000
vn 0.0000 0.0000 1.0000
vn 1.0000 0.0000 -0.0000
vn 0.0000 0.0000 -1.0000
vn -1.0000 0.0000 -0.0000
# 6 vertex normals

vt 1.0000 0.0000 0.0000
vt 1.0000 1.0000 0.0000
vt 0.0000 1.0000 0.0000
vt 0.0000 0.0000 0.0000
# 4 texture coords

g Box1307
s 2
f 153/49/97 154/50/97 155/51/97 156/52/97 
s 4
f 157/52/98 158/49/98 159/50/98 160/51/98 
s 8
f 153/52/99 156/49/99 158/50/99 157/51/99 
s 16
f 156/52/100 155/49/100 159/50/100 158/51/100 
s 32
f 155/52/101 154/49/101 160/50/101 159/51/101 
s 64
f 154/52/102 153/49/102 157/50/102 160/51/102 
# 6 polygons

#
# object Box1308
#

v  1769.8850 1582.8521 -1085.9962
v  1769.8850 1582.8521 -1121.4293
v  1805.3181 1582.8521 -1121.4293
v  1805.3181 1582.8521 -1085.9962
v  1769.8850 1782.9640 -1085.9962
v  1805.3181 1782.9640 -1085.9962
v  1805.3181 1782.9640 -1121.4293
v  1769.8850 1782.9640 -1121.4293
# 8 vertices

vn 0.0000 -1.0000 -0.0000
vn 0.0000 1.0000 -0.0000
vn 0.0000 0.0000 1.0000
vn 1.0000 0.0000 -0.0000
vn 0.0000 0.0000 -1.0000
vn -1.0000 0.0000 -0.0000
# 6 vertex normals

vt 1.0000 0.0000 0.0000
vt 1.0000 1.0000 0.0000
vt 0.0000 1.0000 0.0000
vt 0.0000 0.0000 0.0000
# 4 texture coords

g Box1308
s 2
f 161/53/103 162/54/103 163/55/103 164/56/103 
s 4
f 165/56/104 166/53/104 167/54/104 168/55/104 
s 8
f 161/56/105 164/53/105 166/54/105 165/55/105 
s 16
f 164/56/106 163/53/106 167/54/106 166/55/106 
s 32
f 163/56/107 162/53/107 168/54/107 167/55/107 
s 64
f 162/56/108 161/53/108 165/54/108 168/55/108 
# 6 polygons

#
# object Box1309
#

v  1083.4592 1582.8521 -680.4942
v  1083.4592 1582.8521 -715.9273
v  1118.8923 1582.8521 -715.9273
v  1118.8923 1582.8521 -680.4942
v  1083.4592 1782.9640 -680.4942
v  1118.8923 1782.9640 -680.4942
v  1118.8923 1782.9640 -715.9273
v  1083.4592 1782.9640 -715.9273
# 8 vertices

vn 0.0000 -1.0000 -0.0000
vn 0.0000 1.0000 -0.0000
vn 0.0000 0.0000 1.0000
vn 1.0000 0.0000 -0.0000
vn 0.0000 0.0000 -1.0000
vn -1.0000 0.0000 -0.0000
# 6 vertex normals

vt 1.0000 0.0000 0.0000
vt 1.0000 1.0000 0.0000
vt 0.0000 1.0000 0.0000
vt 0.0000 0.0000 0.0000
# 4 texture coords

g Box1309
s 2
f 169/57/109 170/58/109 171/59/109 172/60/109 
s 4
f 173/60/110 174/57/110 175/58/110 176/59/110 
s 8
f 169/60/111 172/57/111 174/58/111 173/59/111 
s 16
f 172/60/112 171/57/112 175/58/112 174/59/112 
s 32
f 171/60/113 170/57/113 176/58/113 175/59/113 
s 64
f 170/60/114 169/57/114 173/58/114 176/59/114 
# 6 polygons

#
# object Box1310
#

v  2141.9631 1582.8521 -750.4883
v  2141.9631 1582.8521 -785.9214
v  2177.3962 1582.8521 -785.9214
v  2177.3962 1582.8521 -750.4883
v  2141.9631 1782.9640 -750.4883
v  2177.3962 1782.9640 -750.4883
v  2177.3962 1782.9640 -785.9214
v  2141.9631 1782.9640 -785.9214
# 8 vertices

vn 0.0000 -1.0000 -0.0000
vn 0.0000 1.0000 -0.0000
vn 0.0000 0.0000 1.0000
vn 1.0000 0.0000 -0.0000
vn 0.0000 0.0000 -1.0000
vn -1.0000 0.0000 -0.0000
# 6 vertex normals

vt 1.0000 0.0000 0.0000
vt 1.0000 1.0000 0.0000
vt 0.0000 1.0000 0.0000
vt 0.0000 0.0000 0.0000
# 4 texture coords

g Box1310
s 2
f 177/61/115 178/62/115 179/63/115 180/64/115 
s 4
f 181/64/116 182/61/116 183/62/116 184/63/116 
s 8
f 177/64/117 180/61/117 182/62/117 181/63/117 
s 16
f 180/64/118 179/61/118 183/62/118 182/63/118 
s 32
f 179/64/119 178/61/119 184/62/119 183/63/119 
s 64
f 178/64/120 177/61/120 181/62/120 184/63/120 
# 6 polygons

#
# object Box1311
#

v  1110.0139 1582.8521 -342.7638
v  1110.0139 1582.8521 -378.1969
v  1145.4470 1582.8521 -378.1969
v  1145.4470 1582.8521 -342.7638
v  1110.0139 1782.9640 -342.7638
v  1145.4470 1782.9640 -342.7638
v  1145.4470 1782.9640 -378.1969
v  1110.0139 1782.9640 -378.1969
# 8 vertices

vn 0.0000 -1.0000 -0.0000
vn 0.0000 1.0000 -0.0000
vn 0.0000 0.0000 1.0000
vn 1.0000 0.0000 -0.0000
vn 0.0000 0.0000 -1.0000
vn -1.0000 0.0000 -0.0000
# 6 vertex normals

vt 1.0000 0.0000 0.0000
vt 1.0000 1.0000 0.0000
vt 0.0000 1.0000 0.0000
vt 0.0000 0.0000 0.0000
# 4 texture coords

g Box1311
s 2
f 185/65/121 186/66/121 187/67/121 188/68/121 
s 4
f 189/68/122 190/65/122 191/66/122 192/67/122 
s 8
f 185/68/123 188/65/123 190/66/123 189/67/123 
s 16
f 188/68/124 187/65/124 191/66/124 190/67/124 
s 32
f 187/68/125 186/65/125 192/66/125 191/67/125 
s 64
f 186/68/126 185/65/126 189/66/126 192/67/126 
# 6 polygons

#
# object Box1312
#

v  2168.5256 1582.8521 -412.7580
v  2168.5256 1582.8521 -448.1910
v  2203.9587 1582.8521 -448.1910
v  2203.9587 1582.8521 -412.7580
v  2168.5256 1782.9640 -412.7580
v  2203.9587 1782.9640 -412.7580
v  2203.9587 1782.9640 -448.1910
v  2168.5256 1782.9640 -448.1910
# 8 vertices

vn 0.0000 -1.0000 -0.0000
vn 0.0000 1.0000 -0.0000
vn 0.0000 0.0000 1.0000
vn 1.0000 0.0000 -0.0000
vn 0.0000 0.0000 -1.0000
vn -1.0000 0.0000 -0.0000
# 6 vertex normals

vt 1.0000 0.0000 0.0000
vt 1.0000 1.0000 0.0000
vt 0.0000 1.0000 0.0000
vt 0.0000 0.0000 0.0000
# 4 texture coords

g Box1312
s 2
f 193/69/127 194/70/127 195/71/127 196/72/127 
s 4
f 197/72/128 198/69/128 199/70/128 200/71/128 
s 8
f 193/72/129 196/69/129 198/70/129 197/71/129 
s 16
f 196/72/130 195/69/130 199/70/130 198/71/130 
s 32
f 195/72/131 194/69/131 200/70/131 199/71/131 
s 64
f 194/72/132 193/69/132 197/70/132 200/71/132 
# 6 polygons

#
# object Box1313
#

v  1816.7913 1582.8521 -381.2052
v  1816.7913 1582.8521 -416.6383
v  1852.2244 1582.8521 -416.6383
v  1852.2244 1582.8521 -381.2052
v  1816.7913 1782.9640 -381.2052
v  1852.2244 1782.9640 -381.2052
v  1852.2244 1782.9640 -416.6383
v  1816.7913 1782.9640 -416.6383
# 8 vertices

vn 0.0000 -1.0000 -0.0000
vn 0.0000 1.0000 -0.0000
vn 0.0000 0.0000 1.0000
vn 1.0000 0.0000 -0.0000
vn 0.0000 0.0000 -1.0000
vn -1.0000 0.0000 -0.0000
# 6 vertex normals

vt 1.0000 0.0000 0.0000
vt 1.0000 1.0000 0.0000
vt 0.0000 1.0000 0.0000
vt 0.0000 0.0000 0.0000
# 4 texture coords

g Box1313
s 2
f 201/73/133 202/74/133 203/75/133 204/76/133 
s 4
f 205/76/134 206/73/134 207/74/134 208/75/134 
s 8
f 201/76/135 204/73/135 206/74/135 205/75/135 
s 16
f 204/76/136 203/73/136 207/74/136 206/75/136 
s 32
f 203/76/137 202/73/137 208/74/137 207/75/137 
s 64
f 202/76/138 201/73/138 205/74/138 208/75/138 
# 6 polygons

