# 3ds Max Wavefront OBJ Exporter v0.97b - (c)2007 guruware
# File Created: 28.10.2017 11:25:42

#
# object Line14
#

v  1936.2273 1784.1099 1279.3713
v  1820.7747 1784.1099 1286.5232
v  1820.7747 1815.6060 1286.5232
v  1936.2273 1815.6060 1279.3713
v  1801.0934 1784.1099 967.8311
v  1801.0934 1815.6060 967.8311
v  1917.4729 1784.1099 959.6678
v  1917.4729 1815.6060 959.6678
v  1711.5125 1784.1099 1258.1511
v  1586.5190 1784.1099 1265.5452
v  1586.5190 1815.6060 1265.5452
v  1711.5125 1815.6060 1258.1511
v  1567.5546 1784.1099 985.8322
v  1567.5546 1815.6060 985.8322
v  1692.5480 1784.1099 978.4380
v  1692.5480 1815.6060 978.4380
v  1352.1162 1784.1099 1279.8879
v  1227.1228 1784.1099 1287.2820
v  1227.1228 1815.6060 1287.2820
v  1352.1162 1815.6060 1279.8879
v  1208.1583 1784.1099 1007.5690
v  1208.1583 1815.6060 1007.5690
v  1333.1517 1784.1099 1000.1749
v  1333.1517 1815.6060 1000.1749
v  1162.3250 1784.1099 644.5476
v  1233.3860 1784.1099 1806.9814
v  1233.3860 1815.6060 1806.9814
v  1162.3250 1815.6060 644.5476
v  2400.4644 1784.1099 1735.6069
v  2400.4644 1815.6060 1735.6069
v  2329.1392 1784.1099 568.4522
v  2329.1392 1815.6060 568.4522
# 32 vertices

vn -0.0618 0.0000 -0.9981
vn 0.9981 0.0000 -0.0616
vn 0.0700 0.0000 0.9975
vn -0.9983 0.0000 0.0586
vn -0.0591 0.0000 -0.9983
vn 0.9977 0.0000 -0.0676
vn 0.0591 0.0000 0.9983
vn -0.9977 0.0000 0.0676
vn -0.9981 0.0000 0.0610
vn 0.0610 0.0000 0.9981
vn 0.9981 0.0000 -0.0610
vn -0.0651 0.0000 -0.9979
vn 0.0000 -1.0000 -0.0000
vn 0.0000 1.0000 -0.0000
# 14 vertex normals

g Line14
s 1
f 1//1 2//1 3//1 4//1 
s 4
f 2//2 5//2 6//2 3//2 
s 2
f 5//3 7//3 8//3 6//3 
s 4
f 7//4 1//4 4//4 8//4 
s 1
f 9//5 10//5 11//5 12//5 
s 4
f 10//6 13//6 14//6 11//6 
s 2
f 13//7 15//7 16//7 14//7 
s 4
f 15//8 9//8 12//8 16//8 
s 1
f 17//5 18//5 19//5 20//5 
s 4
f 18//6 21//6 22//6 19//6 
s 2
f 21//7 23//7 24//7 22//7 
s 4
f 23//8 17//8 20//8 24//8 
s 1
f 25//9 26//9 27//9 28//9 
s 4
f 26//10 29//10 30//10 27//10 
s 2
f 29//11 31//11 32//11 30//11 
s 4
f 31//12 25//12 28//12 32//12 
s 16
f 31//13 7//13 5//13 25//13 
f 29//13 1//13 7//13 31//13 
f 26//13 2//13 1//13 29//13 
f 26//13 10//13 9//13 2//13 
f 26//13 18//13 17//13 10//13 
f 9//13 15//13 5//13 2//13 
f 15//13 13//13 25//13 5//13 
f 25//13 21//13 18//13 26//13 
f 13//13 23//13 21//13 25//13 
f 13//13 10//13 17//13 23//13 
f 32//14 28//14 16//14 6//14 
f 32//14 6//14 8//14 30//14 
f 30//14 8//14 4//14 27//14 
f 27//14 4//14 3//14 12//14 
f 27//14 12//14 11//14 20//14 
f 12//14 3//14 6//14 16//14 
f 14//14 16//14 28//14 22//14 
f 27//14 20//14 19//14 28//14 
f 28//14 19//14 22//14 
f 14//14 22//14 24//14 20//14 
f 11//14 14//14 20//14 
# 35 polygons - 2 triangles

#
# object Line15
#

v  1922.8956 1812.7271 957.5145
v  1942.3228 1812.7271 1286.2295
v  1942.3228 2008.2231 1286.2295
v  1922.8956 2008.2231 957.5145
v  1547.2339 1812.7271 1310.6135
v  1547.2339 2008.2231 1310.6135
v  1552.4076 1812.7271 1390.7134
v  1552.4076 2008.2231 1390.7134
v  1359.5315 1812.7271 1403.3433
v  1359.5315 2008.2231 1403.3433
v  1355.6760 1812.7271 1323.5281
v  1355.6760 2008.2231 1323.5281
v  1226.3834 1812.7271 1331.0938
v  1226.3834 2008.2231 1331.0938
v  1205.3124 1812.7271 1002.8315
v  1205.3124 2008.2231 1002.8315
# 16 vertices

vn 0.9983 0.0000 -0.0590
vn 0.0616 0.0000 0.9981
vn 0.9979 0.0000 -0.0645
vn 0.0653 0.0000 0.9979
vn -0.9988 0.0000 0.0482
vn 0.0584 0.0000 0.9983
vn -0.9979 0.0000 0.0641
vn -0.0630 0.0000 -0.9980
vn 0.0000 -1.0000 -0.0000
vn 0.0000 1.0000 -0.0000
# 10 vertex normals

g Line15
s 1
f 36//15 35//15 34//15 33//15 
s 4
f 35//16 38//16 37//16 34//16 
s 2
f 38//17 40//17 39//17 37//17 
s 4
f 40//18 42//18 41//18 39//18 
s 2
f 42//19 44//19 43//19 41//19 
s 4
f 44//20 46//20 45//20 43//20 
s 2
f 46//21 48//21 47//21 45//21 
s 4
f 48//22 36//22 33//22 47//22 
s 16
f 41//23 43//23 37//23 39//23 
f 33//23 34//23 37//23 47//23 
f 47//23 37//23 43//23 45//23 
f 38//24 44//24 42//24 40//24 
f 38//24 35//24 36//24 48//24 
f 44//24 38//24 48//24 46//24 
# 14 polygons

