# 3ds Max Wavefront OBJ Exporter v0.97b - (c)2007 guruware
# File Created: 28.10.2017 11:33:29

#
# object Box1012
#

v  1576.5413 -18.9106 1370.2595
v  1576.5413 -18.9106 1334.8264
v  1611.9744 -18.9106 1334.8264
v  1611.9744 -18.9106 1370.2595
v  1576.5413 181.2013 1370.2595
v  1611.9744 181.2013 1370.2595
v  1611.9744 181.2013 1334.8264
v  1576.5413 181.2013 1334.8264
# 8 vertices

vn 0.0000 -1.0000 -0.0000
vn 0.0000 1.0000 -0.0000
vn 0.0000 0.0000 1.0000
vn 1.0000 0.0000 -0.0000
vn 0.0000 0.0000 -1.0000
vn -1.0000 0.0000 -0.0000
# 6 vertex normals

vt 1.0000 0.0000 0.0000
vt 1.0000 1.0000 0.0000
vt 0.0000 1.0000 0.0000
vt 0.0000 0.0000 0.0000
# 4 texture coords

g Box1012
s 2
f 1/1/1 2/2/1 3/3/1 4/4/1 
s 4
f 5/4/2 6/1/2 7/2/2 8/3/2 
s 8
f 1/4/3 4/1/3 6/2/3 5/3/3 
s 16
f 4/4/4 3/1/4 7/2/4 6/3/4 
s 32
f 3/4/5 2/1/5 8/2/5 7/3/5 
s 64
f 2/4/6 1/1/6 5/2/6 8/3/6 
# 6 polygons

#
# object Line05
#

v  1936.2273 -18.9108 1279.3713
v  1820.7747 -18.9108 1286.5232
v  1820.7747 9.4074 1286.5232
v  1936.2273 9.4074 1279.3713
v  1801.0934 -18.9108 967.8311
v  1801.0934 9.4074 967.8311
v  1917.4729 -18.9108 959.6677
v  1917.4729 9.4074 959.6677
v  1711.5125 -18.9108 1258.1510
v  1586.5190 -18.9108 1265.5452
v  1586.5190 9.4074 1265.5452
v  1711.5125 9.4074 1258.1510
v  1567.5546 -18.9108 985.8322
v  1567.5546 9.4074 985.8322
v  1692.5480 -18.9108 978.4380
v  1692.5480 9.4074 978.4380
v  1352.1162 -18.9108 1279.8878
v  1227.1228 -18.9108 1287.2820
v  1227.1228 9.4074 1287.2820
v  1352.1162 9.4074 1279.8878
v  1208.1583 -18.9108 1007.5690
v  1208.1583 9.4074 1007.5690
v  1333.1517 -18.9108 1000.1748
v  1333.1517 9.4074 1000.1748
v  1162.3250 -18.9108 644.5475
v  1233.3860 -18.9108 1806.9814
v  1233.3860 9.4074 1806.9814
v  1162.3250 9.4074 644.5475
v  2400.4644 -18.9108 1735.6068
v  2400.4644 9.4074 1735.6068
v  2329.1392 -18.9108 568.4521
v  2329.1392 9.4074 568.4521
# 32 vertices

vn -0.0618 0.0000 -0.9981
vn 0.9981 0.0000 -0.0616
vn 0.0700 0.0000 0.9975
vn -0.9983 0.0000 0.0586
vn -0.0591 0.0000 -0.9983
vn 0.9977 0.0000 -0.0676
vn 0.0591 0.0000 0.9983
vn -0.9977 0.0000 0.0676
vn -0.9981 0.0000 0.0610
vn 0.0610 0.0000 0.9981
vn 0.9981 0.0000 -0.0610
vn -0.0651 0.0000 -0.9979
vn 0.0000 -1.0000 -0.0000
vn 0.0000 1.0000 -0.0000
# 14 vertex normals

g Line05
s 1
f 9//7 10//7 11//7 12//7 
s 4
f 10//8 13//8 14//8 11//8 
s 2
f 13//9 15//9 16//9 14//9 
s 4
f 15//10 9//10 12//10 16//10 
s 1
f 17//11 18//11 19//11 20//11 
s 4
f 18//12 21//12 22//12 19//12 
s 2
f 21//13 23//13 24//13 22//13 
s 4
f 23//14 17//14 20//14 24//14 
s 1
f 25//11 26//11 27//11 28//11 
s 4
f 26//12 29//12 30//12 27//12 
s 2
f 29//13 31//13 32//13 30//13 
s 4
f 31//14 25//14 28//14 32//14 
s 1
f 33//15 34//15 35//15 36//15 
s 4
f 34//16 37//16 38//16 35//16 
s 2
f 37//17 39//17 40//17 38//17 
s 4
f 39//18 33//18 36//18 40//18 
s 16
f 39//19 15//19 13//19 33//19 
f 37//19 9//19 15//19 39//19 
f 34//19 10//19 9//19 37//19 
f 34//19 18//19 17//19 10//19 
f 34//19 26//19 25//19 18//19 
f 17//19 23//19 13//19 10//19 
f 23//19 21//19 33//19 13//19 
f 33//19 29//19 26//19 34//19 
f 21//19 31//19 29//19 33//19 
f 21//19 18//19 25//19 31//19 
f 40//20 36//20 24//20 14//20 
f 40//20 14//20 16//20 38//20 
f 38//20 16//20 12//20 35//20 
f 35//20 12//20 11//20 20//20 
f 35//20 20//20 19//20 28//20 
f 20//20 11//20 14//20 24//20 
f 22//20 24//20 36//20 30//20 
f 35//20 28//20 27//20 36//20 
f 36//20 27//20 30//20 
f 22//20 30//20 32//20 28//20 
f 19//20 22//20 28//20 
# 35 polygons - 2 triangles

#
# object Box1013
#

v  1220.8221 -18.9111 1198.8035
v  1276.2413 -18.9111 1194.6362
v  1282.5573 -18.9111 1284.9583
v  1227.1381 -18.9111 1289.1255
v  1345.4856 -18.9111 1190.9137
v  1351.8015 -18.9111 1281.2358
v  1220.8221 3.1371 1198.8035
v  1227.1381 3.1371 1289.1255
v  1282.5573 3.1371 1284.9583
v  1276.2413 3.1371 1194.6362
v  1351.8015 3.1371 1281.2358
v  1345.4856 3.1371 1190.9137
v  1332.7295 80.7625 1000.0057
v  1263.4852 80.7625 1003.7282
v  1263.4852 102.8107 1003.7282
v  1332.7295 102.8107 1000.0057
v  1267.0771 80.7625 1064.5557
v  1336.3214 80.7625 1060.8331
v  1336.3214 102.8107 1060.8331
v  1267.0771 102.8107 1064.5557
v  1211.4996 80.7625 1068.7340
v  1211.4996 102.8107 1068.7340
v  1207.9077 102.8107 1007.9065
v  1207.9077 80.7625 1007.9065
v  1276.2456 187.5137 1194.6970
v  1276.2456 209.5618 1194.6970
v  1220.6681 209.5618 1198.8754
v  1220.6681 187.5137 1198.8754
# 28 vertices

vn 0.0000 -1.0000 -0.0000
vn -0.0000 1.0000 0.0000
vn -0.9976 -0.0000 0.0698
vn 0.0750 0.0000 0.9972
vn 0.0643 -0.0000 0.9979
vn 0.0537 -0.0000 0.9986
vn 0.9976 0.0000 -0.0698
vn -0.0537 0.0000 -0.9986
vn -0.0750 -0.0000 -0.9972
vn -0.0396 -0.6753 -0.7364
vn 0.0396 0.6753 0.7364
vn 0.9975 0.0000 -0.0703
vn -0.9975 -0.0000 0.0703
vn -0.9983 -0.0000 0.0589
vn 0.9983 0.0000 -0.0589
vn -0.0570 0.6501 -0.7577
vn 0.0570 -0.6501 0.7577
# 17 vertex normals

vt 1.0000 0.0000 0.0000
vt 1.0000 0.5000 0.0000
vt 0.0000 0.5000 0.0000
vt 0.0000 0.0000 0.0000
vt 1.0000 1.0000 0.0000
vt 0.0000 1.0000 0.0000
vt 0.5000 0.0000 0.0000
vt 0.5000 1.0000 0.0000
# 8 texture coords

g Box1013
s 2
f 41/5/21 42/6/21 43/7/21 44/8/21 
f 42/6/21 45/9/21 46/10/21 43/7/21 
s 4
f 47/8/22 48/5/22 49/6/22 50/7/22 
f 50/7/22 49/6/22 51/9/22 52/10/22 
s 8
f 41/8/23 44/5/23 48/9/23 47/10/23 
s 16
f 44/8/24 43/11/25 49/12/25 48/10/24 
f 43/11/25 46/5/26 51/9/26 49/12/25 
s 32
f 46/8/27 45/5/27 52/9/27 51/10/27 
s 64
f 53/8/28 54/11/28 55/12/28 56/10/28 
f 42/11/29 41/5/29 47/9/29 50/12/29 
s off
f 45/8/30 42/11/30 57/11/30 58/8/30 
f 50/12/31 52/10/31 59/10/31 60/12/31 
f 52/10/32 45/8/32 58/8/32 59/10/32 
f 42/11/33 50/12/33 60/12/33 57/11/33 
f 58/8/21 57/11/21 54/11/21 53/8/21 
f 61/11/34 62/12/34 63/12/34 64/11/34 
f 60/12/22 59/10/22 56/10/22 55/12/22 
f 59/10/35 58/8/35 53/8/35 56/10/35 
f 55/12/29 54/11/29 64/11/29 63/12/29 
f 65/11/24 66/12/24 67/12/24 68/11/24 
f 54/11/21 57/11/21 61/11/21 64/11/21 
f 60/12/22 55/12/22 63/12/22 62/12/22 
f 57/11/32 60/12/32 66/12/32 65/11/32 
f 62/12/33 61/11/33 68/11/33 67/12/33 
f 60/12/36 62/12/36 67/12/36 66/12/36 
f 61/11/37 57/11/37 65/11/37 68/11/37 
# 26 polygons

#
# object Box1014
#

v  1580.3815 -18.9111 1177.4536
v  1635.8007 -18.9111 1173.2864
v  1642.1166 -18.9111 1263.6084
v  1586.6974 -18.9111 1267.7756
v  1705.0449 -18.9111 1169.5638
v  1711.3608 -18.9111 1259.8860
v  1580.3815 3.1371 1177.4536
v  1586.6974 3.1371 1267.7756
v  1642.1166 3.1371 1263.6084
v  1635.8007 3.1371 1173.2864
v  1711.3608 3.1371 1259.8860
v  1705.0449 3.1371 1169.5638
v  1692.2888 80.7625 978.6559
v  1623.0446 80.7625 982.3784
v  1623.0446 102.8107 982.3784
v  1692.2888 102.8107 978.6559
v  1626.6365 80.7625 1043.2058
v  1695.8807 80.7625 1039.4833
v  1695.8807 102.8107 1039.4833
v  1626.6365 102.8107 1043.2058
v  1571.0590 80.7625 1047.3842
v  1571.0590 102.8107 1047.3842
v  1567.4670 102.8107 986.5566
v  1567.4670 80.7625 986.5566
v  1635.8049 187.5137 1173.3472
v  1635.8049 209.5618 1173.3472
v  1580.2274 209.5618 1177.5255
v  1580.2274 187.5137 1177.5255
# 28 vertices

vn 0.0000 -1.0000 -0.0000
vn -0.0000 1.0000 0.0000
vn -0.9976 -0.0000 0.0698
vn 0.0750 0.0000 0.9972
vn 0.0643 -0.0000 0.9979
vn 0.0537 -0.0000 0.9986
vn 0.9976 0.0000 -0.0698
vn -0.0537 0.0000 -0.9986
vn -0.0750 -0.0000 -0.9972
vn -0.0396 -0.6753 -0.7364
vn 0.0396 0.6753 0.7364
vn 0.9975 0.0000 -0.0703
vn -0.9975 -0.0000 0.0703
vn -0.9983 -0.0000 0.0589
vn 0.9983 0.0000 -0.0589
vn -0.0570 0.6501 -0.7577
vn 0.0570 -0.6501 0.7577
# 17 vertex normals

vt 1.0000 0.0000 0.0000
vt 1.0000 0.5000 0.0000
vt 0.0000 0.5000 0.0000
vt 0.0000 0.0000 0.0000
vt 1.0000 1.0000 0.0000
vt 0.0000 1.0000 0.0000
vt 0.5000 0.0000 0.0000
vt 0.5000 1.0000 0.0000
# 8 texture coords

g Box1014
s 2
f 69/13/38 70/14/38 71/15/38 72/16/38 
f 70/14/38 73/17/38 74/18/38 71/15/38 
s 4
f 75/16/39 76/13/39 77/14/39 78/15/39 
f 78/15/39 77/14/39 79/17/39 80/18/39 
s 8
f 69/16/40 72/13/40 76/17/40 75/18/40 
s 16
f 72/16/41 71/19/42 77/20/42 76/18/41 
f 71/19/42 74/13/43 79/17/43 77/20/42 
s 32
f 74/16/44 73/13/44 80/17/44 79/18/44 
s 64
f 81/16/45 82/19/45 83/20/45 84/18/45 
f 70/19/46 69/13/46 75/17/46 78/20/46 
s off
f 73/16/47 70/19/47 85/19/47 86/16/47 
f 78/20/48 80/18/48 87/18/48 88/20/48 
f 80/18/49 73/16/49 86/16/49 87/18/49 
f 70/19/50 78/20/50 88/20/50 85/19/50 
f 86/16/38 85/19/38 82/19/38 81/16/38 
f 89/19/51 90/20/51 91/20/51 92/19/51 
f 88/20/39 87/18/39 84/18/39 83/20/39 
f 87/18/52 86/16/52 81/16/52 84/18/52 
f 83/20/46 82/19/46 92/19/46 91/20/46 
f 93/19/41 94/20/41 95/20/41 96/19/41 
f 82/19/38 85/19/38 89/19/38 92/19/38 
f 88/20/39 83/20/39 91/20/39 90/20/39 
f 85/19/49 88/20/49 94/20/49 93/19/49 
f 90/20/50 89/19/50 96/19/50 95/20/50 
f 88/20/53 90/20/53 95/20/53 94/20/53 
f 89/19/54 85/19/54 93/19/54 96/19/54 
# 26 polygons

#
# object Box1032
#

v  1551.8811 -18.9106 684.1345
v  1551.8811 -18.9106 648.7014
v  1587.3142 -18.9106 648.7014
v  1587.3142 -18.9106 684.1345
v  1551.8811 181.2013 684.1345
v  1587.3142 181.2013 684.1345
v  1587.3142 181.2013 648.7014
v  1551.8811 181.2013 648.7014
# 8 vertices

vn 0.0000 -1.0000 -0.0000
vn 0.0000 1.0000 -0.0000
vn 0.0000 0.0000 1.0000
vn 1.0000 0.0000 -0.0000
vn 0.0000 0.0000 -1.0000
vn -1.0000 0.0000 -0.0000
# 6 vertex normals

vt 1.0000 0.0000 0.0000
vt 1.0000 1.0000 0.0000
vt 0.0000 1.0000 0.0000
vt 0.0000 0.0000 0.0000
# 4 texture coords

g Box1032
s 2
f 97/21/55 98/22/55 99/23/55 100/24/55 
s 4
f 101/24/56 102/21/56 103/22/56 104/23/56 
s 8
f 97/24/57 100/21/57 102/22/57 101/23/57 
s 16
f 100/24/58 99/21/58 103/22/58 102/23/58 
s 32
f 99/24/59 98/21/59 104/22/59 103/23/59 
s 64
f 98/24/60 97/21/60 101/22/60 104/23/60 
# 6 polygons

#
# object Box1033
#

v  1189.7092 -18.9106 702.5876
v  1189.7092 -18.9106 667.1545
v  1225.1423 -18.9106 667.1545
v  1225.1423 -18.9106 702.5876
v  1189.7092 181.2013 702.5876
v  1225.1423 181.2013 702.5876
v  1225.1423 181.2013 667.1545
v  1189.7092 181.2013 667.1545
# 8 vertices

vn 0.0000 -1.0000 -0.0000
vn 0.0000 1.0000 -0.0000
vn 0.0000 0.0000 1.0000
vn 1.0000 0.0000 -0.0000
vn 0.0000 0.0000 -1.0000
vn -1.0000 0.0000 -0.0000
# 6 vertex normals

vt 1.0000 0.0000 0.0000
vt 1.0000 1.0000 0.0000
vt 0.0000 1.0000 0.0000
vt 0.0000 0.0000 0.0000
# 4 texture coords

g Box1033
s 2
f 105/25/61 106/26/61 107/27/61 108/28/61 
s 4
f 109/28/62 110/25/62 111/26/62 112/27/62 
s 8
f 105/28/63 108/25/63 110/26/63 109/27/63 
s 16
f 108/28/64 107/25/64 111/26/64 110/27/64 
s 32
f 107/28/65 106/25/65 112/26/65 111/27/65 
s 64
f 106/28/66 105/25/66 109/26/66 112/27/66 
# 6 polygons

#
# object Box1034
#

v  2248.2131 -18.9106 632.5916
v  2248.2131 -18.9106 597.1584
v  2283.6462 -18.9106 597.1584
v  2283.6462 -18.9106 632.5916
v  2248.2131 181.2013 632.5916
v  2283.6462 181.2013 632.5916
v  2283.6462 181.2013 597.1584
v  2248.2131 181.2013 597.1584
# 8 vertices

vn 0.0000 -1.0000 -0.0000
vn 0.0000 1.0000 -0.0000
vn 0.0000 0.0000 1.0000
vn 1.0000 0.0000 -0.0000
vn 0.0000 0.0000 -1.0000
vn -1.0000 0.0000 -0.0000
# 6 vertex normals

vt 1.0000 0.0000 0.0000
vt 1.0000 1.0000 0.0000
vt 0.0000 1.0000 0.0000
vt 0.0000 0.0000 0.0000
# 4 texture coords

g Box1034
s 2
f 113/29/67 114/30/67 115/31/67 116/32/67 
s 4
f 117/32/68 118/29/68 119/30/68 120/31/68 
s 8
f 113/32/69 116/29/69 118/30/69 117/31/69 
s 16
f 116/32/70 115/29/70 119/30/70 118/31/70 
s 32
f 115/32/71 114/29/71 120/30/71 119/31/71 
s 64
f 114/32/72 113/29/72 117/30/72 120/31/72 
# 6 polygons

#
# object Box1035
#

v  1896.4868 -18.9106 664.1462
v  1896.4868 -18.9106 628.7131
v  1931.9199 -18.9106 628.7131
v  1931.9199 -18.9106 664.1462
v  1896.4868 181.2013 664.1462
v  1931.9199 181.2013 664.1462
v  1931.9199 181.2013 628.7131
v  1896.4868 181.2013 628.7131
# 8 vertices

vn 0.0000 -1.0000 -0.0000
vn 0.0000 1.0000 -0.0000
vn 0.0000 0.0000 1.0000
vn 1.0000 0.0000 -0.0000
vn 0.0000 0.0000 -1.0000
vn -1.0000 0.0000 -0.0000
# 6 vertex normals

vt 1.0000 0.0000 0.0000
vt 1.0000 1.0000 0.0000
vt 0.0000 1.0000 0.0000
vt 0.0000 0.0000 0.0000
# 4 texture coords

g Box1035
s 2
f 121/33/73 122/34/73 123/35/73 124/36/73 
s 4
f 125/36/74 126/33/74 127/34/74 128/35/74 
s 8
f 121/36/75 124/33/75 126/34/75 125/35/75 
s 16
f 124/36/76 123/33/76 127/34/76 126/35/76 
s 32
f 123/36/77 122/33/77 128/34/77 127/35/77 
s 64
f 122/36/78 121/33/78 125/34/78 128/35/78 
# 6 polygons

#
# object Box1036
#

v  1562.4514 -18.9106 1021.7910
v  1562.4514 -18.9106 986.3579
v  1597.8845 -18.9106 986.3579
v  1597.8845 -18.9106 1021.7910
v  1562.4514 181.2013 1021.7910
v  1597.8845 181.2013 1021.7910
v  1597.8845 181.2013 986.3579
v  1562.4514 181.2013 986.3579
# 8 vertices

vn 0.0000 -1.0000 -0.0000
vn 0.0000 1.0000 -0.0000
vn 0.0000 0.0000 1.0000
vn 1.0000 0.0000 -0.0000
vn 0.0000 0.0000 -1.0000
vn -1.0000 0.0000 -0.0000
# 6 vertex normals

vt 1.0000 0.0000 0.0000
vt 1.0000 1.0000 0.0000
vt 0.0000 1.0000 0.0000
vt 0.0000 0.0000 0.0000
# 4 texture coords

g Box1036
s 2
f 129/37/79 130/38/79 131/39/79 132/40/79 
s 4
f 133/40/80 134/37/80 135/38/80 136/39/80 
s 8
f 129/40/81 132/37/81 134/38/81 133/39/81 
s 16
f 132/40/82 131/37/82 135/38/82 134/39/82 
s 32
f 131/40/83 130/37/83 136/38/83 135/39/83 
s 64
f 130/40/84 129/37/84 133/38/84 136/39/84 
# 6 polygons

#
# object Box1037
#

v  1200.2795 -18.9106 1040.2441
v  1200.2795 -18.9106 1004.8110
v  1235.7126 -18.9106 1004.8110
v  1235.7126 -18.9106 1040.2441
v  1200.2795 181.2013 1040.2441
v  1235.7126 181.2013 1040.2441
v  1235.7126 181.2013 1004.8110
v  1200.2795 181.2013 1004.8110
# 8 vertices

vn 0.0000 -1.0000 -0.0000
vn 0.0000 1.0000 -0.0000
vn 0.0000 0.0000 1.0000
vn 1.0000 0.0000 -0.0000
vn 0.0000 0.0000 -1.0000
vn -1.0000 0.0000 -0.0000
# 6 vertex normals

vt 1.0000 0.0000 0.0000
vt 1.0000 1.0000 0.0000
vt 0.0000 1.0000 0.0000
vt 0.0000 0.0000 0.0000
# 4 texture coords

g Box1037
s 2
f 137/41/85 138/42/85 139/43/85 140/44/85 
s 4
f 141/44/86 142/41/86 143/42/86 144/43/86 
s 8
f 137/44/87 140/41/87 142/42/87 141/43/87 
s 16
f 140/44/88 139/41/88 143/42/88 142/43/88 
s 32
f 139/44/89 138/41/89 144/42/89 143/43/89 
s 64
f 138/44/90 137/41/90 141/42/90 144/43/90 
# 6 polygons

#
# object Box1038
#

v  2258.7913 -18.9106 970.2500
v  2258.7913 -18.9106 934.8169
v  2294.2244 -18.9106 934.8169
v  2294.2244 -18.9106 970.2500
v  2258.7913 181.2013 970.2500
v  2294.2244 181.2013 970.2500
v  2294.2244 181.2013 934.8169
v  2258.7913 181.2013 934.8169
# 8 vertices

vn 0.0000 -1.0000 -0.0000
vn 0.0000 1.0000 -0.0000
vn 0.0000 0.0000 1.0000
vn 1.0000 0.0000 -0.0000
vn 0.0000 0.0000 -1.0000
vn -1.0000 0.0000 -0.0000
# 6 vertex normals

vt 1.0000 0.0000 0.0000
vt 1.0000 1.0000 0.0000
vt 0.0000 1.0000 0.0000
vt 0.0000 0.0000 0.0000
# 4 texture coords

g Box1038
s 2
f 145/45/91 146/46/91 147/47/91 148/48/91 
s 4
f 149/48/92 150/45/92 151/46/92 152/47/92 
s 8
f 145/48/93 148/45/93 150/46/93 149/47/93 
s 16
f 148/48/94 147/45/94 151/46/94 150/47/94 
s 32
f 147/48/95 146/45/95 152/46/95 151/47/95 
s 64
f 146/48/96 145/45/96 149/46/96 152/47/96 
# 6 polygons

#
# object Box1039
#

v  1907.0571 -18.9106 1001.8027
v  1907.0571 -18.9106 966.3696
v  1942.4902 -18.9106 966.3696
v  1942.4902 -18.9106 1001.8027
v  1907.0571 181.2013 1001.8027
v  1942.4902 181.2013 1001.8027
v  1942.4902 181.2013 966.3696
v  1907.0571 181.2013 966.3696
# 8 vertices

vn 0.0000 -1.0000 -0.0000
vn 0.0000 1.0000 -0.0000
vn 0.0000 0.0000 1.0000
vn 1.0000 0.0000 -0.0000
vn 0.0000 0.0000 -1.0000
vn -1.0000 0.0000 -0.0000
# 6 vertex normals

vt 1.0000 0.0000 0.0000
vt 1.0000 1.0000 0.0000
vt 0.0000 1.0000 0.0000
vt 0.0000 0.0000 0.0000
# 4 texture coords

g Box1039
s 2
f 153/49/97 154/50/97 155/51/97 156/52/97 
s 4
f 157/52/98 158/49/98 159/50/98 160/51/98 
s 8
f 153/52/99 156/49/99 158/50/99 157/51/99 
s 16
f 156/52/100 155/49/100 159/50/100 158/51/100 
s 32
f 155/52/101 154/49/101 160/50/101 159/51/101 
s 64
f 154/52/102 153/49/102 157/50/102 160/51/102 
# 6 polygons

#
# object Box1040
#

v  1214.3694 -18.9106 1388.7126
v  1214.3694 -18.9106 1353.2795
v  1249.8025 -18.9106 1353.2795
v  1249.8025 -18.9106 1388.7126
v  1214.3694 181.2013 1388.7126
v  1249.8025 181.2013 1388.7126
v  1249.8025 181.2013 1353.2795
v  1214.3694 181.2013 1353.2795
# 8 vertices

vn 0.0000 -1.0000 -0.0000
vn 0.0000 1.0000 -0.0000
vn 0.0000 0.0000 1.0000
vn 1.0000 0.0000 -0.0000
vn 0.0000 0.0000 -1.0000
vn -1.0000 0.0000 -0.0000
# 6 vertex normals

vt 1.0000 0.0000 0.0000
vt 1.0000 1.0000 0.0000
vt 0.0000 1.0000 0.0000
vt 0.0000 0.0000 0.0000
# 4 texture coords

g Box1040
s 2
f 161/53/103 162/54/103 163/55/103 164/56/103 
s 4
f 165/56/104 166/53/104 167/54/104 168/55/104 
s 8
f 161/56/105 164/53/105 166/54/105 165/55/105 
s 16
f 164/56/106 163/53/106 167/54/106 166/55/106 
s 32
f 163/56/107 162/53/107 168/54/107 167/55/107 
s 64
f 162/56/108 161/53/108 165/54/108 168/55/108 
# 6 polygons

#
# object Box1041
#

v  2272.8772 -18.9106 1318.7205
v  2272.8772 -18.9106 1283.2874
v  2308.3103 -18.9106 1283.2874
v  2308.3103 -18.9106 1318.7205
v  2272.8772 181.2013 1318.7205
v  2308.3103 181.2013 1318.7205
v  2308.3103 181.2013 1283.2874
v  2272.8772 181.2013 1283.2874
# 8 vertices

vn 0.0000 -1.0000 -0.0000
vn 0.0000 1.0000 -0.0000
vn 0.0000 0.0000 1.0000
vn 1.0000 0.0000 -0.0000
vn 0.0000 0.0000 -1.0000
vn -1.0000 0.0000 -0.0000
# 6 vertex normals

vt 1.0000 0.0000 0.0000
vt 1.0000 1.0000 0.0000
vt 0.0000 1.0000 0.0000
vt 0.0000 0.0000 0.0000
# 4 texture coords

g Box1041
s 2
f 169/57/109 170/58/109 171/59/109 172/60/109 
s 4
f 173/60/110 174/57/110 175/58/110 176/59/110 
s 8
f 169/60/111 172/57/111 174/58/111 173/59/111 
s 16
f 172/60/112 171/57/112 175/58/112 174/59/112 
s 32
f 171/60/113 170/57/113 176/58/113 175/59/113 
s 64
f 170/60/114 169/57/114 173/58/114 176/59/114 
# 6 polygons

#
# object Box1042
#

v  1921.1509 -18.9106 1350.2712
v  1921.1509 -18.9106 1314.8381
v  1956.5840 -18.9106 1314.8381
v  1956.5840 -18.9106 1350.2712
v  1921.1509 181.2013 1350.2712
v  1956.5840 181.2013 1350.2712
v  1956.5840 181.2013 1314.8381
v  1921.1509 181.2013 1314.8381
# 8 vertices

vn 0.0000 -1.0000 -0.0000
vn 0.0000 1.0000 -0.0000
vn 0.0000 0.0000 1.0000
vn 1.0000 0.0000 -0.0000
vn 0.0000 0.0000 -1.0000
vn -1.0000 0.0000 -0.0000
# 6 vertex normals

vt 1.0000 0.0000 0.0000
vt 1.0000 1.0000 0.0000
vt 0.0000 1.0000 0.0000
vt 0.0000 0.0000 0.0000
# 4 texture coords

g Box1042
s 2
f 177/61/115 178/62/115 179/63/115 180/64/115 
s 4
f 181/64/116 182/61/116 183/62/116 184/63/116 
s 8
f 177/64/117 180/61/117 182/62/117 181/63/117 
s 16
f 180/64/118 179/61/118 183/62/118 182/63/118 
s 32
f 179/64/119 178/61/119 184/62/119 183/63/119 
s 64
f 178/64/120 177/61/120 181/62/120 184/63/120 
# 6 polygons

#
# object Box1043
#

v  1944.1353 -18.9106 1746.5681
v  1944.1353 -18.9106 1711.1350
v  1979.5684 -18.9106 1711.1350
v  1979.5684 -18.9106 1746.5681
v  1944.1353 181.2013 1746.5681
v  1979.5684 181.2013 1746.5681
v  1979.5684 181.2013 1711.1350
v  1944.1353 181.2013 1711.1350
# 8 vertices

vn 0.0000 -1.0000 -0.0000
vn 0.0000 1.0000 -0.0000
vn 0.0000 0.0000 1.0000
vn 1.0000 0.0000 -0.0000
vn 0.0000 0.0000 -1.0000
vn -1.0000 0.0000 -0.0000
# 6 vertex normals

vt 1.0000 0.0000 0.0000
vt 1.0000 1.0000 0.0000
vt 0.0000 1.0000 0.0000
vt 0.0000 0.0000 0.0000
# 4 texture coords

g Box1043
s 2
f 185/65/121 186/66/121 187/67/121 188/68/121 
s 4
f 189/68/122 190/65/122 191/66/122 192/67/122 
s 8
f 185/68/123 188/65/123 190/66/123 189/67/123 
s 16
f 188/68/124 187/65/124 191/66/124 190/67/124 
s 32
f 187/68/125 186/65/125 192/66/125 191/67/125 
s 64
f 186/68/126 185/65/126 189/66/126 192/67/126 
# 6 polygons

#
# object Box1044
#

v  2297.7756 -18.9106 1725.5603
v  2297.7756 -18.9106 1690.1272
v  2333.2087 -18.9106 1690.1272
v  2333.2087 -18.9106 1725.5603
v  2297.7756 181.2013 1725.5603
v  2333.2087 181.2013 1725.5603
v  2333.2087 181.2013 1690.1272
v  2297.7756 181.2013 1690.1272
# 8 vertices

vn 0.0000 -1.0000 -0.0000
vn 0.0000 1.0000 -0.0000
vn 0.0000 0.0000 1.0000
vn 1.0000 0.0000 -0.0000
vn 0.0000 0.0000 -1.0000
vn -1.0000 0.0000 -0.0000
# 6 vertex normals

vt 1.0000 0.0000 0.0000
vt 1.0000 1.0000 0.0000
vt 0.0000 1.0000 0.0000
vt 0.0000 0.0000 0.0000
# 4 texture coords

g Box1044
s 2
f 193/69/127 194/70/127 195/71/127 196/72/127 
s 4
f 197/72/128 198/69/128 199/70/128 200/71/128 
s 8
f 193/72/129 196/69/129 198/70/129 197/71/129 
s 16
f 196/72/130 195/69/130 199/70/130 198/71/130 
s 32
f 195/72/131 194/69/131 200/70/131 199/71/131 
s 64
f 194/72/132 193/69/132 197/70/132 200/71/132 
# 6 polygons

#
# object Box1045
#

v  1594.1077 -18.9106 1766.5720
v  1594.1077 -18.9106 1731.1389
v  1629.5408 -18.9106 1731.1389
v  1629.5408 -18.9106 1766.5720
v  1594.1077 181.2013 1766.5720
v  1629.5408 181.2013 1766.5720
v  1629.5408 181.2013 1731.1389
v  1594.1077 181.2013 1731.1389
# 8 vertices

vn 0.0000 -1.0000 -0.0000
vn 0.0000 1.0000 -0.0000
vn 0.0000 0.0000 1.0000
vn 1.0000 0.0000 -0.0000
vn 0.0000 0.0000 -1.0000
vn -1.0000 0.0000 -0.0000
# 6 vertex normals

vt 1.0000 0.0000 0.0000
vt 1.0000 1.0000 0.0000
vt 0.0000 1.0000 0.0000
vt 0.0000 0.0000 0.0000
# 4 texture coords

g Box1045
s 2
f 201/73/133 202/74/133 203/75/133 204/76/133 
s 4
f 205/76/134 206/73/134 207/74/134 208/75/134 
s 8
f 201/76/135 204/73/135 206/74/135 205/75/135 
s 16
f 204/76/136 203/73/136 207/74/136 206/75/136 
s 32
f 203/76/137 202/73/137 208/74/137 207/75/137 
s 64
f 202/76/138 201/73/138 205/74/138 208/75/138 
# 6 polygons

#
# object Box1046
#

v  1231.9905 -18.9106 1776.1892
v  1231.9905 -18.9106 1740.7561
v  1267.4236 -18.9106 1740.7561
v  1267.4236 -18.9106 1776.1892
v  1231.9905 181.2013 1776.1892
v  1267.4236 181.2013 1776.1892
v  1267.4236 181.2013 1740.7561
v  1231.9905 181.2013 1740.7561
# 8 vertices

vn 0.0000 -1.0000 -0.0000
vn 0.0000 1.0000 -0.0000
vn 0.0000 0.0000 1.0000
vn 1.0000 0.0000 -0.0000
vn 0.0000 0.0000 -1.0000
vn -1.0000 0.0000 -0.0000
# 6 vertex normals

vt 1.0000 0.0000 0.0000
vt 1.0000 1.0000 0.0000
vt 0.0000 1.0000 0.0000
vt 0.0000 0.0000 0.0000
# 4 texture coords

g Box1046
s 2
f 209/77/139 210/78/139 211/79/139 212/80/139 
s 4
f 213/80/140 214/77/140 215/78/140 216/79/140 
s 8
f 209/80/141 212/77/141 214/78/141 213/79/141 
s 16
f 212/80/142 211/77/142 215/78/142 214/79/142 
s 32
f 211/80/143 210/77/143 216/78/143 215/79/143 
s 64
f 210/80/144 209/77/144 213/78/144 216/79/144 
# 6 polygons

