# 3ds Max Wavefront OBJ Exporter v0.97b - (c)2007 guruware
# File Created: 28.10.2017 11:34:06

#
# object Line05
#

v  1102.7388 -18.9108 -330.1781
v  2269.7715 -18.9108 -398.3174
v  2269.7715 9.4074 -398.3174
v  1102.7388 9.4074 -330.1781
v  2198.7930 -18.9108 -1565.4159
v  2198.7930 9.4074 -1565.4159
v  1031.6128 -18.9108 -1493.6742
v  1031.6128 9.4074 -1493.6742
v  1585.0149 -18.9108 -729.5574
v  1460.0215 -18.9108 -722.1632
v  1460.0215 9.4074 -722.1632
v  1585.0149 9.4074 -729.5574
v  1441.0570 -18.9108 -1001.8762
v  1441.0570 9.4074 -1001.8762
v  1566.0504 -18.9108 -1009.2704
v  1566.0504 9.4074 -1009.2704
v  1225.6187 -18.9108 -707.8206
v  1100.6252 -18.9108 -700.4264
v  1100.6252 9.4074 -700.4264
v  1225.6187 9.4074 -707.8206
v  1081.6608 -18.9108 -980.1394
v  1081.6608 9.4074 -980.1394
v  1206.6542 -18.9108 -987.5336
v  1206.6542 9.4074 -987.5336
v  1806.5679 -18.9108 -731.4588
v  1691.1152 -18.9108 -724.3069
v  1691.1152 9.4074 -724.3069
v  1806.5679 9.4074 -731.4588
v  1671.4340 -18.9108 -1042.9991
v  1671.4340 9.4074 -1042.9991
v  1787.8134 -18.9108 -1051.1624
v  1787.8134 9.4074 -1051.1624
# 32 vertices

vn 0.0583 0.0000 0.9983
vn 0.9982 0.0000 -0.0607
vn -0.0614 0.0000 -0.9981
vn -0.9981 0.0000 0.0610
vn -0.0591 0.0000 -0.9983
vn 0.9977 0.0000 -0.0676
vn 0.0591 0.0000 0.9983
vn -0.9977 0.0000 0.0676
vn -0.0618 0.0000 -0.9981
vn 0.9981 0.0000 -0.0616
vn 0.0700 0.0000 0.9975
vn -0.9983 0.0000 0.0586
vn 0.0000 -1.0000 -0.0000
vn 0.0000 1.0000 -0.0000
# 14 vertex normals

g Line05
s 1
f 1//1 2//1 3//1 4//1 
s 4
f 2//2 5//2 6//2 3//2 
s 2
f 5//3 7//3 8//3 6//3 
s 4
f 7//4 1//4 4//4 8//4 
s 1
f 9//5 10//5 11//5 12//5 
s 4
f 10//6 13//6 14//6 11//6 
s 2
f 13//7 15//7 16//7 14//7 
s 4
f 15//8 9//8 12//8 16//8 
s 1
f 17//5 18//5 19//5 20//5 
s 4
f 18//6 21//6 22//6 19//6 
s 2
f 21//7 23//7 24//7 22//7 
s 4
f 23//8 17//8 20//8 24//8 
s 1
f 25//9 26//9 27//9 28//9 
s 4
f 26//10 29//10 30//10 27//10 
s 2
f 29//11 31//11 32//11 30//11 
s 4
f 31//12 25//12 28//12 32//12 
s 16
f 29//13 13//13 23//13 21//13 
f 1//13 17//13 10//13 9//13 
f 9//13 26//13 2//13 1//13 
f 1//13 7//13 18//13 17//13 
f 7//13 5//13 21//13 18//13 
f 5//13 31//13 29//13 21//13 
f 2//13 25//13 31//13 5//13 
f 17//13 23//13 13//13 10//13 
f 29//13 26//13 15//13 13//13 
f 26//13 9//13 15//13 
f 26//13 25//13 2//13 
f 30//14 6//14 22//14 24//14 
f 4//14 3//14 12//14 11//14 
f 4//14 11//14 14//14 20//14 
f 4//14 20//14 19//14 8//14 
f 8//14 19//14 22//14 6//14 
f 6//14 30//14 32//14 3//14 
f 3//14 32//14 28//14 27//14 
f 24//14 20//14 14//14 30//14 
f 30//14 14//14 16//14 27//14 
f 27//14 16//14 12//14 3//14 
# 35 polygons - 2 triangles

#
# object Box1015
#

v  1087.1522 -18.9107 -889.1510
v  1142.6412 -18.9109 -892.2531
v  1137.1138 -18.9109 -982.6266
v  1081.6248 -18.9107 -979.5246
v  1211.7788 -18.9112 -897.6006
v  1206.2513 -18.9112 -987.9742
v  1087.1523 3.1374 -889.1510
v  1081.6249 3.1374 -979.5246
v  1137.1139 3.1372 -982.6266
v  1142.6414 3.1372 -892.2531
v  1206.2515 3.1370 -987.9742
v  1211.7789 3.1370 -897.6006
v  1224.0507 80.7624 -706.6611
v  1154.9131 80.7626 -701.3136
v  1154.9132 102.8108 -701.3136
v  1224.0508 102.8106 -706.6611
v  1150.5348 80.7626 -762.0894
v  1219.6724 80.7624 -767.4370
v  1219.6724 102.8106 -767.4370
v  1150.5348 102.8108 -762.0894
v  1094.8875 80.7628 -758.9777
v  1094.8875 102.8110 -758.9777
v  1099.2659 102.8110 -698.2018
v  1099.2657 80.7628 -698.2018
v  1142.6383 187.5138 -892.3140
v  1142.6383 209.5619 -892.3140
v  1086.9910 209.5621 -889.2022
v  1086.9910 187.5140 -889.2022
# 28 vertices

vn -0.0000 -1.0000 0.0000
vn 0.0000 1.0000 -0.0000
vn -0.9981 0.0000 0.0610
vn -0.0558 -0.0000 -0.9984
vn -0.0665 0.0000 -0.9978
vn -0.0771 0.0000 -0.9970
vn 0.9981 -0.0000 -0.0610
vn 0.0771 -0.0000 0.9970
vn 0.0558 0.0000 0.9984
vn 0.0569 -0.6753 0.7353
vn -0.0569 0.6753 -0.7353
vn 0.9982 -0.0000 -0.0605
vn -0.9982 0.0000 0.0605
vn -0.9974 0.0000 0.0719
vn 0.9974 -0.0000 -0.0719
vn 0.0424 0.6501 0.7587
vn -0.0424 -0.6501 -0.7587
# 17 vertex normals

vt 1.0000 0.0000 0.0000
vt 1.0000 0.5000 0.0000
vt 0.0000 0.5000 0.0000
vt 0.0000 0.0000 0.0000
vt 1.0000 1.0000 0.0000
vt 0.0000 1.0000 0.0000
vt 0.5000 0.0000 0.0000
vt 0.5000 1.0000 0.0000
# 8 texture coords

g Box1015
s 2
f 36/4/15 35/3/15 34/2/15 33/1/15 
f 35/3/15 38/6/15 37/5/15 34/2/15 
s 4
f 42/3/16 41/2/16 40/1/16 39/4/16 
f 44/6/16 43/5/16 41/2/16 42/3/16 
s 8
f 39/6/17 40/5/17 36/1/17 33/4/17 
s 16
f 40/6/18 41/8/19 35/7/19 36/4/18 
f 41/8/19 43/5/20 38/1/20 35/7/19 
s 32
f 43/6/21 44/5/21 37/1/21 38/4/21 
s 64
f 48/6/22 47/8/22 46/7/22 45/4/22 
f 42/8/23 39/5/23 33/1/23 34/7/23 
s off
f 50/4/24 49/7/24 34/7/24 37/4/24 
f 52/8/25 51/6/25 44/6/25 42/8/25 
f 51/6/26 50/4/26 37/4/26 44/6/26 
f 49/7/27 52/8/27 42/8/27 34/7/27 
f 45/4/15 46/7/15 49/7/15 50/4/15 
f 56/7/28 55/8/28 54/8/28 53/7/28 
f 47/8/16 48/6/16 51/6/16 52/8/16 
f 48/6/29 45/4/29 50/4/29 51/6/29 
f 55/8/23 56/7/23 46/7/23 47/8/23 
f 60/7/18 59/8/18 58/8/18 57/7/18 
f 56/7/15 53/7/15 49/7/15 46/7/15 
f 54/8/16 55/8/16 47/8/16 52/8/16 
f 57/7/26 58/8/26 52/8/26 49/7/26 
f 59/8/27 60/7/27 53/7/27 54/8/27 
f 58/8/30 59/8/30 54/8/30 52/8/30 
f 60/7/31 57/7/31 49/7/31 53/7/31 
# 26 polygons

#
# object Box1016
#

v  1444.5292 -18.9107 -911.0963
v  1500.0182 -18.9109 -914.1984
v  1494.4907 -18.9109 -1004.5720
v  1439.0017 -18.9107 -1001.4699
v  1569.1558 -18.9112 -919.5459
v  1563.6283 -18.9112 -1009.9195
v  1444.5293 3.1374 -911.0963
v  1439.0018 3.1374 -1001.4699
v  1494.4908 3.1372 -1004.5720
v  1500.0183 3.1372 -914.1984
v  1563.6284 3.1370 -1009.9195
v  1569.1559 3.1370 -919.5459
v  1581.4276 80.7624 -728.6064
v  1512.2900 80.7626 -723.2589
v  1512.2902 102.8108 -723.2589
v  1581.4277 102.8106 -728.6064
v  1507.9117 80.7626 -784.0347
v  1577.0493 80.7624 -789.3823
v  1577.0493 102.8106 -789.3823
v  1507.9117 102.8108 -784.0347
v  1452.2644 80.7628 -780.9230
v  1452.2644 102.8110 -780.9230
v  1456.6428 102.8110 -720.1472
v  1456.6427 80.7628 -720.1472
v  1500.0153 187.5138 -914.2593
v  1500.0153 209.5619 -914.2593
v  1444.3679 209.5621 -911.1475
v  1444.3679 187.5140 -911.1475
# 28 vertices

vn -0.0000 -1.0000 0.0000
vn 0.0000 1.0000 -0.0000
vn -0.9981 0.0000 0.0610
vn -0.0558 -0.0000 -0.9984
vn -0.0665 0.0000 -0.9978
vn -0.0771 0.0000 -0.9970
vn 0.9981 -0.0000 -0.0610
vn 0.0771 -0.0000 0.9970
vn 0.0558 0.0000 0.9984
vn 0.0569 -0.6753 0.7353
vn -0.0569 0.6753 -0.7353
vn 0.9982 -0.0000 -0.0605
vn -0.9982 0.0000 0.0605
vn -0.9974 0.0000 0.0719
vn 0.9974 -0.0000 -0.0719
vn 0.0424 0.6501 0.7587
vn -0.0424 -0.6501 -0.7587
# 17 vertex normals

vt 1.0000 0.0000 0.0000
vt 1.0000 0.5000 0.0000
vt 0.0000 0.5000 0.0000
vt 0.0000 0.0000 0.0000
vt 1.0000 1.0000 0.0000
vt 0.0000 1.0000 0.0000
vt 0.5000 0.0000 0.0000
vt 0.5000 1.0000 0.0000
# 8 texture coords

g Box1016
s 2
f 64/12/32 63/11/32 62/10/32 61/9/32 
f 63/11/32 66/14/32 65/13/32 62/10/32 
s 4
f 70/11/33 69/10/33 68/9/33 67/12/33 
f 72/14/33 71/13/33 69/10/33 70/11/33 
s 8
f 67/14/34 68/13/34 64/9/34 61/12/34 
s 16
f 68/14/35 69/16/36 63/15/36 64/12/35 
f 69/16/36 71/13/37 66/9/37 63/15/36 
s 32
f 71/14/38 72/13/38 65/9/38 66/12/38 
s 64
f 76/14/39 75/16/39 74/15/39 73/12/39 
f 70/16/40 67/13/40 61/9/40 62/15/40 
s off
f 78/12/41 77/15/41 62/15/41 65/12/41 
f 80/16/42 79/14/42 72/14/42 70/16/42 
f 79/14/43 78/12/43 65/12/43 72/14/43 
f 77/15/44 80/16/44 70/16/44 62/15/44 
f 73/12/32 74/15/32 77/15/32 78/12/32 
f 84/15/45 83/16/45 82/16/45 81/15/45 
f 75/16/33 76/14/33 79/14/33 80/16/33 
f 76/14/46 73/12/46 78/12/46 79/14/46 
f 83/16/40 84/15/40 74/15/40 75/16/40 
f 88/15/35 87/16/35 86/16/35 85/15/35 
f 84/15/32 81/15/32 77/15/32 74/15/32 
f 82/16/33 83/16/33 75/16/33 80/16/33 
f 85/15/43 86/16/43 80/16/43 77/15/43 
f 87/16/44 88/15/44 81/15/44 82/16/44 
f 86/16/47 87/16/47 82/16/47 80/16/47 
f 88/15/48 85/15/48 77/15/48 81/15/48 
# 26 polygons

#
# object Box1017
#

v  2102.1663 -18.9106 -1465.4592
v  2102.1663 -18.9106 -1500.8923
v  2137.5994 -18.9106 -1500.8923
v  2137.5994 -18.9106 -1465.4592
v  2102.1663 181.2013 -1465.4592
v  2137.5994 181.2013 -1465.4592
v  2137.5994 181.2013 -1500.8923
v  2102.1663 181.2013 -1500.8923
# 8 vertices

vn 0.0000 -1.0000 -0.0000
vn 0.0000 1.0000 -0.0000
vn 0.0000 0.0000 1.0000
vn 1.0000 0.0000 -0.0000
vn 0.0000 0.0000 -1.0000
vn -1.0000 0.0000 -0.0000
# 6 vertex normals

vt 1.0000 0.0000 0.0000
vt 1.0000 1.0000 0.0000
vt 0.0000 1.0000 0.0000
vt 0.0000 0.0000 0.0000
# 4 texture coords

g Box1017
s 2
f 89/17/49 90/18/49 91/19/49 92/20/49 
s 4
f 93/20/50 94/17/50 95/18/50 96/19/50 
s 8
f 89/20/51 92/17/51 94/18/51 93/19/51 
s 16
f 92/20/52 91/17/52 95/18/52 94/19/52 
s 32
f 91/20/53 90/17/53 96/18/53 95/19/53 
s 64
f 90/20/54 89/17/54 93/18/54 96/19/54 
# 6 polygons

#
# object Box1018
#

v  1749.8850 -18.9106 -1445.5061
v  1749.8850 -18.9106 -1480.9392
v  1785.3181 -18.9106 -1480.9392
v  1785.3181 -18.9106 -1445.5061
v  1749.8850 181.2013 -1445.5061
v  1785.3181 181.2013 -1445.5061
v  1785.3181 181.2013 -1480.9392
v  1749.8850 181.2013 -1480.9392
# 8 vertices

vn 0.0000 -1.0000 -0.0000
vn 0.0000 1.0000 -0.0000
vn 0.0000 0.0000 1.0000
vn 1.0000 0.0000 -0.0000
vn 0.0000 0.0000 -1.0000
vn -1.0000 0.0000 -0.0000
# 6 vertex normals

vt 1.0000 0.0000 0.0000
vt 1.0000 1.0000 0.0000
vt 0.0000 1.0000 0.0000
vt 0.0000 0.0000 0.0000
# 4 texture coords

g Box1018
s 2
f 97/21/55 98/22/55 99/23/55 100/24/55 
s 4
f 101/24/56 102/21/56 103/22/56 104/23/56 
s 8
f 97/24/57 100/21/57 102/22/57 101/23/57 
s 16
f 100/24/58 99/21/58 103/22/58 102/23/58 
s 32
f 99/24/59 98/21/59 104/22/59 103/23/59 
s 64
f 98/24/60 97/21/60 101/22/60 104/23/60 
# 6 polygons

#
# object Box1019
#

v  1405.2795 -18.9106 -1425.5178
v  1405.2795 -18.9106 -1460.9509
v  1440.7126 -18.9106 -1460.9509
v  1440.7126 -18.9106 -1425.5178
v  1405.2795 181.2013 -1425.5178
v  1440.7126 181.2013 -1425.5178
v  1440.7126 181.2013 -1460.9509
v  1405.2795 181.2013 -1460.9509
# 8 vertices

vn 0.0000 -1.0000 -0.0000
vn 0.0000 1.0000 -0.0000
vn 0.0000 0.0000 1.0000
vn 1.0000 0.0000 -0.0000
vn 0.0000 0.0000 -1.0000
vn -1.0000 0.0000 -0.0000
# 6 vertex normals

vt 1.0000 0.0000 0.0000
vt 1.0000 1.0000 0.0000
vt 0.0000 1.0000 0.0000
vt 0.0000 0.0000 0.0000
# 4 texture coords

g Box1019
s 2
f 105/25/61 106/26/61 107/27/61 108/28/61 
s 4
f 109/28/62 110/25/62 111/26/62 112/27/62 
s 8
f 105/28/63 108/25/63 110/26/63 109/27/63 
s 16
f 108/28/64 107/25/64 111/26/64 110/27/64 
s 32
f 107/28/65 106/25/65 112/26/65 111/27/65 
s 64
f 106/28/66 105/25/66 109/26/66 112/27/66 
# 6 polygons

#
# object Box1020
#

v  1043.1077 -18.9106 -1407.0647
v  1043.1077 -18.9106 -1442.4978
v  1078.5408 -18.9106 -1442.4978
v  1078.5408 -18.9106 -1407.0647
v  1043.1077 181.2013 -1407.0647
v  1078.5408 181.2013 -1407.0647
v  1078.5408 181.2013 -1442.4978
v  1043.1077 181.2013 -1442.4978
# 8 vertices

vn 0.0000 -1.0000 -0.0000
vn 0.0000 1.0000 -0.0000
vn 0.0000 0.0000 1.0000
vn 1.0000 0.0000 -0.0000
vn 0.0000 0.0000 -1.0000
vn -1.0000 0.0000 -0.0000
# 6 vertex normals

vt 1.0000 0.0000 0.0000
vt 1.0000 1.0000 0.0000
vt 0.0000 1.0000 0.0000
vt 0.0000 0.0000 0.0000
# 4 texture coords

g Box1020
s 2
f 113/29/67 114/30/67 115/31/67 116/32/67 
s 4
f 117/32/68 118/29/68 119/30/68 120/31/68 
s 8
f 113/32/69 116/29/69 118/30/69 117/31/69 
s 16
f 116/32/70 115/29/70 119/30/70 118/31/70 
s 32
f 115/32/71 114/29/71 120/30/71 119/31/71 
s 64
f 114/32/72 113/29/72 117/30/72 120/31/72 
# 6 polygons

#
# object Box1021
#

v  1425.2834 -18.9106 -1066.0081
v  1425.2834 -18.9106 -1101.4412
v  1460.7166 -18.9106 -1101.4412
v  1460.7166 -18.9106 -1066.0081
v  1425.2834 181.2013 -1066.0081
v  1460.7166 181.2013 -1066.0081
v  1460.7166 181.2013 -1101.4412
v  1425.2834 181.2013 -1101.4412
# 8 vertices

vn 0.0000 -1.0000 -0.0000
vn 0.0000 1.0000 -0.0000
vn 0.0000 0.0000 1.0000
vn 1.0000 0.0000 -0.0000
vn 0.0000 0.0000 -1.0000
vn -1.0000 0.0000 -0.0000
# 6 vertex normals

vt 1.0000 0.0000 0.0000
vt 1.0000 1.0000 0.0000
vt 0.0000 1.0000 0.0000
vt 0.0000 0.0000 0.0000
# 4 texture coords

g Box1021
s 2
f 121/33/73 122/34/73 123/35/73 124/36/73 
s 4
f 125/36/74 126/33/74 127/34/74 128/35/74 
s 8
f 121/36/75 124/33/75 126/34/75 125/35/75 
s 16
f 124/36/76 123/33/76 127/34/76 126/35/76 
s 32
f 123/36/77 122/33/77 128/34/77 127/35/77 
s 64
f 122/36/78 121/33/78 125/34/78 128/35/78 
# 6 polygons

#
# object Box1022
#

v  1063.1116 -18.9106 -1047.5549
v  1063.1116 -18.9106 -1082.9880
v  1098.5447 -18.9106 -1082.9880
v  1098.5447 -18.9106 -1047.5549
v  1063.1116 181.2013 -1047.5549
v  1098.5447 181.2013 -1047.5549
v  1098.5447 181.2013 -1082.9880
v  1063.1116 181.2013 -1082.9880
# 8 vertices

vn 0.0000 -1.0000 -0.0000
vn 0.0000 1.0000 -0.0000
vn 0.0000 0.0000 1.0000
vn 1.0000 0.0000 -0.0000
vn 0.0000 0.0000 -1.0000
vn -1.0000 0.0000 -0.0000
# 6 vertex normals

vt 1.0000 0.0000 0.0000
vt 1.0000 1.0000 0.0000
vt 0.0000 1.0000 0.0000
vt 0.0000 0.0000 0.0000
# 4 texture coords

g Box1022
s 2
f 129/37/79 130/38/79 131/39/79 132/40/79 
s 4
f 133/40/80 134/37/80 135/38/80 136/39/80 
s 8
f 129/40/81 132/37/81 134/38/81 133/39/81 
s 16
f 132/40/82 131/37/82 135/38/82 134/39/82 
s 32
f 131/40/83 130/37/83 136/38/83 135/39/83 
s 64
f 130/40/84 129/37/84 133/38/84 136/39/84 
# 6 polygons

#
# object Box1023
#

v  2122.1741 -18.9106 -1105.9495
v  2122.1741 -18.9106 -1141.3826
v  2157.6072 -18.9106 -1141.3826
v  2157.6072 -18.9106 -1105.9495
v  2122.1741 181.2013 -1105.9495
v  2157.6072 181.2013 -1105.9495
v  2157.6072 181.2013 -1141.3826
v  2122.1741 181.2013 -1141.3826
# 8 vertices

vn 0.0000 -1.0000 -0.0000
vn 0.0000 1.0000 -0.0000
vn 0.0000 0.0000 1.0000
vn 1.0000 0.0000 -0.0000
vn 0.0000 0.0000 -1.0000
vn -1.0000 0.0000 -0.0000
# 6 vertex normals

vt 1.0000 0.0000 0.0000
vt 1.0000 1.0000 0.0000
vt 0.0000 1.0000 0.0000
vt 0.0000 0.0000 0.0000
# 4 texture coords

g Box1023
s 2
f 137/41/85 138/42/85 139/43/85 140/44/85 
s 4
f 141/44/86 142/41/86 143/42/86 144/43/86 
s 8
f 137/44/87 140/41/87 142/42/87 141/43/87 
s 16
f 140/44/88 139/41/88 143/42/88 142/43/88 
s 32
f 139/44/89 138/41/89 144/42/89 143/43/89 
s 64
f 138/44/90 137/41/90 141/42/90 144/43/90 
# 6 polygons

#
# object Box1024
#

v  1769.8850 -18.9106 -1085.9963
v  1769.8850 -18.9106 -1121.4294
v  1805.3181 -18.9106 -1121.4294
v  1805.3181 -18.9106 -1085.9963
v  1769.8850 181.2013 -1085.9963
v  1805.3181 181.2013 -1085.9963
v  1805.3181 181.2013 -1121.4294
v  1769.8850 181.2013 -1121.4294
# 8 vertices

vn 0.0000 -1.0000 -0.0000
vn 0.0000 1.0000 -0.0000
vn 0.0000 0.0000 1.0000
vn 1.0000 0.0000 -0.0000
vn 0.0000 0.0000 -1.0000
vn -1.0000 0.0000 -0.0000
# 6 vertex normals

vt 1.0000 0.0000 0.0000
vt 1.0000 1.0000 0.0000
vt 0.0000 1.0000 0.0000
vt 0.0000 0.0000 0.0000
# 4 texture coords

g Box1024
s 2
f 145/45/91 146/46/91 147/47/91 148/48/91 
s 4
f 149/48/92 150/45/92 151/46/92 152/47/92 
s 8
f 145/48/93 148/45/93 150/46/93 149/47/93 
s 16
f 148/48/94 147/45/94 151/46/94 150/47/94 
s 32
f 147/48/95 146/45/95 152/46/95 151/47/95 
s 64
f 146/48/96 145/45/96 149/46/96 152/47/96 
# 6 polygons

#
# object Box1025
#

v  1445.6311 -18.9106 -698.9474
v  1445.6311 -18.9106 -734.3806
v  1481.0642 -18.9106 -734.3806
v  1481.0642 -18.9106 -698.9474
v  1445.6311 181.2013 -698.9474
v  1481.0642 181.2013 -698.9474
v  1481.0642 181.2013 -734.3806
v  1445.6311 181.2013 -734.3806
# 8 vertices

vn 0.0000 -1.0000 -0.0000
vn 0.0000 1.0000 -0.0000
vn 0.0000 0.0000 1.0000
vn 1.0000 0.0000 -0.0000
vn 0.0000 0.0000 -1.0000
vn -1.0000 0.0000 -0.0000
# 6 vertex normals

vt 1.0000 0.0000 0.0000
vt 1.0000 1.0000 0.0000
vt 0.0000 1.0000 0.0000
vt 0.0000 0.0000 0.0000
# 4 texture coords

g Box1025
s 2
f 153/49/97 154/50/97 155/51/97 156/52/97 
s 4
f 157/52/98 158/49/98 159/50/98 160/51/98 
s 8
f 153/52/99 156/49/99 158/50/99 157/51/99 
s 16
f 156/52/100 155/49/100 159/50/100 158/51/100 
s 32
f 155/52/101 154/49/101 160/50/101 159/51/101 
s 64
f 154/52/102 153/49/102 157/50/102 160/51/102 
# 6 polygons

#
# object Box1026
#

v  1083.4592 -18.9106 -680.4943
v  1083.4592 -18.9106 -715.9274
v  1118.8923 -18.9106 -715.9274
v  1118.8923 -18.9106 -680.4943
v  1083.4592 181.2013 -680.4943
v  1118.8923 181.2013 -680.4943
v  1118.8923 181.2013 -715.9274
v  1083.4592 181.2013 -715.9274
# 8 vertices

vn 0.0000 -1.0000 -0.0000
vn 0.0000 1.0000 -0.0000
vn 0.0000 0.0000 1.0000
vn 1.0000 0.0000 -0.0000
vn 0.0000 0.0000 -1.0000
vn -1.0000 0.0000 -0.0000
# 6 vertex normals

vt 1.0000 0.0000 0.0000
vt 1.0000 1.0000 0.0000
vt 0.0000 1.0000 0.0000
vt 0.0000 0.0000 0.0000
# 4 texture coords

g Box1026
s 2
f 161/53/103 162/54/103 163/55/103 164/56/103 
s 4
f 165/56/104 166/53/104 167/54/104 168/55/104 
s 8
f 161/56/105 164/53/105 166/54/105 165/55/105 
s 16
f 164/56/106 163/53/106 167/54/106 166/55/106 
s 32
f 163/56/107 162/53/107 168/54/107 167/55/107 
s 64
f 162/56/108 161/53/108 165/54/108 168/55/108 
# 6 polygons

#
# object Box1027
#

v  2141.9631 -18.9106 -750.4885
v  2141.9631 -18.9106 -785.9216
v  2177.3962 -18.9106 -785.9216
v  2177.3962 -18.9106 -750.4885
v  2141.9631 181.2013 -750.4885
v  2177.3962 181.2013 -750.4885
v  2177.3962 181.2013 -785.9216
v  2141.9631 181.2013 -785.9216
# 8 vertices

vn 0.0000 -1.0000 -0.0000
vn 0.0000 1.0000 -0.0000
vn 0.0000 0.0000 1.0000
vn 1.0000 0.0000 -0.0000
vn 0.0000 0.0000 -1.0000
vn -1.0000 0.0000 -0.0000
# 6 vertex normals

vt 1.0000 0.0000 0.0000
vt 1.0000 1.0000 0.0000
vt 0.0000 1.0000 0.0000
vt 0.0000 0.0000 0.0000
# 4 texture coords

g Box1027
s 2
f 169/57/109 170/58/109 171/59/109 172/60/109 
s 4
f 173/60/110 174/57/110 175/58/110 176/59/110 
s 8
f 169/60/111 172/57/111 174/58/111 173/59/111 
s 16
f 172/60/112 171/57/112 175/58/112 174/59/112 
s 32
f 171/60/113 170/57/113 176/58/113 175/59/113 
s 64
f 170/60/114 169/57/114 173/58/114 176/59/114 
# 6 polygons

#
# object Box1028
#

v  1472.1858 -18.9106 -361.2171
v  1472.1858 -18.9106 -396.6501
v  1507.6189 -18.9106 -396.6501
v  1507.6189 -18.9106 -361.2171
v  1472.1858 181.2013 -361.2171
v  1507.6189 181.2013 -361.2171
v  1507.6189 181.2013 -396.6501
v  1472.1858 181.2013 -396.6501
# 8 vertices

vn 0.0000 -1.0000 -0.0000
vn 0.0000 1.0000 -0.0000
vn 0.0000 0.0000 1.0000
vn 1.0000 0.0000 -0.0000
vn 0.0000 0.0000 -1.0000
vn -1.0000 0.0000 -0.0000
# 6 vertex normals

vt 1.0000 0.0000 0.0000
vt 1.0000 1.0000 0.0000
vt 0.0000 1.0000 0.0000
vt 0.0000 0.0000 0.0000
# 4 texture coords

g Box1028
s 2
f 177/61/115 178/62/115 179/63/115 180/64/115 
s 4
f 181/64/116 182/61/116 183/62/116 184/63/116 
s 8
f 177/64/117 180/61/117 182/62/117 181/63/117 
s 16
f 180/64/118 179/61/118 183/62/118 182/63/118 
s 32
f 179/64/119 178/61/119 184/62/119 183/63/119 
s 64
f 178/64/120 177/61/120 181/62/120 184/63/120 
# 6 polygons

#
# object Box1029
#

v  1110.0139 -18.9106 -342.7639
v  1110.0139 -18.9106 -378.1970
v  1145.4470 -18.9106 -378.1970
v  1145.4470 -18.9106 -342.7639
v  1110.0139 181.2013 -342.7639
v  1145.4470 181.2013 -342.7639
v  1145.4470 181.2013 -378.1970
v  1110.0139 181.2013 -378.1970
# 8 vertices

vn 0.0000 -1.0000 -0.0000
vn 0.0000 1.0000 -0.0000
vn 0.0000 0.0000 1.0000
vn 1.0000 0.0000 -0.0000
vn 0.0000 0.0000 -1.0000
vn -1.0000 0.0000 -0.0000
# 6 vertex normals

vt 1.0000 0.0000 0.0000
vt 1.0000 1.0000 0.0000
vt 0.0000 1.0000 0.0000
vt 0.0000 0.0000 0.0000
# 4 texture coords

g Box1029
s 2
f 185/65/121 186/66/121 187/67/121 188/68/121 
s 4
f 189/68/122 190/65/122 191/66/122 192/67/122 
s 8
f 185/68/123 188/65/123 190/66/123 189/67/123 
s 16
f 188/68/124 187/65/124 191/66/124 190/67/124 
s 32
f 187/68/125 186/65/125 192/66/125 191/67/125 
s 64
f 186/68/126 185/65/126 189/66/126 192/67/126 
# 6 polygons

#
# object Box1030
#

v  2168.5256 -18.9106 -412.7581
v  2168.5256 -18.9106 -448.1911
v  2203.9587 -18.9106 -448.1911
v  2203.9587 -18.9106 -412.7581
v  2168.5256 181.2013 -412.7581
v  2203.9587 181.2013 -412.7581
v  2203.9587 181.2013 -448.1911
v  2168.5256 181.2013 -448.1911
# 8 vertices

vn 0.0000 -1.0000 -0.0000
vn 0.0000 1.0000 -0.0000
vn 0.0000 0.0000 1.0000
vn 1.0000 0.0000 -0.0000
vn 0.0000 0.0000 -1.0000
vn -1.0000 0.0000 -0.0000
# 6 vertex normals

vt 1.0000 0.0000 0.0000
vt 1.0000 1.0000 0.0000
vt 0.0000 1.0000 0.0000
vt 0.0000 0.0000 0.0000
# 4 texture coords

g Box1030
s 2
f 193/69/127 194/70/127 195/71/127 196/72/127 
s 4
f 197/72/128 198/69/128 199/70/128 200/71/128 
s 8
f 193/72/129 196/69/129 198/70/129 197/71/129 
s 16
f 196/72/130 195/69/130 199/70/130 198/71/130 
s 32
f 195/72/131 194/69/131 200/70/131 199/71/131 
s 64
f 194/72/132 193/69/132 197/70/132 200/71/132 
# 6 polygons

#
# object Box1031
#

v  1816.7913 -18.9106 -381.2054
v  1816.7913 -18.9106 -416.6384
v  1852.2244 -18.9106 -416.6384
v  1852.2244 -18.9106 -381.2054
v  1816.7913 181.2013 -381.2054
v  1852.2244 181.2013 -381.2054
v  1852.2244 181.2013 -416.6384
v  1816.7913 181.2013 -416.6384
# 8 vertices

vn 0.0000 -1.0000 -0.0000
vn 0.0000 1.0000 -0.0000
vn 0.0000 0.0000 1.0000
vn 1.0000 0.0000 -0.0000
vn 0.0000 0.0000 -1.0000
vn -1.0000 0.0000 -0.0000
# 6 vertex normals

vt 1.0000 0.0000 0.0000
vt 1.0000 1.0000 0.0000
vt 0.0000 1.0000 0.0000
vt 0.0000 0.0000 0.0000
# 4 texture coords

g Box1031
s 2
f 201/73/133 202/74/133 203/75/133 204/76/133 
s 4
f 205/76/134 206/73/134 207/74/134 208/75/134 
s 8
f 201/76/135 204/73/135 206/74/135 205/75/135 
s 16
f 204/76/136 203/73/136 207/74/136 206/75/136 
s 32
f 203/76/137 202/73/137 208/74/137 207/75/137 
s 64
f 202/76/138 201/73/138 205/74/138 208/75/138 
# 6 polygons

