# 3ds Max Wavefront OBJ Exporter v0.97b - (c)2007 guruware
# File Created: 28.10.2017 11:16:58

#
# object Line07
#

v  1102.7388 381.2906 -330.1781
v  2269.7715 381.2906 -398.3174
v  2269.7715 409.6088 -398.3174
v  1102.7388 409.6088 -330.1781
v  2198.7930 381.2906 -1565.4159
v  2198.7930 409.6088 -1565.4159
v  1031.6128 381.2906 -1493.6742
v  1031.6128 409.6088 -1493.6742
v  1585.0149 381.2906 -729.5574
v  1460.0215 381.2906 -722.1632
v  1460.0215 409.6088 -722.1632
v  1585.0149 409.6088 -729.5574
v  1441.0570 381.2906 -1001.8762
v  1441.0570 409.6088 -1001.8762
v  1566.0504 381.2906 -1009.2704
v  1566.0504 409.6088 -1009.2704
v  1225.6187 381.2906 -707.8206
v  1100.6252 381.2906 -700.4264
v  1100.6252 409.6088 -700.4264
v  1225.6187 409.6088 -707.8206
v  1081.6608 381.2906 -980.1394
v  1081.6608 409.6088 -980.1394
v  1206.6542 381.2906 -987.5336
v  1206.6542 409.6088 -987.5336
v  1806.5679 381.2906 -731.4588
v  1691.1152 381.2906 -724.3069
v  1691.1152 409.6088 -724.3069
v  1806.5679 409.6088 -731.4588
v  1671.4340 381.2906 -1042.9991
v  1671.4340 409.6088 -1042.9991
v  1787.8134 381.2906 -1051.1624
v  1787.8134 409.6088 -1051.1624
# 32 vertices

vn 0.0583 0.0000 0.9983
vn 0.9982 0.0000 -0.0607
vn -0.0614 0.0000 -0.9981
vn -0.9981 0.0000 0.0610
vn -0.0591 0.0000 -0.9983
vn 0.9977 0.0000 -0.0676
vn 0.0591 0.0000 0.9983
vn -0.9977 0.0000 0.0676
vn -0.0618 0.0000 -0.9981
vn 0.9981 0.0000 -0.0616
vn 0.0700 0.0000 0.9975
vn -0.9983 0.0000 0.0586
vn 0.0000 -1.0000 -0.0000
vn 0.0000 1.0000 -0.0000
# 14 vertex normals

g Line07
s 1
f 1//1 2//1 3//1 4//1 
s 4
f 2//2 5//2 6//2 3//2 
s 2
f 5//3 7//3 8//3 6//3 
s 4
f 7//4 1//4 4//4 8//4 
s 1
f 9//5 10//5 11//5 12//5 
s 4
f 10//6 13//6 14//6 11//6 
s 2
f 13//7 15//7 16//7 14//7 
s 4
f 15//8 9//8 12//8 16//8 
s 1
f 17//5 18//5 19//5 20//5 
s 4
f 18//6 21//6 22//6 19//6 
s 2
f 21//7 23//7 24//7 22//7 
s 4
f 23//8 17//8 20//8 24//8 
s 1
f 25//9 26//9 27//9 28//9 
s 4
f 26//10 29//10 30//10 27//10 
s 2
f 29//11 31//11 32//11 30//11 
s 4
f 31//12 25//12 28//12 32//12 
s 16
f 29//13 13//13 23//13 21//13 
f 1//13 17//13 10//13 9//13 
f 9//13 26//13 2//13 1//13 
f 1//13 7//13 18//13 17//13 
f 7//13 5//13 21//13 18//13 
f 5//13 31//13 29//13 21//13 
f 2//13 25//13 31//13 5//13 
f 17//13 23//13 13//13 10//13 
f 29//13 26//13 15//13 13//13 
f 26//13 9//13 15//13 
f 26//13 25//13 2//13 
f 30//14 6//14 22//14 24//14 
f 4//14 3//14 12//14 11//14 
f 4//14 11//14 14//14 20//14 
f 4//14 20//14 19//14 8//14 
f 8//14 19//14 22//14 6//14 
f 6//14 30//14 32//14 3//14 
f 3//14 32//14 28//14 27//14 
f 24//14 20//14 14//14 30//14 
f 30//14 14//14 16//14 27//14 
f 27//14 16//14 12//14 3//14 
# 35 polygons - 2 triangles

#
# object Box1082
#

v  1445.6311 381.2908 -698.9474
v  1445.6311 381.2908 -734.3806
v  1481.0642 381.2908 -734.3806
v  1481.0642 381.2908 -698.9474
v  1445.6311 581.4028 -698.9474
v  1481.0642 581.4028 -698.9474
v  1481.0642 581.4028 -734.3806
v  1445.6311 581.4028 -734.3806
# 8 vertices

vn 0.0000 -1.0000 -0.0000
vn 0.0000 1.0000 -0.0000
vn 0.0000 0.0000 1.0000
vn 1.0000 0.0000 -0.0000
vn 0.0000 0.0000 -1.0000
vn -1.0000 0.0000 -0.0000
# 6 vertex normals

vt 1.0000 0.0000 0.0000
vt 1.0000 1.0000 0.0000
vt 0.0000 1.0000 0.0000
vt 0.0000 0.0000 0.0000
# 4 texture coords

g Box1082
s 2
f 33/1/15 34/2/15 35/3/15 36/4/15 
s 4
f 37/4/16 38/1/16 39/2/16 40/3/16 
s 8
f 33/4/17 36/1/17 38/2/17 37/3/17 
s 16
f 36/4/18 35/1/18 39/2/18 38/3/18 
s 32
f 35/4/19 34/1/19 40/2/19 39/3/19 
s 64
f 34/4/20 33/1/20 37/2/20 40/3/20 
# 6 polygons

#
# object Box1086
#

v  1087.1522 381.2907 -889.1510
v  1142.6412 381.2905 -892.2531
v  1137.1138 381.2905 -982.6266
v  1081.6248 381.2907 -979.5246
v  1211.7788 381.2903 -897.6006
v  1206.2513 381.2903 -987.9742
v  1087.1523 403.3389 -889.1510
v  1081.6249 403.3389 -979.5246
v  1137.1139 403.3387 -982.6266
v  1142.6414 403.3387 -892.2531
v  1206.2515 403.3384 -987.9742
v  1211.7789 403.3384 -897.6006
v  1224.0507 480.9639 -706.6611
v  1154.9131 480.9641 -701.3136
v  1154.9132 503.0123 -701.3136
v  1224.0508 503.0120 -706.6611
v  1150.5348 480.9641 -762.0894
v  1219.6724 480.9639 -767.4370
v  1219.6724 503.0120 -767.4370
v  1150.5348 503.0123 -762.0894
v  1094.8875 480.9643 -758.9777
v  1094.8875 503.0125 -758.9777
v  1099.2659 503.0125 -698.2018
v  1099.2657 480.9643 -698.2018
v  1142.6383 587.7152 -892.3140
v  1142.6383 609.7634 -892.3140
v  1086.9910 609.7636 -889.2022
v  1086.9910 587.7155 -889.2022
# 28 vertices

vn -0.0000 -1.0000 0.0000
vn 0.0000 1.0000 -0.0000
vn -0.9981 0.0000 0.0610
vn -0.0558 -0.0000 -0.9984
vn -0.0665 0.0000 -0.9978
vn -0.0771 0.0000 -0.9970
vn 0.9981 -0.0000 -0.0610
vn 0.0771 -0.0000 0.9970
vn 0.0558 0.0000 0.9984
vn 0.0569 -0.6753 0.7353
vn -0.0569 0.6753 -0.7353
vn 0.9982 -0.0000 -0.0605
vn -0.9982 0.0000 0.0605
vn -0.9974 0.0000 0.0719
vn 0.9974 -0.0000 -0.0719
vn 0.0424 0.6501 0.7587
vn -0.0424 -0.6501 -0.7587
# 17 vertex normals

vt 1.0000 0.0000 0.0000
vt 1.0000 0.5000 0.0000
vt 0.0000 0.5000 0.0000
vt 0.0000 0.0000 0.0000
vt 1.0000 1.0000 0.0000
vt 0.0000 1.0000 0.0000
vt 0.5000 0.0000 0.0000
vt 0.5000 1.0000 0.0000
# 8 texture coords

g Box1086
s 2
f 44/8/21 43/7/21 42/6/21 41/5/21 
f 43/7/21 46/10/21 45/9/21 42/6/21 
s 4
f 50/7/22 49/6/22 48/5/22 47/8/22 
f 52/10/22 51/9/22 49/6/22 50/7/22 
s 8
f 47/10/23 48/9/23 44/5/23 41/8/23 
s 16
f 48/10/24 49/12/25 43/11/25 44/8/24 
f 49/12/25 51/9/26 46/5/26 43/11/25 
s 32
f 51/10/27 52/9/27 45/5/27 46/8/27 
s 64
f 56/10/28 55/12/28 54/11/28 53/8/28 
f 50/12/29 47/9/29 41/5/29 42/11/29 
s off
f 58/8/30 57/11/30 42/11/30 45/8/30 
f 60/12/31 59/10/31 52/10/31 50/12/31 
f 59/10/32 58/8/32 45/8/32 52/10/32 
f 57/11/33 60/12/33 50/12/33 42/11/33 
f 53/8/21 54/11/21 57/11/21 58/8/21 
f 64/11/34 63/12/34 62/12/34 61/11/34 
f 55/12/22 56/10/22 59/10/22 60/12/22 
f 56/10/35 53/8/35 58/8/35 59/10/35 
f 63/12/29 64/11/29 54/11/29 55/12/29 
f 68/11/24 67/12/24 66/12/24 65/11/24 
f 64/11/21 61/11/21 57/11/21 54/11/21 
f 62/12/22 63/12/22 55/12/22 60/12/22 
f 65/11/32 66/12/32 60/12/32 57/11/32 
f 67/12/33 68/11/33 61/11/33 62/12/33 
f 66/12/36 67/12/36 62/12/36 60/12/36 
f 68/11/37 65/11/37 57/11/37 61/11/37 
# 26 polygons

#
# object Box1087
#

v  1444.5292 381.2907 -911.0963
v  1500.0182 381.2905 -914.1984
v  1494.4907 381.2905 -1004.5720
v  1439.0017 381.2907 -1001.4699
v  1569.1558 381.2903 -919.5459
v  1563.6283 381.2903 -1009.9195
v  1444.5293 403.3389 -911.0963
v  1439.0018 403.3389 -1001.4699
v  1494.4908 403.3387 -1004.5720
v  1500.0183 403.3387 -914.1984
v  1563.6284 403.3384 -1009.9195
v  1569.1559 403.3384 -919.5459
v  1581.4276 480.9639 -728.6064
v  1512.2900 480.9641 -723.2589
v  1512.2902 503.0123 -723.2589
v  1581.4277 503.0120 -728.6064
v  1507.9117 480.9641 -784.0347
v  1577.0493 480.9639 -789.3823
v  1577.0493 503.0120 -789.3823
v  1507.9117 503.0123 -784.0347
v  1452.2644 480.9643 -780.9230
v  1452.2644 503.0125 -780.9230
v  1456.6428 503.0125 -720.1472
v  1456.6427 480.9643 -720.1472
v  1500.0153 587.7152 -914.2593
v  1500.0153 609.7634 -914.2593
v  1444.3679 609.7636 -911.1475
v  1444.3679 587.7155 -911.1475
# 28 vertices

vn -0.0000 -1.0000 0.0000
vn 0.0000 1.0000 -0.0000
vn -0.9981 0.0000 0.0610
vn -0.0558 -0.0000 -0.9984
vn -0.0665 0.0000 -0.9978
vn -0.0771 0.0000 -0.9970
vn 0.9981 -0.0000 -0.0610
vn 0.0771 -0.0000 0.9970
vn 0.0558 0.0000 0.9984
vn 0.0569 -0.6753 0.7353
vn -0.0569 0.6753 -0.7353
vn 0.9982 -0.0000 -0.0605
vn -0.9982 0.0000 0.0605
vn -0.9974 0.0000 0.0719
vn 0.9974 -0.0000 -0.0719
vn 0.0424 0.6501 0.7587
vn -0.0424 -0.6501 -0.7587
# 17 vertex normals

vt 1.0000 0.0000 0.0000
vt 1.0000 0.5000 0.0000
vt 0.0000 0.5000 0.0000
vt 0.0000 0.0000 0.0000
vt 1.0000 1.0000 0.0000
vt 0.0000 1.0000 0.0000
vt 0.5000 0.0000 0.0000
vt 0.5000 1.0000 0.0000
# 8 texture coords

g Box1087
s 2
f 72/16/38 71/15/38 70/14/38 69/13/38 
f 71/15/38 74/18/38 73/17/38 70/14/38 
s 4
f 78/15/39 77/14/39 76/13/39 75/16/39 
f 80/18/39 79/17/39 77/14/39 78/15/39 
s 8
f 75/18/40 76/17/40 72/13/40 69/16/40 
s 16
f 76/18/41 77/20/42 71/19/42 72/16/41 
f 77/20/42 79/17/43 74/13/43 71/19/42 
s 32
f 79/18/44 80/17/44 73/13/44 74/16/44 
s 64
f 84/18/45 83/20/45 82/19/45 81/16/45 
f 78/20/46 75/17/46 69/13/46 70/19/46 
s off
f 86/16/47 85/19/47 70/19/47 73/16/47 
f 88/20/48 87/18/48 80/18/48 78/20/48 
f 87/18/49 86/16/49 73/16/49 80/18/49 
f 85/19/50 88/20/50 78/20/50 70/19/50 
f 81/16/38 82/19/38 85/19/38 86/16/38 
f 92/19/51 91/20/51 90/20/51 89/19/51 
f 83/20/39 84/18/39 87/18/39 88/20/39 
f 84/18/52 81/16/52 86/16/52 87/18/52 
f 91/20/46 92/19/46 82/19/46 83/20/46 
f 96/19/41 95/20/41 94/20/41 93/19/41 
f 92/19/38 89/19/38 85/19/38 82/19/38 
f 90/20/39 91/20/39 83/20/39 88/20/39 
f 93/19/49 94/20/49 88/20/49 85/19/49 
f 95/20/50 96/19/50 89/19/50 90/20/50 
f 94/20/53 95/20/53 90/20/53 88/20/53 
f 96/19/54 93/19/54 85/19/54 89/19/54 
# 26 polygons

#
# object Box1088
#

v  2102.1663 381.2908 -1465.4592
v  2102.1663 381.2908 -1500.8923
v  2137.5994 381.2908 -1500.8923
v  2137.5994 381.2908 -1465.4592
v  2102.1663 581.4028 -1465.4592
v  2137.5994 581.4028 -1465.4592
v  2137.5994 581.4028 -1500.8923
v  2102.1663 581.4028 -1500.8923
# 8 vertices

vn 0.0000 -1.0000 -0.0000
vn 0.0000 1.0000 -0.0000
vn 0.0000 0.0000 1.0000
vn 1.0000 0.0000 -0.0000
vn 0.0000 0.0000 -1.0000
vn -1.0000 0.0000 -0.0000
# 6 vertex normals

vt 1.0000 0.0000 0.0000
vt 1.0000 1.0000 0.0000
vt 0.0000 1.0000 0.0000
vt 0.0000 0.0000 0.0000
# 4 texture coords

g Box1088
s 2
f 97/21/55 98/22/55 99/23/55 100/24/55 
s 4
f 101/24/56 102/21/56 103/22/56 104/23/56 
s 8
f 97/24/57 100/21/57 102/22/57 101/23/57 
s 16
f 100/24/58 99/21/58 103/22/58 102/23/58 
s 32
f 99/24/59 98/21/59 104/22/59 103/23/59 
s 64
f 98/24/60 97/21/60 101/22/60 104/23/60 
# 6 polygons

#
# object Box1089
#

v  1749.8850 381.2908 -1445.5061
v  1749.8850 381.2908 -1480.9392
v  1785.3181 381.2908 -1480.9392
v  1785.3181 381.2908 -1445.5061
v  1749.8850 581.4028 -1445.5061
v  1785.3181 581.4028 -1445.5061
v  1785.3181 581.4028 -1480.9392
v  1749.8850 581.4028 -1480.9392
# 8 vertices

vn 0.0000 -1.0000 -0.0000
vn 0.0000 1.0000 -0.0000
vn 0.0000 0.0000 1.0000
vn 1.0000 0.0000 -0.0000
vn 0.0000 0.0000 -1.0000
vn -1.0000 0.0000 -0.0000
# 6 vertex normals

vt 1.0000 0.0000 0.0000
vt 1.0000 1.0000 0.0000
vt 0.0000 1.0000 0.0000
vt 0.0000 0.0000 0.0000
# 4 texture coords

g Box1089
s 2
f 105/25/61 106/26/61 107/27/61 108/28/61 
s 4
f 109/28/62 110/25/62 111/26/62 112/27/62 
s 8
f 105/28/63 108/25/63 110/26/63 109/27/63 
s 16
f 108/28/64 107/25/64 111/26/64 110/27/64 
s 32
f 107/28/65 106/25/65 112/26/65 111/27/65 
s 64
f 106/28/66 105/25/66 109/26/66 112/27/66 
# 6 polygons

#
# object Box1090
#

v  1405.2795 381.2908 -1425.5178
v  1405.2795 381.2908 -1460.9509
v  1440.7126 381.2908 -1460.9509
v  1440.7126 381.2908 -1425.5178
v  1405.2795 581.4028 -1425.5178
v  1440.7126 581.4028 -1425.5178
v  1440.7126 581.4028 -1460.9509
v  1405.2795 581.4028 -1460.9509
# 8 vertices

vn 0.0000 -1.0000 -0.0000
vn 0.0000 1.0000 -0.0000
vn 0.0000 0.0000 1.0000
vn 1.0000 0.0000 -0.0000
vn 0.0000 0.0000 -1.0000
vn -1.0000 0.0000 -0.0000
# 6 vertex normals

vt 1.0000 0.0000 0.0000
vt 1.0000 1.0000 0.0000
vt 0.0000 1.0000 0.0000
vt 0.0000 0.0000 0.0000
# 4 texture coords

g Box1090
s 2
f 113/29/67 114/30/67 115/31/67 116/32/67 
s 4
f 117/32/68 118/29/68 119/30/68 120/31/68 
s 8
f 113/32/69 116/29/69 118/30/69 117/31/69 
s 16
f 116/32/70 115/29/70 119/30/70 118/31/70 
s 32
f 115/32/71 114/29/71 120/30/71 119/31/71 
s 64
f 114/32/72 113/29/72 117/30/72 120/31/72 
# 6 polygons

#
# object Box1091
#

v  1043.1077 381.2908 -1407.0647
v  1043.1077 381.2908 -1442.4978
v  1078.5408 381.2908 -1442.4978
v  1078.5408 381.2908 -1407.0647
v  1043.1077 581.4028 -1407.0647
v  1078.5408 581.4028 -1407.0647
v  1078.5408 581.4028 -1442.4978
v  1043.1077 581.4028 -1442.4978
# 8 vertices

vn 0.0000 -1.0000 -0.0000
vn 0.0000 1.0000 -0.0000
vn 0.0000 0.0000 1.0000
vn 1.0000 0.0000 -0.0000
vn 0.0000 0.0000 -1.0000
vn -1.0000 0.0000 -0.0000
# 6 vertex normals

vt 1.0000 0.0000 0.0000
vt 1.0000 1.0000 0.0000
vt 0.0000 1.0000 0.0000
vt 0.0000 0.0000 0.0000
# 4 texture coords

g Box1091
s 2
f 121/33/73 122/34/73 123/35/73 124/36/73 
s 4
f 125/36/74 126/33/74 127/34/74 128/35/74 
s 8
f 121/36/75 124/33/75 126/34/75 125/35/75 
s 16
f 124/36/76 123/33/76 127/34/76 126/35/76 
s 32
f 123/36/77 122/33/77 128/34/77 127/35/77 
s 64
f 122/36/78 121/33/78 125/34/78 128/35/78 
# 6 polygons

#
# object Box1092
#

v  1425.2834 381.2908 -1066.0081
v  1425.2834 381.2908 -1101.4412
v  1460.7166 381.2908 -1101.4412
v  1460.7166 381.2908 -1066.0081
v  1425.2834 581.4028 -1066.0081
v  1460.7166 581.4028 -1066.0081
v  1460.7166 581.4028 -1101.4412
v  1425.2834 581.4028 -1101.4412
# 8 vertices

vn 0.0000 -1.0000 -0.0000
vn 0.0000 1.0000 -0.0000
vn 0.0000 0.0000 1.0000
vn 1.0000 0.0000 -0.0000
vn 0.0000 0.0000 -1.0000
vn -1.0000 0.0000 -0.0000
# 6 vertex normals

vt 1.0000 0.0000 0.0000
vt 1.0000 1.0000 0.0000
vt 0.0000 1.0000 0.0000
vt 0.0000 0.0000 0.0000
# 4 texture coords

g Box1092
s 2
f 129/37/79 130/38/79 131/39/79 132/40/79 
s 4
f 133/40/80 134/37/80 135/38/80 136/39/80 
s 8
f 129/40/81 132/37/81 134/38/81 133/39/81 
s 16
f 132/40/82 131/37/82 135/38/82 134/39/82 
s 32
f 131/40/83 130/37/83 136/38/83 135/39/83 
s 64
f 130/40/84 129/37/84 133/38/84 136/39/84 
# 6 polygons

#
# object Box1093
#

v  1063.1116 381.2908 -1047.5549
v  1063.1116 381.2908 -1082.9880
v  1098.5447 381.2908 -1082.9880
v  1098.5447 381.2908 -1047.5549
v  1063.1116 581.4028 -1047.5549
v  1098.5447 581.4028 -1047.5549
v  1098.5447 581.4028 -1082.9880
v  1063.1116 581.4028 -1082.9880
# 8 vertices

vn 0.0000 -1.0000 -0.0000
vn 0.0000 1.0000 -0.0000
vn 0.0000 0.0000 1.0000
vn 1.0000 0.0000 -0.0000
vn 0.0000 0.0000 -1.0000
vn -1.0000 0.0000 -0.0000
# 6 vertex normals

vt 1.0000 0.0000 0.0000
vt 1.0000 1.0000 0.0000
vt 0.0000 1.0000 0.0000
vt 0.0000 0.0000 0.0000
# 4 texture coords

g Box1093
s 2
f 137/41/85 138/42/85 139/43/85 140/44/85 
s 4
f 141/44/86 142/41/86 143/42/86 144/43/86 
s 8
f 137/44/87 140/41/87 142/42/87 141/43/87 
s 16
f 140/44/88 139/41/88 143/42/88 142/43/88 
s 32
f 139/44/89 138/41/89 144/42/89 143/43/89 
s 64
f 138/44/90 137/41/90 141/42/90 144/43/90 
# 6 polygons

#
# object Box1094
#

v  2122.1741 381.2908 -1105.9495
v  2122.1741 381.2908 -1141.3826
v  2157.6072 381.2908 -1141.3826
v  2157.6072 381.2908 -1105.9495
v  2122.1741 581.4028 -1105.9495
v  2157.6072 581.4028 -1105.9495
v  2157.6072 581.4028 -1141.3826
v  2122.1741 581.4028 -1141.3826
# 8 vertices

vn 0.0000 -1.0000 -0.0000
vn 0.0000 1.0000 -0.0000
vn 0.0000 0.0000 1.0000
vn 1.0000 0.0000 -0.0000
vn 0.0000 0.0000 -1.0000
vn -1.0000 0.0000 -0.0000
# 6 vertex normals

vt 1.0000 0.0000 0.0000
vt 1.0000 1.0000 0.0000
vt 0.0000 1.0000 0.0000
vt 0.0000 0.0000 0.0000
# 4 texture coords

g Box1094
s 2
f 145/45/91 146/46/91 147/47/91 148/48/91 
s 4
f 149/48/92 150/45/92 151/46/92 152/47/92 
s 8
f 145/48/93 148/45/93 150/46/93 149/47/93 
s 16
f 148/48/94 147/45/94 151/46/94 150/47/94 
s 32
f 147/48/95 146/45/95 152/46/95 151/47/95 
s 64
f 146/48/96 145/45/96 149/46/96 152/47/96 
# 6 polygons

#
# object Box1095
#

v  1769.8850 381.2908 -1085.9963
v  1769.8850 381.2908 -1121.4294
v  1805.3181 381.2908 -1121.4294
v  1805.3181 381.2908 -1085.9963
v  1769.8850 581.4028 -1085.9963
v  1805.3181 581.4028 -1085.9963
v  1805.3181 581.4028 -1121.4294
v  1769.8850 581.4028 -1121.4294
# 8 vertices

vn 0.0000 -1.0000 -0.0000
vn 0.0000 1.0000 -0.0000
vn 0.0000 0.0000 1.0000
vn 1.0000 0.0000 -0.0000
vn 0.0000 0.0000 -1.0000
vn -1.0000 0.0000 -0.0000
# 6 vertex normals

vt 1.0000 0.0000 0.0000
vt 1.0000 1.0000 0.0000
vt 0.0000 1.0000 0.0000
vt 0.0000 0.0000 0.0000
# 4 texture coords

g Box1095
s 2
f 153/49/97 154/50/97 155/51/97 156/52/97 
s 4
f 157/52/98 158/49/98 159/50/98 160/51/98 
s 8
f 153/52/99 156/49/99 158/50/99 157/51/99 
s 16
f 156/52/100 155/49/100 159/50/100 158/51/100 
s 32
f 155/52/101 154/49/101 160/50/101 159/51/101 
s 64
f 154/52/102 153/49/102 157/50/102 160/51/102 
# 6 polygons

#
# object Box1096
#

v  1083.4592 381.2908 -680.4943
v  1083.4592 381.2908 -715.9274
v  1118.8923 381.2908 -715.9274
v  1118.8923 381.2908 -680.4943
v  1083.4592 581.4028 -680.4943
v  1118.8923 581.4028 -680.4943
v  1118.8923 581.4028 -715.9274
v  1083.4592 581.4028 -715.9274
# 8 vertices

vn 0.0000 -1.0000 -0.0000
vn 0.0000 1.0000 -0.0000
vn 0.0000 0.0000 1.0000
vn 1.0000 0.0000 -0.0000
vn 0.0000 0.0000 -1.0000
vn -1.0000 0.0000 -0.0000
# 6 vertex normals

vt 1.0000 0.0000 0.0000
vt 1.0000 1.0000 0.0000
vt 0.0000 1.0000 0.0000
vt 0.0000 0.0000 0.0000
# 4 texture coords

g Box1096
s 2
f 161/53/103 162/54/103 163/55/103 164/56/103 
s 4
f 165/56/104 166/53/104 167/54/104 168/55/104 
s 8
f 161/56/105 164/53/105 166/54/105 165/55/105 
s 16
f 164/56/106 163/53/106 167/54/106 166/55/106 
s 32
f 163/56/107 162/53/107 168/54/107 167/55/107 
s 64
f 162/56/108 161/53/108 165/54/108 168/55/108 
# 6 polygons

#
# object Box1097
#

v  2141.9631 381.2908 -750.4885
v  2141.9631 381.2908 -785.9216
v  2177.3962 381.2908 -785.9216
v  2177.3962 381.2908 -750.4885
v  2141.9631 581.4028 -750.4885
v  2177.3962 581.4028 -750.4885
v  2177.3962 581.4028 -785.9216
v  2141.9631 581.4028 -785.9216
# 8 vertices

vn 0.0000 -1.0000 -0.0000
vn 0.0000 1.0000 -0.0000
vn 0.0000 0.0000 1.0000
vn 1.0000 0.0000 -0.0000
vn 0.0000 0.0000 -1.0000
vn -1.0000 0.0000 -0.0000
# 6 vertex normals

vt 1.0000 0.0000 0.0000
vt 1.0000 1.0000 0.0000
vt 0.0000 1.0000 0.0000
vt 0.0000 0.0000 0.0000
# 4 texture coords

g Box1097
s 2
f 169/57/109 170/58/109 171/59/109 172/60/109 
s 4
f 173/60/110 174/57/110 175/58/110 176/59/110 
s 8
f 169/60/111 172/57/111 174/58/111 173/59/111 
s 16
f 172/60/112 171/57/112 175/58/112 174/59/112 
s 32
f 171/60/113 170/57/113 176/58/113 175/59/113 
s 64
f 170/60/114 169/57/114 173/58/114 176/59/114 
# 6 polygons

#
# object Box1098
#

v  1472.1858 381.2908 -361.2171
v  1472.1858 381.2908 -396.6501
v  1507.6189 381.2908 -396.6501
v  1507.6189 381.2908 -361.2171
v  1472.1858 581.4028 -361.2171
v  1507.6189 581.4028 -361.2171
v  1507.6189 581.4028 -396.6501
v  1472.1858 581.4028 -396.6501
# 8 vertices

vn 0.0000 -1.0000 -0.0000
vn 0.0000 1.0000 -0.0000
vn 0.0000 0.0000 1.0000
vn 1.0000 0.0000 -0.0000
vn 0.0000 0.0000 -1.0000
vn -1.0000 0.0000 -0.0000
# 6 vertex normals

vt 1.0000 0.0000 0.0000
vt 1.0000 1.0000 0.0000
vt 0.0000 1.0000 0.0000
vt 0.0000 0.0000 0.0000
# 4 texture coords

g Box1098
s 2
f 177/61/115 178/62/115 179/63/115 180/64/115 
s 4
f 181/64/116 182/61/116 183/62/116 184/63/116 
s 8
f 177/64/117 180/61/117 182/62/117 181/63/117 
s 16
f 180/64/118 179/61/118 183/62/118 182/63/118 
s 32
f 179/64/119 178/61/119 184/62/119 183/63/119 
s 64
f 178/64/120 177/61/120 181/62/120 184/63/120 
# 6 polygons

#
# object Box1099
#

v  1110.0139 381.2908 -342.7639
v  1110.0139 381.2908 -378.1970
v  1145.4470 381.2908 -378.1970
v  1145.4470 381.2908 -342.7639
v  1110.0139 581.4028 -342.7639
v  1145.4470 581.4028 -342.7639
v  1145.4470 581.4028 -378.1970
v  1110.0139 581.4028 -378.1970
# 8 vertices

vn 0.0000 -1.0000 -0.0000
vn 0.0000 1.0000 -0.0000
vn 0.0000 0.0000 1.0000
vn 1.0000 0.0000 -0.0000
vn 0.0000 0.0000 -1.0000
vn -1.0000 0.0000 -0.0000
# 6 vertex normals

vt 1.0000 0.0000 0.0000
vt 1.0000 1.0000 0.0000
vt 0.0000 1.0000 0.0000
vt 0.0000 0.0000 0.0000
# 4 texture coords

g Box1099
s 2
f 185/65/121 186/66/121 187/67/121 188/68/121 
s 4
f 189/68/122 190/65/122 191/66/122 192/67/122 
s 8
f 185/68/123 188/65/123 190/66/123 189/67/123 
s 16
f 188/68/124 187/65/124 191/66/124 190/67/124 
s 32
f 187/68/125 186/65/125 192/66/125 191/67/125 
s 64
f 186/68/126 185/65/126 189/66/126 192/67/126 
# 6 polygons

#
# object Box1100
#

v  2168.5256 381.2908 -412.7581
v  2168.5256 381.2908 -448.1911
v  2203.9587 381.2908 -448.1911
v  2203.9587 381.2908 -412.7581
v  2168.5256 581.4028 -412.7581
v  2203.9587 581.4028 -412.7581
v  2203.9587 581.4028 -448.1911
v  2168.5256 581.4028 -448.1911
# 8 vertices

vn 0.0000 -1.0000 -0.0000
vn 0.0000 1.0000 -0.0000
vn 0.0000 0.0000 1.0000
vn 1.0000 0.0000 -0.0000
vn 0.0000 0.0000 -1.0000
vn -1.0000 0.0000 -0.0000
# 6 vertex normals

vt 1.0000 0.0000 0.0000
vt 1.0000 1.0000 0.0000
vt 0.0000 1.0000 0.0000
vt 0.0000 0.0000 0.0000
# 4 texture coords

g Box1100
s 2
f 193/69/127 194/70/127 195/71/127 196/72/127 
s 4
f 197/72/128 198/69/128 199/70/128 200/71/128 
s 8
f 193/72/129 196/69/129 198/70/129 197/71/129 
s 16
f 196/72/130 195/69/130 199/70/130 198/71/130 
s 32
f 195/72/131 194/69/131 200/70/131 199/71/131 
s 64
f 194/72/132 193/69/132 197/70/132 200/71/132 
# 6 polygons

#
# object Box1101
#

v  1816.7913 381.2908 -381.2054
v  1816.7913 381.2908 -416.6384
v  1852.2244 381.2908 -416.6384
v  1852.2244 381.2908 -381.2054
v  1816.7913 581.4028 -381.2054
v  1852.2244 581.4028 -381.2054
v  1852.2244 581.4028 -416.6384
v  1816.7913 581.4028 -416.6384
# 8 vertices

vn 0.0000 -1.0000 -0.0000
vn 0.0000 1.0000 -0.0000
vn 0.0000 0.0000 1.0000
vn 1.0000 0.0000 -0.0000
vn 0.0000 0.0000 -1.0000
vn -1.0000 0.0000 -0.0000
# 6 vertex normals

vt 1.0000 0.0000 0.0000
vt 1.0000 1.0000 0.0000
vt 0.0000 1.0000 0.0000
vt 0.0000 0.0000 0.0000
# 4 texture coords

g Box1101
s 2
f 201/73/133 202/74/133 203/75/133 204/76/133 
s 4
f 205/76/134 206/73/134 207/74/134 208/75/134 
s 8
f 201/76/135 204/73/135 206/74/135 205/75/135 
s 16
f 204/76/136 203/73/136 207/74/136 206/75/136 
s 32
f 203/76/137 202/73/137 208/74/137 207/75/137 
s 64
f 202/76/138 201/73/138 205/74/138 208/75/138 
# 6 polygons

