# 3ds Max Wavefront OBJ Exporter v0.97b - (c)2007 guruware
# File Created: 28.10.2017 11:24:22

#
# object Line13
#

v  1936.2273 1582.8519 1279.3713
v  1820.7747 1582.8519 1286.5232
v  1820.7747 1611.1700 1286.5232
v  1936.2273 1611.1700 1279.3713
v  1801.0934 1582.8519 967.8311
v  1801.0934 1611.1700 967.8311
v  1917.4729 1582.8519 959.6678
v  1917.4729 1611.1700 959.6678
v  1711.5125 1582.8519 1258.1511
v  1586.5190 1582.8519 1265.5452
v  1586.5190 1611.1700 1265.5452
v  1711.5125 1611.1700 1258.1511
v  1567.5546 1582.8519 985.8322
v  1567.5546 1611.1700 985.8322
v  1692.5480 1582.8519 978.4380
v  1692.5480 1611.1700 978.4380
v  1352.1162 1582.8519 1279.8879
v  1227.1228 1582.8519 1287.2820
v  1227.1228 1611.1700 1287.2820
v  1352.1162 1611.1700 1279.8879
v  1208.1583 1582.8519 1007.5690
v  1208.1583 1611.1700 1007.5690
v  1333.1517 1582.8519 1000.1749
v  1333.1517 1611.1700 1000.1749
v  1162.3250 1582.8519 644.5476
v  1233.3860 1582.8519 1806.9814
v  1233.3860 1611.1700 1806.9814
v  1162.3250 1611.1700 644.5476
v  2400.4644 1582.8519 1735.6069
v  2400.4644 1611.1700 1735.6069
v  2329.1392 1582.8519 568.4522
v  2329.1392 1611.1700 568.4522
# 32 vertices

vn -0.0618 0.0000 -0.9981
vn 0.9981 0.0000 -0.0616
vn 0.0700 0.0000 0.9975
vn -0.9983 0.0000 0.0586
vn -0.0591 0.0000 -0.9983
vn 0.9977 0.0000 -0.0676
vn 0.0591 0.0000 0.9983
vn -0.9977 0.0000 0.0676
vn -0.9981 0.0000 0.0610
vn 0.0610 0.0000 0.9981
vn 0.9981 0.0000 -0.0610
vn -0.0651 0.0000 -0.9979
vn 0.0000 -1.0000 -0.0000
vn 0.0000 1.0000 -0.0000
# 14 vertex normals

g Line13
s 1
f 1//1 2//1 3//1 4//1 
s 4
f 2//2 5//2 6//2 3//2 
s 2
f 5//3 7//3 8//3 6//3 
s 4
f 7//4 1//4 4//4 8//4 
s 1
f 9//5 10//5 11//5 12//5 
s 4
f 10//6 13//6 14//6 11//6 
s 2
f 13//7 15//7 16//7 14//7 
s 4
f 15//8 9//8 12//8 16//8 
s 1
f 17//5 18//5 19//5 20//5 
s 4
f 18//6 21//6 22//6 19//6 
s 2
f 21//7 23//7 24//7 22//7 
s 4
f 23//8 17//8 20//8 24//8 
s 1
f 25//9 26//9 27//9 28//9 
s 4
f 26//10 29//10 30//10 27//10 
s 2
f 29//11 31//11 32//11 30//11 
s 4
f 31//12 25//12 28//12 32//12 
s 16
f 31//13 7//13 5//13 25//13 
f 29//13 1//13 7//13 31//13 
f 26//13 2//13 1//13 29//13 
f 26//13 10//13 9//13 2//13 
f 26//13 18//13 17//13 10//13 
f 9//13 15//13 5//13 2//13 
f 15//13 13//13 25//13 5//13 
f 25//13 21//13 18//13 26//13 
f 13//13 23//13 21//13 25//13 
f 13//13 10//13 17//13 23//13 
f 32//14 28//14 16//14 6//14 
f 32//14 6//14 8//14 30//14 
f 30//14 8//14 4//14 27//14 
f 27//14 4//14 3//14 12//14 
f 27//14 12//14 11//14 20//14 
f 12//14 3//14 6//14 16//14 
f 14//14 16//14 28//14 22//14 
f 27//14 20//14 19//14 28//14 
f 28//14 19//14 22//14 
f 14//14 22//14 24//14 20//14 
f 11//14 14//14 20//14 
# 35 polygons - 2 triangles

#
# object Box1295
#

v  1231.9905 1582.8521 1776.1893
v  1231.9905 1582.8521 1740.7562
v  1267.4236 1582.8521 1740.7562
v  1267.4236 1582.8521 1776.1893
v  1231.9905 1782.9640 1776.1893
v  1267.4236 1782.9640 1776.1893
v  1267.4236 1782.9640 1740.7562
v  1231.9905 1782.9640 1740.7562
# 8 vertices

vn 0.0000 -1.0000 -0.0000
vn 0.0000 1.0000 -0.0000
vn 0.0000 0.0000 1.0000
vn 1.0000 0.0000 -0.0000
vn 0.0000 0.0000 -1.0000
vn -1.0000 0.0000 -0.0000
# 6 vertex normals

vt 1.0000 0.0000 0.0000
vt 1.0000 1.0000 0.0000
vt 0.0000 1.0000 0.0000
vt 0.0000 0.0000 0.0000
# 4 texture coords

g Box1295
s 2
f 33/1/15 34/2/15 35/3/15 36/4/15 
s 4
f 37/4/16 38/1/16 39/2/16 40/3/16 
s 8
f 33/4/17 36/1/17 38/2/17 37/3/17 
s 16
f 36/4/18 35/1/18 39/2/18 38/3/18 
s 32
f 35/4/19 34/1/19 40/2/19 39/3/19 
s 64
f 34/4/20 33/1/20 37/2/20 40/3/20 
# 6 polygons

#
# object Box1296
#

v  1200.2795 1582.8521 1040.2443
v  1200.2795 1582.8521 1004.8112
v  1235.7126 1582.8521 1004.8112
v  1235.7126 1582.8521 1040.2443
v  1200.2795 1782.9640 1040.2443
v  1235.7126 1782.9640 1040.2443
v  1235.7126 1782.9640 1004.8112
v  1200.2795 1782.9640 1004.8112
# 8 vertices

vn 0.0000 -1.0000 -0.0000
vn 0.0000 1.0000 -0.0000
vn 0.0000 0.0000 1.0000
vn 1.0000 0.0000 -0.0000
vn 0.0000 0.0000 -1.0000
vn -1.0000 0.0000 -0.0000
# 6 vertex normals

vt 1.0000 0.0000 0.0000
vt 1.0000 1.0000 0.0000
vt 0.0000 1.0000 0.0000
vt 0.0000 0.0000 0.0000
# 4 texture coords

g Box1296
s 2
f 41/5/21 42/6/21 43/7/21 44/8/21 
s 4
f 45/8/22 46/5/22 47/6/22 48/7/22 
s 8
f 41/8/23 44/5/23 46/6/23 45/7/23 
s 16
f 44/8/24 43/5/24 47/6/24 46/7/24 
s 32
f 43/8/25 42/5/25 48/6/25 47/7/25 
s 64
f 42/8/26 41/5/26 45/6/26 48/7/26 
# 6 polygons

#
# object Box1298
#

v  1576.5413 1582.8521 1370.2596
v  1576.5413 1582.8521 1334.8265
v  1611.9744 1582.8521 1334.8265
v  1611.9744 1582.8521 1370.2596
v  1576.5413 1782.9640 1370.2596
v  1611.9744 1782.9640 1370.2596
v  1611.9744 1782.9640 1334.8265
v  1576.5413 1782.9640 1334.8265
# 8 vertices

vn 0.0000 -1.0000 -0.0000
vn 0.0000 1.0000 -0.0000
vn 0.0000 0.0000 1.0000
vn 1.0000 0.0000 -0.0000
vn 0.0000 0.0000 -1.0000
vn -1.0000 0.0000 -0.0000
# 6 vertex normals

vt 1.0000 0.0000 0.0000
vt 1.0000 1.0000 0.0000
vt 0.0000 1.0000 0.0000
vt 0.0000 0.0000 0.0000
# 4 texture coords

g Box1298
s 2
f 49/9/27 50/10/27 51/11/27 52/12/27 
s 4
f 53/12/28 54/9/28 55/10/28 56/11/28 
s 8
f 49/12/29 52/9/29 54/10/29 53/11/29 
s 16
f 52/12/30 51/9/30 55/10/30 54/11/30 
s 32
f 51/12/31 50/9/31 56/10/31 55/11/31 
s 64
f 50/12/32 49/9/32 53/10/32 56/11/32 
# 6 polygons

#
# object Box1299
#

v  1220.8221 1582.8516 1198.8036
v  1276.2413 1582.8516 1194.6364
v  1282.5573 1582.8516 1284.9584
v  1227.1381 1582.8516 1289.1256
v  1345.4856 1582.8516 1190.9138
v  1351.8015 1582.8516 1281.2360
v  1220.8221 1604.8998 1198.8036
v  1227.1381 1604.8998 1289.1256
v  1282.5573 1604.8998 1284.9584
v  1276.2413 1604.8998 1194.6364
v  1351.8015 1604.8998 1281.2360
v  1345.4856 1604.8998 1190.9138
v  1332.7295 1682.5251 1000.0059
v  1263.4852 1682.5251 1003.7283
v  1263.4852 1704.5734 1003.7283
v  1332.7295 1704.5734 1000.0059
v  1267.0771 1682.5251 1064.5558
v  1336.3214 1682.5251 1060.8333
v  1336.3214 1704.5734 1060.8333
v  1267.0771 1704.5734 1064.5558
v  1211.4996 1682.5251 1068.7341
v  1211.4996 1704.5734 1068.7341
v  1207.9077 1704.5734 1007.9066
v  1207.9077 1682.5251 1007.9066
v  1276.2456 1789.2762 1194.6971
v  1276.2456 1811.3245 1194.6971
v  1220.6681 1811.3245 1198.8755
v  1220.6681 1789.2762 1198.8755
# 28 vertices

vn 0.0000 -1.0000 -0.0000
vn -0.0000 1.0000 0.0000
vn -0.9976 -0.0000 0.0698
vn 0.0750 0.0000 0.9972
vn 0.0643 -0.0000 0.9979
vn 0.0537 -0.0000 0.9986
vn 0.9976 0.0000 -0.0698
vn -0.0537 0.0000 -0.9986
vn -0.0750 -0.0000 -0.9972
vn -0.0396 -0.6753 -0.7364
vn 0.0396 0.6753 0.7364
vn 0.9975 0.0000 -0.0703
vn -0.9975 -0.0000 0.0703
vn -0.9983 -0.0000 0.0589
vn 0.9983 0.0000 -0.0589
vn -0.0570 0.6501 -0.7577
vn 0.0570 -0.6501 0.7577
# 17 vertex normals

vt 1.0000 0.0000 0.0000
vt 1.0000 0.5000 0.0000
vt 0.0000 0.5000 0.0000
vt 0.0000 0.0000 0.0000
vt 1.0000 1.0000 0.0000
vt 0.0000 1.0000 0.0000
vt 0.5000 0.0000 0.0000
vt 0.5000 1.0000 0.0000
# 8 texture coords

g Box1299
s 2
f 57/13/33 58/14/33 59/15/33 60/16/33 
f 58/14/33 61/17/33 62/18/33 59/15/33 
s 4
f 63/16/34 64/13/34 65/14/34 66/15/34 
f 66/15/34 65/14/34 67/17/34 68/18/34 
s 8
f 57/16/35 60/13/35 64/17/35 63/18/35 
s 16
f 60/16/36 59/19/37 65/20/37 64/18/36 
f 59/19/37 62/13/38 67/17/38 65/20/37 
s 32
f 62/16/39 61/13/39 68/17/39 67/18/39 
s 64
f 69/16/40 70/19/40 71/20/40 72/18/40 
f 58/19/41 57/13/41 63/17/41 66/20/41 
s off
f 61/16/42 58/19/42 73/19/42 74/16/42 
f 66/20/43 68/18/43 75/18/43 76/20/43 
f 68/18/44 61/16/44 74/16/44 75/18/44 
f 58/19/45 66/20/45 76/20/45 73/19/45 
f 74/16/33 73/19/33 70/19/33 69/16/33 
f 77/19/46 78/20/46 79/20/46 80/19/46 
f 76/20/34 75/18/34 72/18/34 71/20/34 
f 75/18/47 74/16/47 69/16/47 72/18/47 
f 71/20/41 70/19/41 80/19/41 79/20/41 
f 81/19/36 82/20/36 83/20/36 84/19/36 
f 70/19/33 73/19/33 77/19/33 80/19/33 
f 76/20/34 71/20/34 79/20/34 78/20/34 
f 73/19/44 76/20/44 82/20/44 81/19/44 
f 78/20/45 77/19/45 84/19/45 83/20/45 
f 76/20/48 78/20/48 83/20/48 82/20/48 
f 77/19/49 73/19/49 81/19/49 84/19/49 
# 26 polygons

#
# object Box1300
#

v  1580.3815 1582.8516 1177.4537
v  1635.8007 1582.8516 1173.2865
v  1642.1166 1582.8516 1263.6085
v  1586.6974 1582.8516 1267.7758
v  1705.0449 1582.8516 1169.5640
v  1711.3608 1582.8516 1259.8861
v  1580.3815 1604.8998 1177.4537
v  1586.6974 1604.8998 1267.7758
v  1642.1166 1604.8998 1263.6085
v  1635.8007 1604.8998 1173.2865
v  1711.3608 1604.8998 1259.8861
v  1705.0449 1604.8998 1169.5640
v  1692.2888 1682.5251 978.6560
v  1623.0446 1682.5251 982.3785
v  1623.0446 1704.5734 982.3785
v  1692.2888 1704.5734 978.6560
v  1626.6365 1682.5251 1043.2059
v  1695.8807 1682.5251 1039.4834
v  1695.8807 1704.5734 1039.4834
v  1626.6365 1704.5734 1043.2059
v  1571.0590 1682.5251 1047.3843
v  1571.0590 1704.5734 1047.3843
v  1567.4670 1704.5734 986.5568
v  1567.4670 1682.5251 986.5568
v  1635.8049 1789.2762 1173.3473
v  1635.8049 1811.3245 1173.3473
v  1580.2274 1811.3245 1177.5256
v  1580.2274 1789.2762 1177.5256
# 28 vertices

vn 0.0000 -1.0000 -0.0000
vn -0.0000 1.0000 0.0000
vn -0.9976 -0.0000 0.0698
vn 0.0750 0.0000 0.9972
vn 0.0643 -0.0000 0.9979
vn 0.0537 -0.0000 0.9986
vn 0.9976 0.0000 -0.0698
vn -0.0537 0.0000 -0.9986
vn -0.0750 -0.0000 -0.9972
vn -0.0396 -0.6753 -0.7364
vn 0.0396 0.6753 0.7364
vn 0.9975 0.0000 -0.0703
vn -0.9975 -0.0000 0.0703
vn -0.9983 -0.0000 0.0589
vn 0.9983 0.0000 -0.0589
vn -0.0570 0.6501 -0.7577
vn 0.0570 -0.6501 0.7577
# 17 vertex normals

vt 1.0000 0.0000 0.0000
vt 1.0000 0.5000 0.0000
vt 0.0000 0.5000 0.0000
vt 0.0000 0.0000 0.0000
vt 1.0000 1.0000 0.0000
vt 0.0000 1.0000 0.0000
vt 0.5000 0.0000 0.0000
vt 0.5000 1.0000 0.0000
# 8 texture coords

g Box1300
s 2
f 85/21/50 86/22/50 87/23/50 88/24/50 
f 86/22/50 89/25/50 90/26/50 87/23/50 
s 4
f 91/24/51 92/21/51 93/22/51 94/23/51 
f 94/23/51 93/22/51 95/25/51 96/26/51 
s 8
f 85/24/52 88/21/52 92/25/52 91/26/52 
s 16
f 88/24/53 87/27/54 93/28/54 92/26/53 
f 87/27/54 90/21/55 95/25/55 93/28/54 
s 32
f 90/24/56 89/21/56 96/25/56 95/26/56 
s 64
f 97/24/57 98/27/57 99/28/57 100/26/57 
f 86/27/58 85/21/58 91/25/58 94/28/58 
s off
f 89/24/59 86/27/59 101/27/59 102/24/59 
f 94/28/60 96/26/60 103/26/60 104/28/60 
f 96/26/61 89/24/61 102/24/61 103/26/61 
f 86/27/62 94/28/62 104/28/62 101/27/62 
f 102/24/50 101/27/50 98/27/50 97/24/50 
f 105/27/63 106/28/63 107/28/63 108/27/63 
f 104/28/51 103/26/51 100/26/51 99/28/51 
f 103/26/64 102/24/64 97/24/64 100/26/64 
f 99/28/58 98/27/58 108/27/58 107/28/58 
f 109/27/53 110/28/53 111/28/53 112/27/53 
f 98/27/50 101/27/50 105/27/50 108/27/50 
f 104/28/51 99/28/51 107/28/51 106/28/51 
f 101/27/61 104/28/61 110/28/61 109/27/61 
f 106/28/62 105/27/62 112/27/62 111/28/62 
f 104/28/65 106/28/65 111/28/65 110/28/65 
f 105/27/66 101/27/66 109/27/66 112/27/66 
# 26 polygons

#
# object Box1314
#

v  1551.8811 1582.8521 684.1346
v  1551.8811 1582.8521 648.7015
v  1587.3142 1582.8521 648.7015
v  1587.3142 1582.8521 684.1346
v  1551.8811 1782.9640 684.1346
v  1587.3142 1782.9640 684.1346
v  1587.3142 1782.9640 648.7015
v  1551.8811 1782.9640 648.7015
# 8 vertices

vn 0.0000 -1.0000 -0.0000
vn 0.0000 1.0000 -0.0000
vn 0.0000 0.0000 1.0000
vn 1.0000 0.0000 -0.0000
vn 0.0000 0.0000 -1.0000
vn -1.0000 0.0000 -0.0000
# 6 vertex normals

vt 1.0000 0.0000 0.0000
vt 1.0000 1.0000 0.0000
vt 0.0000 1.0000 0.0000
vt 0.0000 0.0000 0.0000
# 4 texture coords

g Box1314
s 2
f 113/29/67 114/30/67 115/31/67 116/32/67 
s 4
f 117/32/68 118/29/68 119/30/68 120/31/68 
s 8
f 113/32/69 116/29/69 118/30/69 117/31/69 
s 16
f 116/32/70 115/29/70 119/30/70 118/31/70 
s 32
f 115/32/71 114/29/71 120/30/71 119/31/71 
s 64
f 114/32/72 113/29/72 117/30/72 120/31/72 
# 6 polygons

#
# object Box1315
#

v  1189.7092 1582.8521 702.5878
v  1189.7092 1582.8521 667.1547
v  1225.1423 1582.8521 667.1547
v  1225.1423 1582.8521 702.5878
v  1189.7092 1782.9640 702.5878
v  1225.1423 1782.9640 702.5878
v  1225.1423 1782.9640 667.1547
v  1189.7092 1782.9640 667.1547
# 8 vertices

vn 0.0000 -1.0000 -0.0000
vn 0.0000 1.0000 -0.0000
vn 0.0000 0.0000 1.0000
vn 1.0000 0.0000 -0.0000
vn 0.0000 0.0000 -1.0000
vn -1.0000 0.0000 -0.0000
# 6 vertex normals

vt 1.0000 0.0000 0.0000
vt 1.0000 1.0000 0.0000
vt 0.0000 1.0000 0.0000
vt 0.0000 0.0000 0.0000
# 4 texture coords

g Box1315
s 2
f 121/33/73 122/34/73 123/35/73 124/36/73 
s 4
f 125/36/74 126/33/74 127/34/74 128/35/74 
s 8
f 121/36/75 124/33/75 126/34/75 125/35/75 
s 16
f 124/36/76 123/33/76 127/34/76 126/35/76 
s 32
f 123/36/77 122/33/77 128/34/77 127/35/77 
s 64
f 122/36/78 121/33/78 125/34/78 128/35/78 
# 6 polygons

#
# object Box1316
#

v  2248.2131 1582.8521 632.5917
v  2248.2131 1582.8521 597.1586
v  2283.6462 1582.8521 597.1586
v  2283.6462 1582.8521 632.5917
v  2248.2131 1782.9640 632.5917
v  2283.6462 1782.9640 632.5917
v  2283.6462 1782.9640 597.1586
v  2248.2131 1782.9640 597.1586
# 8 vertices

vn 0.0000 -1.0000 -0.0000
vn 0.0000 1.0000 -0.0000
vn 0.0000 0.0000 1.0000
vn 1.0000 0.0000 -0.0000
vn 0.0000 0.0000 -1.0000
vn -1.0000 0.0000 -0.0000
# 6 vertex normals

vt 1.0000 0.0000 0.0000
vt 1.0000 1.0000 0.0000
vt 0.0000 1.0000 0.0000
vt 0.0000 0.0000 0.0000
# 4 texture coords

g Box1316
s 2
f 129/37/79 130/38/79 131/39/79 132/40/79 
s 4
f 133/40/80 134/37/80 135/38/80 136/39/80 
s 8
f 129/40/81 132/37/81 134/38/81 133/39/81 
s 16
f 132/40/82 131/37/82 135/38/82 134/39/82 
s 32
f 131/40/83 130/37/83 136/38/83 135/39/83 
s 64
f 130/40/84 129/37/84 133/38/84 136/39/84 
# 6 polygons

#
# object Box1317
#

v  1896.4868 1582.8521 664.1464
v  1896.4868 1582.8521 628.7133
v  1931.9199 1582.8521 628.7133
v  1931.9199 1582.8521 664.1464
v  1896.4868 1782.9640 664.1464
v  1931.9199 1782.9640 664.1464
v  1931.9199 1782.9640 628.7133
v  1896.4868 1782.9640 628.7133
# 8 vertices

vn 0.0000 -1.0000 -0.0000
vn 0.0000 1.0000 -0.0000
vn 0.0000 0.0000 1.0000
vn 1.0000 0.0000 -0.0000
vn 0.0000 0.0000 -1.0000
vn -1.0000 0.0000 -0.0000
# 6 vertex normals

vt 1.0000 0.0000 0.0000
vt 1.0000 1.0000 0.0000
vt 0.0000 1.0000 0.0000
vt 0.0000 0.0000 0.0000
# 4 texture coords

g Box1317
s 2
f 137/41/85 138/42/85 139/43/85 140/44/85 
s 4
f 141/44/86 142/41/86 143/42/86 144/43/86 
s 8
f 137/44/87 140/41/87 142/42/87 141/43/87 
s 16
f 140/44/88 139/41/88 143/42/88 142/43/88 
s 32
f 139/44/89 138/41/89 144/42/89 143/43/89 
s 64
f 138/44/90 137/41/90 141/42/90 144/43/90 
# 6 polygons

#
# object Box1318
#

v  1562.4514 1582.8521 1021.7911
v  1562.4514 1582.8521 986.3580
v  1597.8845 1582.8521 986.3580
v  1597.8845 1582.8521 1021.7911
v  1562.4514 1782.9640 1021.7911
v  1597.8845 1782.9640 1021.7911
v  1597.8845 1782.9640 986.3580
v  1562.4514 1782.9640 986.3580
# 8 vertices

vn 0.0000 -1.0000 -0.0000
vn 0.0000 1.0000 -0.0000
vn 0.0000 0.0000 1.0000
vn 1.0000 0.0000 -0.0000
vn 0.0000 0.0000 -1.0000
vn -1.0000 0.0000 -0.0000
# 6 vertex normals

vt 1.0000 0.0000 0.0000
vt 1.0000 1.0000 0.0000
vt 0.0000 1.0000 0.0000
vt 0.0000 0.0000 0.0000
# 4 texture coords

g Box1318
s 2
f 145/45/91 146/46/91 147/47/91 148/48/91 
s 4
f 149/48/92 150/45/92 151/46/92 152/47/92 
s 8
f 145/48/93 148/45/93 150/46/93 149/47/93 
s 16
f 148/48/94 147/45/94 151/46/94 150/47/94 
s 32
f 147/48/95 146/45/95 152/46/95 151/47/95 
s 64
f 146/48/96 145/45/96 149/46/96 152/47/96 
# 6 polygons

#
# object Box1319
#

v  2258.7913 1582.8521 970.2501
v  2258.7913 1582.8521 934.8170
v  2294.2244 1582.8521 934.8170
v  2294.2244 1582.8521 970.2501
v  2258.7913 1782.9640 970.2501
v  2294.2244 1782.9640 970.2501
v  2294.2244 1782.9640 934.8170
v  2258.7913 1782.9640 934.8170
# 8 vertices

vn 0.0000 -1.0000 -0.0000
vn 0.0000 1.0000 -0.0000
vn 0.0000 0.0000 1.0000
vn 1.0000 0.0000 -0.0000
vn 0.0000 0.0000 -1.0000
vn -1.0000 0.0000 -0.0000
# 6 vertex normals

vt 1.0000 0.0000 0.0000
vt 1.0000 1.0000 0.0000
vt 0.0000 1.0000 0.0000
vt 0.0000 0.0000 0.0000
# 4 texture coords

g Box1319
s 2
f 153/49/97 154/50/97 155/51/97 156/52/97 
s 4
f 157/52/98 158/49/98 159/50/98 160/51/98 
s 8
f 153/52/99 156/49/99 158/50/99 157/51/99 
s 16
f 156/52/100 155/49/100 159/50/100 158/51/100 
s 32
f 155/52/101 154/49/101 160/50/101 159/51/101 
s 64
f 154/52/102 153/49/102 157/50/102 160/51/102 
# 6 polygons

#
# object Box1320
#

v  1907.0571 1582.8521 1001.8029
v  1907.0571 1582.8521 966.3698
v  1942.4902 1582.8521 966.3698
v  1942.4902 1582.8521 1001.8029
v  1907.0571 1782.9640 1001.8029
v  1942.4902 1782.9640 1001.8029
v  1942.4902 1782.9640 966.3698
v  1907.0571 1782.9640 966.3698
# 8 vertices

vn 0.0000 -1.0000 -0.0000
vn 0.0000 1.0000 -0.0000
vn 0.0000 0.0000 1.0000
vn 1.0000 0.0000 -0.0000
vn 0.0000 0.0000 -1.0000
vn -1.0000 0.0000 -0.0000
# 6 vertex normals

vt 1.0000 0.0000 0.0000
vt 1.0000 1.0000 0.0000
vt 0.0000 1.0000 0.0000
vt 0.0000 0.0000 0.0000
# 4 texture coords

g Box1320
s 2
f 161/53/103 162/54/103 163/55/103 164/56/103 
s 4
f 165/56/104 166/53/104 167/54/104 168/55/104 
s 8
f 161/56/105 164/53/105 166/54/105 165/55/105 
s 16
f 164/56/106 163/53/106 167/54/106 166/55/106 
s 32
f 163/56/107 162/53/107 168/54/107 167/55/107 
s 64
f 162/56/108 161/53/108 165/54/108 168/55/108 
# 6 polygons

#
# object Box1321
#

v  1214.3694 1582.8521 1388.7128
v  1214.3694 1582.8521 1353.2797
v  1249.8025 1582.8521 1353.2797
v  1249.8025 1582.8521 1388.7128
v  1214.3694 1782.9640 1388.7128
v  1249.8025 1782.9640 1388.7128
v  1249.8025 1782.9640 1353.2797
v  1214.3694 1782.9640 1353.2797
# 8 vertices

vn 0.0000 -1.0000 -0.0000
vn 0.0000 1.0000 -0.0000
vn 0.0000 0.0000 1.0000
vn 1.0000 0.0000 -0.0000
vn 0.0000 0.0000 -1.0000
vn -1.0000 0.0000 -0.0000
# 6 vertex normals

vt 1.0000 0.0000 0.0000
vt 1.0000 1.0000 0.0000
vt 0.0000 1.0000 0.0000
vt 0.0000 0.0000 0.0000
# 4 texture coords

g Box1321
s 2
f 169/57/109 170/58/109 171/59/109 172/60/109 
s 4
f 173/60/110 174/57/110 175/58/110 176/59/110 
s 8
f 169/60/111 172/57/111 174/58/111 173/59/111 
s 16
f 172/60/112 171/57/112 175/58/112 174/59/112 
s 32
f 171/60/113 170/57/113 176/58/113 175/59/113 
s 64
f 170/60/114 169/57/114 173/58/114 176/59/114 
# 6 polygons

#
# object Box1322
#

v  2272.8772 1582.8521 1318.7206
v  2272.8772 1582.8521 1283.2875
v  2308.3103 1582.8521 1283.2875
v  2308.3103 1582.8521 1318.7206
v  2272.8772 1782.9640 1318.7206
v  2308.3103 1782.9640 1318.7206
v  2308.3103 1782.9640 1283.2875
v  2272.8772 1782.9640 1283.2875
# 8 vertices

vn 0.0000 -1.0000 -0.0000
vn 0.0000 1.0000 -0.0000
vn 0.0000 0.0000 1.0000
vn 1.0000 0.0000 -0.0000
vn 0.0000 0.0000 -1.0000
vn -1.0000 0.0000 -0.0000
# 6 vertex normals

vt 1.0000 0.0000 0.0000
vt 1.0000 1.0000 0.0000
vt 0.0000 1.0000 0.0000
vt 0.0000 0.0000 0.0000
# 4 texture coords

g Box1322
s 2
f 177/61/115 178/62/115 179/63/115 180/64/115 
s 4
f 181/64/116 182/61/116 183/62/116 184/63/116 
s 8
f 177/64/117 180/61/117 182/62/117 181/63/117 
s 16
f 180/64/118 179/61/118 183/62/118 182/63/118 
s 32
f 179/64/119 178/61/119 184/62/119 183/63/119 
s 64
f 178/64/120 177/61/120 181/62/120 184/63/120 
# 6 polygons

#
# object Box1323
#

v  1921.1509 1582.8521 1350.2714
v  1921.1509 1582.8521 1314.8383
v  1956.5840 1582.8521 1314.8383
v  1956.5840 1582.8521 1350.2714
v  1921.1509 1782.9640 1350.2714
v  1956.5840 1782.9640 1350.2714
v  1956.5840 1782.9640 1314.8383
v  1921.1509 1782.9640 1314.8383
# 8 vertices

vn 0.0000 -1.0000 -0.0000
vn 0.0000 1.0000 -0.0000
vn 0.0000 0.0000 1.0000
vn 1.0000 0.0000 -0.0000
vn 0.0000 0.0000 -1.0000
vn -1.0000 0.0000 -0.0000
# 6 vertex normals

vt 1.0000 0.0000 0.0000
vt 1.0000 1.0000 0.0000
vt 0.0000 1.0000 0.0000
vt 0.0000 0.0000 0.0000
# 4 texture coords

g Box1323
s 2
f 185/65/121 186/66/121 187/67/121 188/68/121 
s 4
f 189/68/122 190/65/122 191/66/122 192/67/122 
s 8
f 185/68/123 188/65/123 190/66/123 189/67/123 
s 16
f 188/68/124 187/65/124 191/66/124 190/67/124 
s 32
f 187/68/125 186/65/125 192/66/125 191/67/125 
s 64
f 186/68/126 185/65/126 189/66/126 192/67/126 
# 6 polygons

#
# object Box1324
#

v  1944.1353 1582.8521 1746.5682
v  1944.1353 1582.8521 1711.1351
v  1979.5684 1582.8521 1711.1351
v  1979.5684 1582.8521 1746.5682
v  1944.1353 1782.9640 1746.5682
v  1979.5684 1782.9640 1746.5682
v  1979.5684 1782.9640 1711.1351
v  1944.1353 1782.9640 1711.1351
# 8 vertices

vn 0.0000 -1.0000 -0.0000
vn 0.0000 1.0000 -0.0000
vn 0.0000 0.0000 1.0000
vn 1.0000 0.0000 -0.0000
vn 0.0000 0.0000 -1.0000
vn -1.0000 0.0000 -0.0000
# 6 vertex normals

vt 1.0000 0.0000 0.0000
vt 1.0000 1.0000 0.0000
vt 0.0000 1.0000 0.0000
vt 0.0000 0.0000 0.0000
# 4 texture coords

g Box1324
s 2
f 193/69/127 194/70/127 195/71/127 196/72/127 
s 4
f 197/72/128 198/69/128 199/70/128 200/71/128 
s 8
f 193/72/129 196/69/129 198/70/129 197/71/129 
s 16
f 196/72/130 195/69/130 199/70/130 198/71/130 
s 32
f 195/72/131 194/69/131 200/70/131 199/71/131 
s 64
f 194/72/132 193/69/132 197/70/132 200/71/132 
# 6 polygons

#
# object Box1325
#

v  2297.7756 1582.8521 1725.5604
v  2297.7756 1582.8521 1690.1273
v  2333.2087 1582.8521 1690.1273
v  2333.2087 1582.8521 1725.5604
v  2297.7756 1782.9640 1725.5604
v  2333.2087 1782.9640 1725.5604
v  2333.2087 1782.9640 1690.1273
v  2297.7756 1782.9640 1690.1273
# 8 vertices

vn 0.0000 -1.0000 -0.0000
vn 0.0000 1.0000 -0.0000
vn 0.0000 0.0000 1.0000
vn 1.0000 0.0000 -0.0000
vn 0.0000 0.0000 -1.0000
vn -1.0000 0.0000 -0.0000
# 6 vertex normals

vt 1.0000 0.0000 0.0000
vt 1.0000 1.0000 0.0000
vt 0.0000 1.0000 0.0000
vt 0.0000 0.0000 0.0000
# 4 texture coords

g Box1325
s 2
f 201/73/133 202/74/133 203/75/133 204/76/133 
s 4
f 205/76/134 206/73/134 207/74/134 208/75/134 
s 8
f 201/76/135 204/73/135 206/74/135 205/75/135 
s 16
f 204/76/136 203/73/136 207/74/136 206/75/136 
s 32
f 203/76/137 202/73/137 208/74/137 207/75/137 
s 64
f 202/76/138 201/73/138 205/74/138 208/75/138 
# 6 polygons

#
# object Box1326
#

v  1594.1077 1582.8521 1766.5721
v  1594.1077 1582.8521 1731.1390
v  1629.5408 1582.8521 1731.1390
v  1629.5408 1582.8521 1766.5721
v  1594.1077 1782.9640 1766.5721
v  1629.5408 1782.9640 1766.5721
v  1629.5408 1782.9640 1731.1390
v  1594.1077 1782.9640 1731.1390
# 8 vertices

vn 0.0000 -1.0000 -0.0000
vn 0.0000 1.0000 -0.0000
vn 0.0000 0.0000 1.0000
vn 1.0000 0.0000 -0.0000
vn 0.0000 0.0000 -1.0000
vn -1.0000 0.0000 -0.0000
# 6 vertex normals

vt 1.0000 0.0000 0.0000
vt 1.0000 1.0000 0.0000
vt 0.0000 1.0000 0.0000
vt 0.0000 0.0000 0.0000
# 4 texture coords

g Box1326
s 2
f 209/77/139 210/78/139 211/79/139 212/80/139 
s 4
f 213/80/140 214/77/140 215/78/140 216/79/140 
s 8
f 209/80/141 212/77/141 214/78/141 213/79/141 
s 16
f 212/80/142 211/77/142 215/78/142 214/79/142 
s 32
f 211/80/143 210/77/143 216/78/143 215/79/143 
s 64
f 210/80/144 209/77/144 213/78/144 216/79/144 
# 6 polygons

