# 3ds Max Wavefront OBJ Exporter v0.97b - (c)2007 guruware
# File Created: 28.10.2017 11:16:14

#
# object Line07
#

v  1936.2273 381.2906 1279.3713
v  1820.7747 381.2906 1286.5232
v  1820.7747 409.6088 1286.5232
v  1936.2273 409.6088 1279.3713
v  1801.0934 381.2906 967.8311
v  1801.0934 409.6088 967.8311
v  1917.4729 381.2906 959.6677
v  1917.4729 409.6088 959.6677
v  1711.5125 381.2906 1258.1510
v  1586.5190 381.2906 1265.5452
v  1586.5190 409.6088 1265.5452
v  1711.5125 409.6088 1258.1510
v  1567.5546 381.2906 985.8322
v  1567.5546 409.6088 985.8322
v  1692.5480 381.2906 978.4380
v  1692.5480 409.6088 978.4380
v  1352.1162 381.2906 1279.8878
v  1227.1228 381.2906 1287.2820
v  1227.1228 409.6088 1287.2820
v  1352.1162 409.6088 1279.8878
v  1208.1583 381.2906 1007.5690
v  1208.1583 409.6088 1007.5690
v  1333.1517 381.2906 1000.1748
v  1333.1517 409.6088 1000.1748
v  1162.3250 381.2906 644.5475
v  1233.3860 381.2906 1806.9814
v  1233.3860 409.6088 1806.9814
v  1162.3250 409.6088 644.5475
v  2400.4644 381.2906 1735.6068
v  2400.4644 409.6088 1735.6068
v  2329.1392 381.2906 568.4521
v  2329.1392 409.6088 568.4521
# 32 vertices

vn -0.0618 0.0000 -0.9981
vn 0.9981 0.0000 -0.0616
vn 0.0700 0.0000 0.9975
vn -0.9983 0.0000 0.0586
vn -0.0591 0.0000 -0.9983
vn 0.9977 0.0000 -0.0676
vn 0.0591 0.0000 0.9983
vn -0.9977 0.0000 0.0676
vn -0.9981 0.0000 0.0610
vn 0.0610 0.0000 0.9981
vn 0.9981 0.0000 -0.0610
vn -0.0651 0.0000 -0.9979
vn 0.0000 -1.0000 -0.0000
vn 0.0000 1.0000 -0.0000
# 14 vertex normals

g Line07
s 1
f 1//1 2//1 3//1 4//1 
s 4
f 2//2 5//2 6//2 3//2 
s 2
f 5//3 7//3 8//3 6//3 
s 4
f 7//4 1//4 4//4 8//4 
s 1
f 9//5 10//5 11//5 12//5 
s 4
f 10//6 13//6 14//6 11//6 
s 2
f 13//7 15//7 16//7 14//7 
s 4
f 15//8 9//8 12//8 16//8 
s 1
f 17//5 18//5 19//5 20//5 
s 4
f 18//6 21//6 22//6 19//6 
s 2
f 21//7 23//7 24//7 22//7 
s 4
f 23//8 17//8 20//8 24//8 
s 1
f 25//9 26//9 27//9 28//9 
s 4
f 26//10 29//10 30//10 27//10 
s 2
f 29//11 31//11 32//11 30//11 
s 4
f 31//12 25//12 28//12 32//12 
s 16
f 31//13 7//13 5//13 25//13 
f 29//13 1//13 7//13 31//13 
f 26//13 2//13 1//13 29//13 
f 26//13 10//13 9//13 2//13 
f 26//13 18//13 17//13 10//13 
f 9//13 15//13 5//13 2//13 
f 15//13 13//13 25//13 5//13 
f 25//13 21//13 18//13 26//13 
f 13//13 23//13 21//13 25//13 
f 13//13 10//13 17//13 23//13 
f 32//14 28//14 16//14 6//14 
f 32//14 6//14 8//14 30//14 
f 30//14 8//14 4//14 27//14 
f 27//14 4//14 3//14 12//14 
f 27//14 12//14 11//14 20//14 
f 12//14 3//14 6//14 16//14 
f 14//14 16//14 28//14 22//14 
f 27//14 20//14 19//14 28//14 
f 28//14 19//14 22//14 
f 14//14 22//14 24//14 20//14 
f 11//14 14//14 20//14 
# 35 polygons - 2 triangles

#
# object Box1083
#

v  1576.5413 381.2908 1370.2595
v  1576.5413 381.2908 1334.8264
v  1611.9744 381.2908 1334.8264
v  1611.9744 381.2908 1370.2595
v  1576.5413 581.4028 1370.2595
v  1611.9744 581.4028 1370.2595
v  1611.9744 581.4028 1334.8264
v  1576.5413 581.4028 1334.8264
# 8 vertices

vn 0.0000 -1.0000 -0.0000
vn 0.0000 1.0000 -0.0000
vn 0.0000 0.0000 1.0000
vn 1.0000 0.0000 -0.0000
vn 0.0000 0.0000 -1.0000
vn -1.0000 0.0000 -0.0000
# 6 vertex normals

vt 1.0000 0.0000 0.0000
vt 1.0000 1.0000 0.0000
vt 0.0000 1.0000 0.0000
vt 0.0000 0.0000 0.0000
# 4 texture coords

g Box1083
s 2
f 33/1/15 34/2/15 35/3/15 36/4/15 
s 4
f 37/4/16 38/1/16 39/2/16 40/3/16 
s 8
f 33/4/17 36/1/17 38/2/17 37/3/17 
s 16
f 36/4/18 35/1/18 39/2/18 38/3/18 
s 32
f 35/4/19 34/1/19 40/2/19 39/3/19 
s 64
f 34/4/20 33/1/20 37/2/20 40/3/20 
# 6 polygons

#
# object Box1084
#

v  1220.8221 381.2904 1198.8035
v  1276.2413 381.2904 1194.6362
v  1282.5573 381.2904 1284.9583
v  1227.1381 381.2904 1289.1255
v  1345.4856 381.2904 1190.9137
v  1351.8015 381.2904 1281.2358
v  1220.8221 403.3386 1198.8035
v  1227.1381 403.3386 1289.1255
v  1282.5573 403.3386 1284.9583
v  1276.2413 403.3386 1194.6362
v  1351.8015 403.3386 1281.2358
v  1345.4856 403.3386 1190.9137
v  1332.7295 480.9640 1000.0057
v  1263.4852 480.9640 1003.7282
v  1263.4852 503.0121 1003.7282
v  1332.7295 503.0121 1000.0057
v  1267.0771 480.9640 1064.5557
v  1336.3214 480.9640 1060.8331
v  1336.3214 503.0121 1060.8331
v  1267.0771 503.0121 1064.5557
v  1211.4996 480.9640 1068.7340
v  1211.4996 503.0121 1068.7340
v  1207.9077 503.0121 1007.9065
v  1207.9077 480.9640 1007.9065
v  1276.2456 587.7151 1194.6970
v  1276.2456 609.7633 1194.6970
v  1220.6681 609.7633 1198.8754
v  1220.6681 587.7151 1198.8754
# 28 vertices

vn 0.0000 -1.0000 -0.0000
vn -0.0000 1.0000 0.0000
vn -0.9976 -0.0000 0.0698
vn 0.0750 0.0000 0.9972
vn 0.0643 -0.0000 0.9979
vn 0.0537 -0.0000 0.9986
vn 0.9976 0.0000 -0.0698
vn -0.0537 0.0000 -0.9986
vn -0.0750 -0.0000 -0.9972
vn -0.0396 -0.6753 -0.7364
vn 0.0396 0.6753 0.7364
vn 0.9975 0.0000 -0.0703
vn -0.9975 -0.0000 0.0703
vn -0.9983 -0.0000 0.0589
vn 0.9983 0.0000 -0.0589
vn -0.0570 0.6501 -0.7577
vn 0.0570 -0.6501 0.7577
# 17 vertex normals

vt 1.0000 0.0000 0.0000
vt 1.0000 0.5000 0.0000
vt 0.0000 0.5000 0.0000
vt 0.0000 0.0000 0.0000
vt 1.0000 1.0000 0.0000
vt 0.0000 1.0000 0.0000
vt 0.5000 0.0000 0.0000
vt 0.5000 1.0000 0.0000
# 8 texture coords

g Box1084
s 2
f 41/5/21 42/6/21 43/7/21 44/8/21 
f 42/6/21 45/9/21 46/10/21 43/7/21 
s 4
f 47/8/22 48/5/22 49/6/22 50/7/22 
f 50/7/22 49/6/22 51/9/22 52/10/22 
s 8
f 41/8/23 44/5/23 48/9/23 47/10/23 
s 16
f 44/8/24 43/11/25 49/12/25 48/10/24 
f 43/11/25 46/5/26 51/9/26 49/12/25 
s 32
f 46/8/27 45/5/27 52/9/27 51/10/27 
s 64
f 53/8/28 54/11/28 55/12/28 56/10/28 
f 42/11/29 41/5/29 47/9/29 50/12/29 
s off
f 45/8/30 42/11/30 57/11/30 58/8/30 
f 50/12/31 52/10/31 59/10/31 60/12/31 
f 52/10/32 45/8/32 58/8/32 59/10/32 
f 42/11/33 50/12/33 60/12/33 57/11/33 
f 58/8/21 57/11/21 54/11/21 53/8/21 
f 61/11/34 62/12/34 63/12/34 64/11/34 
f 60/12/22 59/10/22 56/10/22 55/12/22 
f 59/10/35 58/8/35 53/8/35 56/10/35 
f 55/12/29 54/11/29 64/11/29 63/12/29 
f 65/11/24 66/12/24 67/12/24 68/11/24 
f 54/11/21 57/11/21 61/11/21 64/11/21 
f 60/12/22 55/12/22 63/12/22 62/12/22 
f 57/11/32 60/12/32 66/12/32 65/11/32 
f 62/12/33 61/11/33 68/11/33 67/12/33 
f 60/12/36 62/12/36 67/12/36 66/12/36 
f 61/11/37 57/11/37 65/11/37 68/11/37 
# 26 polygons

#
# object Box1085
#

v  1580.3815 381.2904 1177.4536
v  1635.8007 381.2904 1173.2864
v  1642.1166 381.2904 1263.6084
v  1586.6974 381.2904 1267.7756
v  1705.0449 381.2904 1169.5638
v  1711.3608 381.2904 1259.8860
v  1580.3815 403.3386 1177.4536
v  1586.6974 403.3386 1267.7756
v  1642.1166 403.3386 1263.6084
v  1635.8007 403.3386 1173.2864
v  1711.3608 403.3386 1259.8860
v  1705.0449 403.3386 1169.5638
v  1692.2888 480.9640 978.6559
v  1623.0446 480.9640 982.3784
v  1623.0446 503.0121 982.3784
v  1692.2888 503.0121 978.6559
v  1626.6365 480.9640 1043.2058
v  1695.8807 480.9640 1039.4833
v  1695.8807 503.0121 1039.4833
v  1626.6365 503.0121 1043.2058
v  1571.0590 480.9640 1047.3842
v  1571.0590 503.0121 1047.3842
v  1567.4670 503.0121 986.5566
v  1567.4670 480.9640 986.5566
v  1635.8049 587.7151 1173.3472
v  1635.8049 609.7633 1173.3472
v  1580.2274 609.7633 1177.5255
v  1580.2274 587.7151 1177.5255
# 28 vertices

vn 0.0000 -1.0000 -0.0000
vn -0.0000 1.0000 0.0000
vn -0.9976 -0.0000 0.0698
vn 0.0750 0.0000 0.9972
vn 0.0643 -0.0000 0.9979
vn 0.0537 -0.0000 0.9986
vn 0.9976 0.0000 -0.0698
vn -0.0537 0.0000 -0.9986
vn -0.0750 -0.0000 -0.9972
vn -0.0396 -0.6753 -0.7364
vn 0.0396 0.6753 0.7364
vn 0.9975 0.0000 -0.0703
vn -0.9975 -0.0000 0.0703
vn -0.9983 -0.0000 0.0589
vn 0.9983 0.0000 -0.0589
vn -0.0570 0.6501 -0.7577
vn 0.0570 -0.6501 0.7577
# 17 vertex normals

vt 1.0000 0.0000 0.0000
vt 1.0000 0.5000 0.0000
vt 0.0000 0.5000 0.0000
vt 0.0000 0.0000 0.0000
vt 1.0000 1.0000 0.0000
vt 0.0000 1.0000 0.0000
vt 0.5000 0.0000 0.0000
vt 0.5000 1.0000 0.0000
# 8 texture coords

g Box1085
s 2
f 69/13/38 70/14/38 71/15/38 72/16/38 
f 70/14/38 73/17/38 74/18/38 71/15/38 
s 4
f 75/16/39 76/13/39 77/14/39 78/15/39 
f 78/15/39 77/14/39 79/17/39 80/18/39 
s 8
f 69/16/40 72/13/40 76/17/40 75/18/40 
s 16
f 72/16/41 71/19/42 77/20/42 76/18/41 
f 71/19/42 74/13/43 79/17/43 77/20/42 
s 32
f 74/16/44 73/13/44 80/17/44 79/18/44 
s 64
f 81/16/45 82/19/45 83/20/45 84/18/45 
f 70/19/46 69/13/46 75/17/46 78/20/46 
s off
f 73/16/47 70/19/47 85/19/47 86/16/47 
f 78/20/48 80/18/48 87/18/48 88/20/48 
f 80/18/49 73/16/49 86/16/49 87/18/49 
f 70/19/50 78/20/50 88/20/50 85/19/50 
f 86/16/38 85/19/38 82/19/38 81/16/38 
f 89/19/51 90/20/51 91/20/51 92/19/51 
f 88/20/39 87/18/39 84/18/39 83/20/39 
f 87/18/52 86/16/52 81/16/52 84/18/52 
f 83/20/46 82/19/46 92/19/46 91/20/46 
f 93/19/41 94/20/41 95/20/41 96/19/41 
f 82/19/38 85/19/38 89/19/38 92/19/38 
f 88/20/39 83/20/39 91/20/39 90/20/39 
f 85/19/49 88/20/49 94/20/49 93/19/49 
f 90/20/50 89/19/50 96/19/50 95/20/50 
f 88/20/53 90/20/53 95/20/53 94/20/53 
f 89/19/54 85/19/54 93/19/54 96/19/54 
# 26 polygons

#
# object Box1102
#

v  1551.8811 381.2908 684.1345
v  1551.8811 381.2908 648.7014
v  1587.3142 381.2908 648.7014
v  1587.3142 381.2908 684.1345
v  1551.8811 581.4028 684.1345
v  1587.3142 581.4028 684.1345
v  1587.3142 581.4028 648.7014
v  1551.8811 581.4028 648.7014
# 8 vertices

vn 0.0000 -1.0000 -0.0000
vn 0.0000 1.0000 -0.0000
vn 0.0000 0.0000 1.0000
vn 1.0000 0.0000 -0.0000
vn 0.0000 0.0000 -1.0000
vn -1.0000 0.0000 -0.0000
# 6 vertex normals

vt 1.0000 0.0000 0.0000
vt 1.0000 1.0000 0.0000
vt 0.0000 1.0000 0.0000
vt 0.0000 0.0000 0.0000
# 4 texture coords

g Box1102
s 2
f 97/21/55 98/22/55 99/23/55 100/24/55 
s 4
f 101/24/56 102/21/56 103/22/56 104/23/56 
s 8
f 97/24/57 100/21/57 102/22/57 101/23/57 
s 16
f 100/24/58 99/21/58 103/22/58 102/23/58 
s 32
f 99/24/59 98/21/59 104/22/59 103/23/59 
s 64
f 98/24/60 97/21/60 101/22/60 104/23/60 
# 6 polygons

#
# object Box1103
#

v  1189.7092 381.2908 702.5876
v  1189.7092 381.2908 667.1545
v  1225.1423 381.2908 667.1545
v  1225.1423 381.2908 702.5876
v  1189.7092 581.4028 702.5876
v  1225.1423 581.4028 702.5876
v  1225.1423 581.4028 667.1545
v  1189.7092 581.4028 667.1545
# 8 vertices

vn 0.0000 -1.0000 -0.0000
vn 0.0000 1.0000 -0.0000
vn 0.0000 0.0000 1.0000
vn 1.0000 0.0000 -0.0000
vn 0.0000 0.0000 -1.0000
vn -1.0000 0.0000 -0.0000
# 6 vertex normals

vt 1.0000 0.0000 0.0000
vt 1.0000 1.0000 0.0000
vt 0.0000 1.0000 0.0000
vt 0.0000 0.0000 0.0000
# 4 texture coords

g Box1103
s 2
f 105/25/61 106/26/61 107/27/61 108/28/61 
s 4
f 109/28/62 110/25/62 111/26/62 112/27/62 
s 8
f 105/28/63 108/25/63 110/26/63 109/27/63 
s 16
f 108/28/64 107/25/64 111/26/64 110/27/64 
s 32
f 107/28/65 106/25/65 112/26/65 111/27/65 
s 64
f 106/28/66 105/25/66 109/26/66 112/27/66 
# 6 polygons

#
# object Box1104
#

v  2248.2131 381.2908 632.5916
v  2248.2131 381.2908 597.1584
v  2283.6462 381.2908 597.1584
v  2283.6462 381.2908 632.5916
v  2248.2131 581.4028 632.5916
v  2283.6462 581.4028 632.5916
v  2283.6462 581.4028 597.1584
v  2248.2131 581.4028 597.1584
# 8 vertices

vn 0.0000 -1.0000 -0.0000
vn 0.0000 1.0000 -0.0000
vn 0.0000 0.0000 1.0000
vn 1.0000 0.0000 -0.0000
vn 0.0000 0.0000 -1.0000
vn -1.0000 0.0000 -0.0000
# 6 vertex normals

vt 1.0000 0.0000 0.0000
vt 1.0000 1.0000 0.0000
vt 0.0000 1.0000 0.0000
vt 0.0000 0.0000 0.0000
# 4 texture coords

g Box1104
s 2
f 113/29/67 114/30/67 115/31/67 116/32/67 
s 4
f 117/32/68 118/29/68 119/30/68 120/31/68 
s 8
f 113/32/69 116/29/69 118/30/69 117/31/69 
s 16
f 116/32/70 115/29/70 119/30/70 118/31/70 
s 32
f 115/32/71 114/29/71 120/30/71 119/31/71 
s 64
f 114/32/72 113/29/72 117/30/72 120/31/72 
# 6 polygons

#
# object Box1105
#

v  1896.4868 381.2908 664.1462
v  1896.4868 381.2908 628.7131
v  1931.9199 381.2908 628.7131
v  1931.9199 381.2908 664.1462
v  1896.4868 581.4028 664.1462
v  1931.9199 581.4028 664.1462
v  1931.9199 581.4028 628.7131
v  1896.4868 581.4028 628.7131
# 8 vertices

vn 0.0000 -1.0000 -0.0000
vn 0.0000 1.0000 -0.0000
vn 0.0000 0.0000 1.0000
vn 1.0000 0.0000 -0.0000
vn 0.0000 0.0000 -1.0000
vn -1.0000 0.0000 -0.0000
# 6 vertex normals

vt 1.0000 0.0000 0.0000
vt 1.0000 1.0000 0.0000
vt 0.0000 1.0000 0.0000
vt 0.0000 0.0000 0.0000
# 4 texture coords

g Box1105
s 2
f 121/33/73 122/34/73 123/35/73 124/36/73 
s 4
f 125/36/74 126/33/74 127/34/74 128/35/74 
s 8
f 121/36/75 124/33/75 126/34/75 125/35/75 
s 16
f 124/36/76 123/33/76 127/34/76 126/35/76 
s 32
f 123/36/77 122/33/77 128/34/77 127/35/77 
s 64
f 122/36/78 121/33/78 125/34/78 128/35/78 
# 6 polygons

#
# object Box1106
#

v  1562.4514 381.2908 1021.7910
v  1562.4514 381.2908 986.3579
v  1597.8845 381.2908 986.3579
v  1597.8845 381.2908 1021.7910
v  1562.4514 581.4028 1021.7910
v  1597.8845 581.4028 1021.7910
v  1597.8845 581.4028 986.3579
v  1562.4514 581.4028 986.3579
# 8 vertices

vn 0.0000 -1.0000 -0.0000
vn 0.0000 1.0000 -0.0000
vn 0.0000 0.0000 1.0000
vn 1.0000 0.0000 -0.0000
vn 0.0000 0.0000 -1.0000
vn -1.0000 0.0000 -0.0000
# 6 vertex normals

vt 1.0000 0.0000 0.0000
vt 1.0000 1.0000 0.0000
vt 0.0000 1.0000 0.0000
vt 0.0000 0.0000 0.0000
# 4 texture coords

g Box1106
s 2
f 129/37/79 130/38/79 131/39/79 132/40/79 
s 4
f 133/40/80 134/37/80 135/38/80 136/39/80 
s 8
f 129/40/81 132/37/81 134/38/81 133/39/81 
s 16
f 132/40/82 131/37/82 135/38/82 134/39/82 
s 32
f 131/40/83 130/37/83 136/38/83 135/39/83 
s 64
f 130/40/84 129/37/84 133/38/84 136/39/84 
# 6 polygons

#
# object Box1107
#

v  1200.2795 381.2908 1040.2441
v  1200.2795 381.2908 1004.8110
v  1235.7126 381.2908 1004.8110
v  1235.7126 381.2908 1040.2441
v  1200.2795 581.4028 1040.2441
v  1235.7126 581.4028 1040.2441
v  1235.7126 581.4028 1004.8110
v  1200.2795 581.4028 1004.8110
# 8 vertices

vn 0.0000 -1.0000 -0.0000
vn 0.0000 1.0000 -0.0000
vn 0.0000 0.0000 1.0000
vn 1.0000 0.0000 -0.0000
vn 0.0000 0.0000 -1.0000
vn -1.0000 0.0000 -0.0000
# 6 vertex normals

vt 1.0000 0.0000 0.0000
vt 1.0000 1.0000 0.0000
vt 0.0000 1.0000 0.0000
vt 0.0000 0.0000 0.0000
# 4 texture coords

g Box1107
s 2
f 137/41/85 138/42/85 139/43/85 140/44/85 
s 4
f 141/44/86 142/41/86 143/42/86 144/43/86 
s 8
f 137/44/87 140/41/87 142/42/87 141/43/87 
s 16
f 140/44/88 139/41/88 143/42/88 142/43/88 
s 32
f 139/44/89 138/41/89 144/42/89 143/43/89 
s 64
f 138/44/90 137/41/90 141/42/90 144/43/90 
# 6 polygons

#
# object Box1108
#

v  2258.7913 381.2908 970.2500
v  2258.7913 381.2908 934.8169
v  2294.2244 381.2908 934.8169
v  2294.2244 381.2908 970.2500
v  2258.7913 581.4028 970.2500
v  2294.2244 581.4028 970.2500
v  2294.2244 581.4028 934.8169
v  2258.7913 581.4028 934.8169
# 8 vertices

vn 0.0000 -1.0000 -0.0000
vn 0.0000 1.0000 -0.0000
vn 0.0000 0.0000 1.0000
vn 1.0000 0.0000 -0.0000
vn 0.0000 0.0000 -1.0000
vn -1.0000 0.0000 -0.0000
# 6 vertex normals

vt 1.0000 0.0000 0.0000
vt 1.0000 1.0000 0.0000
vt 0.0000 1.0000 0.0000
vt 0.0000 0.0000 0.0000
# 4 texture coords

g Box1108
s 2
f 145/45/91 146/46/91 147/47/91 148/48/91 
s 4
f 149/48/92 150/45/92 151/46/92 152/47/92 
s 8
f 145/48/93 148/45/93 150/46/93 149/47/93 
s 16
f 148/48/94 147/45/94 151/46/94 150/47/94 
s 32
f 147/48/95 146/45/95 152/46/95 151/47/95 
s 64
f 146/48/96 145/45/96 149/46/96 152/47/96 
# 6 polygons

#
# object Box1109
#

v  1907.0571 381.2908 1001.8027
v  1907.0571 381.2908 966.3696
v  1942.4902 381.2908 966.3696
v  1942.4902 381.2908 1001.8027
v  1907.0571 581.4028 1001.8027
v  1942.4902 581.4028 1001.8027
v  1942.4902 581.4028 966.3696
v  1907.0571 581.4028 966.3696
# 8 vertices

vn 0.0000 -1.0000 -0.0000
vn 0.0000 1.0000 -0.0000
vn 0.0000 0.0000 1.0000
vn 1.0000 0.0000 -0.0000
vn 0.0000 0.0000 -1.0000
vn -1.0000 0.0000 -0.0000
# 6 vertex normals

vt 1.0000 0.0000 0.0000
vt 1.0000 1.0000 0.0000
vt 0.0000 1.0000 0.0000
vt 0.0000 0.0000 0.0000
# 4 texture coords

g Box1109
s 2
f 153/49/97 154/50/97 155/51/97 156/52/97 
s 4
f 157/52/98 158/49/98 159/50/98 160/51/98 
s 8
f 153/52/99 156/49/99 158/50/99 157/51/99 
s 16
f 156/52/100 155/49/100 159/50/100 158/51/100 
s 32
f 155/52/101 154/49/101 160/50/101 159/51/101 
s 64
f 154/52/102 153/49/102 157/50/102 160/51/102 
# 6 polygons

#
# object Box1110
#

v  1214.3694 381.2908 1388.7126
v  1214.3694 381.2908 1353.2795
v  1249.8025 381.2908 1353.2795
v  1249.8025 381.2908 1388.7126
v  1214.3694 581.4028 1388.7126
v  1249.8025 581.4028 1388.7126
v  1249.8025 581.4028 1353.2795
v  1214.3694 581.4028 1353.2795
# 8 vertices

vn 0.0000 -1.0000 -0.0000
vn 0.0000 1.0000 -0.0000
vn 0.0000 0.0000 1.0000
vn 1.0000 0.0000 -0.0000
vn 0.0000 0.0000 -1.0000
vn -1.0000 0.0000 -0.0000
# 6 vertex normals

vt 1.0000 0.0000 0.0000
vt 1.0000 1.0000 0.0000
vt 0.0000 1.0000 0.0000
vt 0.0000 0.0000 0.0000
# 4 texture coords

g Box1110
s 2
f 161/53/103 162/54/103 163/55/103 164/56/103 
s 4
f 165/56/104 166/53/104 167/54/104 168/55/104 
s 8
f 161/56/105 164/53/105 166/54/105 165/55/105 
s 16
f 164/56/106 163/53/106 167/54/106 166/55/106 
s 32
f 163/56/107 162/53/107 168/54/107 167/55/107 
s 64
f 162/56/108 161/53/108 165/54/108 168/55/108 
# 6 polygons

#
# object Box1111
#

v  2272.8772 381.2908 1318.7205
v  2272.8772 381.2908 1283.2874
v  2308.3103 381.2908 1283.2874
v  2308.3103 381.2908 1318.7205
v  2272.8772 581.4028 1318.7205
v  2308.3103 581.4028 1318.7205
v  2308.3103 581.4028 1283.2874
v  2272.8772 581.4028 1283.2874
# 8 vertices

vn 0.0000 -1.0000 -0.0000
vn 0.0000 1.0000 -0.0000
vn 0.0000 0.0000 1.0000
vn 1.0000 0.0000 -0.0000
vn 0.0000 0.0000 -1.0000
vn -1.0000 0.0000 -0.0000
# 6 vertex normals

vt 1.0000 0.0000 0.0000
vt 1.0000 1.0000 0.0000
vt 0.0000 1.0000 0.0000
vt 0.0000 0.0000 0.0000
# 4 texture coords

g Box1111
s 2
f 169/57/109 170/58/109 171/59/109 172/60/109 
s 4
f 173/60/110 174/57/110 175/58/110 176/59/110 
s 8
f 169/60/111 172/57/111 174/58/111 173/59/111 
s 16
f 172/60/112 171/57/112 175/58/112 174/59/112 
s 32
f 171/60/113 170/57/113 176/58/113 175/59/113 
s 64
f 170/60/114 169/57/114 173/58/114 176/59/114 
# 6 polygons

#
# object Box1112
#

v  1921.1509 381.2908 1350.2712
v  1921.1509 381.2908 1314.8381
v  1956.5840 381.2908 1314.8381
v  1956.5840 381.2908 1350.2712
v  1921.1509 581.4028 1350.2712
v  1956.5840 581.4028 1350.2712
v  1956.5840 581.4028 1314.8381
v  1921.1509 581.4028 1314.8381
# 8 vertices

vn 0.0000 -1.0000 -0.0000
vn 0.0000 1.0000 -0.0000
vn 0.0000 0.0000 1.0000
vn 1.0000 0.0000 -0.0000
vn 0.0000 0.0000 -1.0000
vn -1.0000 0.0000 -0.0000
# 6 vertex normals

vt 1.0000 0.0000 0.0000
vt 1.0000 1.0000 0.0000
vt 0.0000 1.0000 0.0000
vt 0.0000 0.0000 0.0000
# 4 texture coords

g Box1112
s 2
f 177/61/115 178/62/115 179/63/115 180/64/115 
s 4
f 181/64/116 182/61/116 183/62/116 184/63/116 
s 8
f 177/64/117 180/61/117 182/62/117 181/63/117 
s 16
f 180/64/118 179/61/118 183/62/118 182/63/118 
s 32
f 179/64/119 178/61/119 184/62/119 183/63/119 
s 64
f 178/64/120 177/61/120 181/62/120 184/63/120 
# 6 polygons

#
# object Box1113
#

v  1944.1353 381.2908 1746.5681
v  1944.1353 381.2908 1711.1350
v  1979.5684 381.2908 1711.1350
v  1979.5684 381.2908 1746.5681
v  1944.1353 581.4028 1746.5681
v  1979.5684 581.4028 1746.5681
v  1979.5684 581.4028 1711.1350
v  1944.1353 581.4028 1711.1350
# 8 vertices

vn 0.0000 -1.0000 -0.0000
vn 0.0000 1.0000 -0.0000
vn 0.0000 0.0000 1.0000
vn 1.0000 0.0000 -0.0000
vn 0.0000 0.0000 -1.0000
vn -1.0000 0.0000 -0.0000
# 6 vertex normals

vt 1.0000 0.0000 0.0000
vt 1.0000 1.0000 0.0000
vt 0.0000 1.0000 0.0000
vt 0.0000 0.0000 0.0000
# 4 texture coords

g Box1113
s 2
f 185/65/121 186/66/121 187/67/121 188/68/121 
s 4
f 189/68/122 190/65/122 191/66/122 192/67/122 
s 8
f 185/68/123 188/65/123 190/66/123 189/67/123 
s 16
f 188/68/124 187/65/124 191/66/124 190/67/124 
s 32
f 187/68/125 186/65/125 192/66/125 191/67/125 
s 64
f 186/68/126 185/65/126 189/66/126 192/67/126 
# 6 polygons

#
# object Box1114
#

v  2297.7756 381.2908 1725.5603
v  2297.7756 381.2908 1690.1272
v  2333.2087 381.2908 1690.1272
v  2333.2087 381.2908 1725.5603
v  2297.7756 581.4028 1725.5603
v  2333.2087 581.4028 1725.5603
v  2333.2087 581.4028 1690.1272
v  2297.7756 581.4028 1690.1272
# 8 vertices

vn 0.0000 -1.0000 -0.0000
vn 0.0000 1.0000 -0.0000
vn 0.0000 0.0000 1.0000
vn 1.0000 0.0000 -0.0000
vn 0.0000 0.0000 -1.0000
vn -1.0000 0.0000 -0.0000
# 6 vertex normals

vt 1.0000 0.0000 0.0000
vt 1.0000 1.0000 0.0000
vt 0.0000 1.0000 0.0000
vt 0.0000 0.0000 0.0000
# 4 texture coords

g Box1114
s 2
f 193/69/127 194/70/127 195/71/127 196/72/127 
s 4
f 197/72/128 198/69/128 199/70/128 200/71/128 
s 8
f 193/72/129 196/69/129 198/70/129 197/71/129 
s 16
f 196/72/130 195/69/130 199/70/130 198/71/130 
s 32
f 195/72/131 194/69/131 200/70/131 199/71/131 
s 64
f 194/72/132 193/69/132 197/70/132 200/71/132 
# 6 polygons

#
# object Box1115
#

v  1594.1077 381.2908 1766.5720
v  1594.1077 381.2908 1731.1389
v  1629.5408 381.2908 1731.1389
v  1629.5408 381.2908 1766.5720
v  1594.1077 581.4028 1766.5720
v  1629.5408 581.4028 1766.5720
v  1629.5408 581.4028 1731.1389
v  1594.1077 581.4028 1731.1389
# 8 vertices

vn 0.0000 -1.0000 -0.0000
vn 0.0000 1.0000 -0.0000
vn 0.0000 0.0000 1.0000
vn 1.0000 0.0000 -0.0000
vn 0.0000 0.0000 -1.0000
vn -1.0000 0.0000 -0.0000
# 6 vertex normals

vt 1.0000 0.0000 0.0000
vt 1.0000 1.0000 0.0000
vt 0.0000 1.0000 0.0000
vt 0.0000 0.0000 0.0000
# 4 texture coords

g Box1115
s 2
f 201/73/133 202/74/133 203/75/133 204/76/133 
s 4
f 205/76/134 206/73/134 207/74/134 208/75/134 
s 8
f 201/76/135 204/73/135 206/74/135 205/75/135 
s 16
f 204/76/136 203/73/136 207/74/136 206/75/136 
s 32
f 203/76/137 202/73/137 208/74/137 207/75/137 
s 64
f 202/76/138 201/73/138 205/74/138 208/75/138 
# 6 polygons

#
# object Box1116
#

v  1231.9905 381.2908 1776.1892
v  1231.9905 381.2908 1740.7561
v  1267.4236 381.2908 1740.7561
v  1267.4236 381.2908 1776.1892
v  1231.9905 581.4028 1776.1892
v  1267.4236 581.4028 1776.1892
v  1267.4236 581.4028 1740.7561
v  1231.9905 581.4028 1740.7561
# 8 vertices

vn 0.0000 -1.0000 -0.0000
vn 0.0000 1.0000 -0.0000
vn 0.0000 0.0000 1.0000
vn 1.0000 0.0000 -0.0000
vn 0.0000 0.0000 -1.0000
vn -1.0000 0.0000 -0.0000
# 6 vertex normals

vt 1.0000 0.0000 0.0000
vt 1.0000 1.0000 0.0000
vt 0.0000 1.0000 0.0000
vt 0.0000 0.0000 0.0000
# 4 texture coords

g Box1116
s 2
f 209/77/139 210/78/139 211/79/139 212/80/139 
s 4
f 213/80/140 214/77/140 215/78/140 216/79/140 
s 8
f 209/80/141 212/77/141 214/78/141 213/79/141 
s 16
f 212/80/142 211/77/142 215/78/142 214/79/142 
s 32
f 211/80/143 210/77/143 216/78/143 215/79/143 
s 64
f 210/80/144 209/77/144 213/78/144 216/79/144 
# 6 polygons

