# 3ds Max Wavefront OBJ Exporter v0.97b - (c)2007 guruware
# File Created: 28.10.2017 12:54:57

#
# object Box1152
#

v  1425.2834 581.8971 -1066.0079
v  1425.2834 581.8971 -1101.4410
v  1460.7166 581.8971 -1101.4410
v  1460.7166 581.8971 -1066.0079
v  1425.2834 782.0090 -1066.0079
v  1460.7166 782.0090 -1066.0079
v  1460.7166 782.0090 -1101.4410
v  1425.2834 782.0090 -1101.4410
# 8 vertices

vn 0.0000 -1.0000 -0.0000
vn 0.0000 1.0000 -0.0000
vn 0.0000 0.0000 1.0000
vn 1.0000 0.0000 -0.0000
vn 0.0000 0.0000 -1.0000
vn -1.0000 0.0000 -0.0000
# 6 vertex normals

vt 1.0000 0.0000 0.0000
vt 1.0000 1.0000 0.0000
vt 0.0000 1.0000 0.0000
vt 0.0000 0.0000 0.0000
# 4 texture coords

g Box1152
s 2
f 1/1/1 2/2/1 3/3/1 4/4/1 
s 4
f 5/4/2 6/1/2 7/2/2 8/3/2 
s 8
f 1/4/3 4/1/3 6/2/3 5/3/3 
s 16
f 4/4/4 3/1/4 7/2/4 6/3/4 
s 32
f 3/4/5 2/1/5 8/2/5 7/3/5 
s 64
f 2/4/6 1/1/6 5/2/6 8/3/6 
# 6 polygons

#
# object Line09
#

v  1102.7388 581.8970 -330.1781
v  2269.7715 581.8970 -398.3174
v  2269.7715 610.2151 -398.3174
v  1102.7388 610.2151 -330.1781
v  2198.7930 581.8970 -1565.4159
v  2198.7930 610.2151 -1565.4159
v  1031.6128 581.8970 -1493.6742
v  1031.6128 610.2151 -1493.6742
v  1585.0149 581.8970 -729.5574
v  1460.0215 581.8970 -722.1632
v  1460.0215 610.2151 -722.1632
v  1585.0149 610.2151 -729.5574
v  1441.0570 581.8970 -1001.8762
v  1441.0570 610.2151 -1001.8762
v  1566.0504 581.8970 -1009.2704
v  1566.0504 610.2151 -1009.2704
v  1225.6187 581.8970 -707.8206
v  1100.6252 581.8970 -700.4264
v  1100.6252 610.2151 -700.4264
v  1225.6187 610.2151 -707.8206
v  1081.6608 581.8970 -980.1394
v  1081.6608 610.2151 -980.1394
v  1206.6542 581.8970 -987.5336
v  1206.6542 610.2151 -987.5336
v  1806.5679 581.8970 -731.4588
v  1691.1152 581.8970 -724.3069
v  1691.1152 610.2151 -724.3069
v  1806.5679 610.2151 -731.4588
v  1671.4340 581.8970 -1042.9991
v  1671.4340 610.2151 -1042.9991
v  1787.8134 581.8970 -1051.1624
v  1787.8134 610.2151 -1051.1624
# 32 vertices

vn 0.0583 0.0000 0.9983
vn 0.9982 0.0000 -0.0607
vn -0.0614 0.0000 -0.9981
vn -0.9981 0.0000 0.0610
vn -0.0591 0.0000 -0.9983
vn 0.9977 0.0000 -0.0676
vn 0.0591 0.0000 0.9983
vn -0.9977 0.0000 0.0676
vn -0.0618 0.0000 -0.9981
vn 0.9981 0.0000 -0.0616
vn 0.0700 0.0000 0.9975
vn -0.9983 0.0000 0.0586
vn 0.0000 -1.0000 -0.0000
vn 0.0000 1.0000 -0.0000
# 14 vertex normals

g Line09
s 1
f 9//7 10//7 11//7 12//7 
s 4
f 10//8 13//8 14//8 11//8 
s 2
f 13//9 15//9 16//9 14//9 
s 4
f 15//10 9//10 12//10 16//10 
s 1
f 17//11 18//11 19//11 20//11 
s 4
f 18//12 21//12 22//12 19//12 
s 2
f 21//13 23//13 24//13 22//13 
s 4
f 23//14 17//14 20//14 24//14 
s 1
f 25//11 26//11 27//11 28//11 
s 4
f 26//12 29//12 30//12 27//12 
s 2
f 29//13 31//13 32//13 30//13 
s 4
f 31//14 25//14 28//14 32//14 
s 1
f 33//15 34//15 35//15 36//15 
s 4
f 34//16 37//16 38//16 35//16 
s 2
f 37//17 39//17 40//17 38//17 
s 4
f 39//18 33//18 36//18 40//18 
s 16
f 37//19 21//19 31//19 29//19 
f 9//19 25//19 18//19 17//19 
f 17//19 34//19 10//19 9//19 
f 9//19 15//19 26//19 25//19 
f 15//19 13//19 29//19 26//19 
f 13//19 39//19 37//19 29//19 
f 10//19 33//19 39//19 13//19 
f 25//19 31//19 21//19 18//19 
f 37//19 34//19 23//19 21//19 
f 34//19 17//19 23//19 
f 34//19 33//19 10//19 
f 38//20 14//20 30//20 32//20 
f 12//20 11//20 20//20 19//20 
f 12//20 19//20 22//20 28//20 
f 12//20 28//20 27//20 16//20 
f 16//20 27//20 30//20 14//20 
f 14//20 38//20 40//20 11//20 
f 11//20 40//20 36//20 35//20 
f 32//20 28//20 22//20 38//20 
f 38//20 22//20 24//20 35//20 
f 35//20 24//20 20//20 11//20 
# 35 polygons - 2 triangles

#
# object Box1155
#

v  1445.6311 581.8971 -698.9473
v  1445.6311 581.8971 -734.3804
v  1481.0642 581.8971 -734.3804
v  1481.0642 581.8971 -698.9473
v  1445.6311 782.0090 -698.9473
v  1481.0642 782.0090 -698.9473
v  1481.0642 782.0090 -734.3804
v  1445.6311 782.0090 -734.3804
# 8 vertices

vn 0.0000 -1.0000 -0.0000
vn 0.0000 1.0000 -0.0000
vn 0.0000 0.0000 1.0000
vn 1.0000 0.0000 -0.0000
vn 0.0000 0.0000 -1.0000
vn -1.0000 0.0000 -0.0000
# 6 vertex normals

vt 1.0000 0.0000 0.0000
vt 1.0000 1.0000 0.0000
vt 0.0000 1.0000 0.0000
vt 0.0000 0.0000 0.0000
# 4 texture coords

g Box1155
s 2
f 41/5/21 42/6/21 43/7/21 44/8/21 
s 4
f 45/8/22 46/5/22 47/6/22 48/7/22 
s 8
f 41/8/23 44/5/23 46/6/23 45/7/23 
s 16
f 44/8/24 43/5/24 47/6/24 46/7/24 
s 32
f 43/8/25 42/5/25 48/6/25 47/7/25 
s 64
f 42/8/26 41/5/26 45/6/26 48/7/26 
# 6 polygons

#
# object Box1159
#

v  1087.1522 581.8970 -889.1511
v  1142.6412 581.8969 -892.2531
v  1137.1138 581.8969 -982.6267
v  1081.6248 581.8970 -979.5247
v  1211.7788 581.8965 -897.6006
v  1206.2513 581.8965 -987.9742
v  1087.1523 603.9453 -889.1511
v  1081.6249 603.9453 -979.5247
v  1137.1139 603.9450 -982.6267
v  1142.6414 603.9450 -892.2531
v  1206.2515 603.9448 -987.9742
v  1211.7789 603.9448 -897.6006
v  1224.0507 681.5702 -706.6612
v  1154.9131 681.5704 -701.3137
v  1154.9132 703.6186 -701.3137
v  1224.0508 703.6183 -706.6612
v  1150.5348 681.5704 -762.0895
v  1219.6724 681.5702 -767.4370
v  1219.6724 703.6183 -767.4370
v  1150.5349 703.6186 -762.0895
v  1094.8875 681.5707 -758.9778
v  1094.8875 703.6188 -758.9778
v  1099.2659 703.6188 -698.2019
v  1099.2657 681.5707 -698.2019
v  1142.6383 788.3216 -892.3140
v  1142.6384 810.3698 -892.3140
v  1086.9911 810.3699 -889.2023
v  1086.9910 788.3218 -889.2023
# 28 vertices

vn -0.0000 -1.0000 0.0000
vn 0.0000 1.0000 -0.0000
vn -0.9981 0.0000 0.0610
vn -0.0558 -0.0000 -0.9984
vn -0.0665 0.0000 -0.9978
vn -0.0771 0.0000 -0.9970
vn 0.9981 -0.0000 -0.0610
vn 0.0771 -0.0000 0.9970
vn 0.0558 0.0000 0.9984
vn 0.0569 -0.6753 0.7353
vn -0.0569 0.6753 -0.7353
vn 0.9982 -0.0000 -0.0605
vn -0.9982 0.0000 0.0605
vn -0.9974 0.0000 0.0719
vn 0.9974 -0.0000 -0.0719
vn 0.0424 0.6501 0.7587
vn -0.0424 -0.6501 -0.7587
# 17 vertex normals

vt 1.0000 0.0000 0.0000
vt 1.0000 0.5000 0.0000
vt 0.0000 0.5000 0.0000
vt 0.0000 0.0000 0.0000
vt 1.0000 1.0000 0.0000
vt 0.0000 1.0000 0.0000
vt 0.5000 0.0000 0.0000
vt 0.5000 1.0000 0.0000
# 8 texture coords

g Box1159
s 2
f 52/12/27 51/11/27 50/10/27 49/9/27 
f 51/11/27 54/14/27 53/13/27 50/10/27 
s 4
f 58/11/28 57/10/28 56/9/28 55/12/28 
f 60/14/28 59/13/28 57/10/28 58/11/28 
s 8
f 55/14/29 56/13/29 52/9/29 49/12/29 
s 16
f 56/14/30 57/16/31 51/15/31 52/12/30 
f 57/16/31 59/13/32 54/9/32 51/15/31 
s 32
f 59/14/33 60/13/33 53/9/33 54/12/33 
s 64
f 64/14/34 63/16/34 62/15/34 61/12/34 
f 58/16/35 55/13/35 49/9/35 50/15/35 
s off
f 66/12/36 65/15/36 50/15/36 53/12/36 
f 68/16/37 67/14/37 60/14/37 58/16/37 
f 67/14/38 66/12/38 53/12/38 60/14/38 
f 65/15/39 68/16/39 58/16/39 50/15/39 
f 61/12/27 62/15/27 65/15/27 66/12/27 
f 72/15/40 71/16/40 70/16/40 69/15/40 
f 63/16/28 64/14/28 67/14/28 68/16/28 
f 64/14/41 61/12/41 66/12/41 67/14/41 
f 71/16/35 72/15/35 62/15/35 63/16/35 
f 76/15/30 75/16/30 74/16/30 73/15/30 
f 72/15/27 69/15/27 65/15/27 62/15/27 
f 70/16/28 71/16/28 63/16/28 68/16/28 
f 73/15/38 74/16/38 68/16/38 65/15/38 
f 75/16/39 76/15/39 69/15/39 70/16/39 
f 74/16/42 75/16/42 70/16/42 68/16/42 
f 76/15/43 73/15/43 65/15/43 69/15/43 
# 26 polygons

#
# object Box1160
#

v  1444.5292 581.8970 -911.0964
v  1500.0182 581.8969 -914.1984
v  1494.4907 581.8969 -1004.5720
v  1439.0017 581.8970 -1001.4700
v  1569.1558 581.8965 -919.5460
v  1563.6283 581.8965 -1009.9196
v  1444.5293 603.9453 -911.0964
v  1439.0018 603.9453 -1001.4700
v  1494.4908 603.9450 -1004.5720
v  1500.0183 603.9450 -914.1984
v  1563.6284 603.9448 -1009.9196
v  1569.1559 603.9448 -919.5460
v  1581.4276 681.5702 -728.6065
v  1512.2900 681.5704 -723.2590
v  1512.2902 703.6186 -723.2590
v  1581.4277 703.6183 -728.6065
v  1507.9117 681.5704 -784.0348
v  1577.0493 681.5702 -789.3823
v  1577.0493 703.6183 -789.3823
v  1507.9119 703.6186 -784.0348
v  1452.2644 681.5707 -780.9231
v  1452.2644 703.6188 -780.9231
v  1456.6428 703.6188 -720.1472
v  1456.6427 681.5707 -720.1472
v  1500.0153 788.3216 -914.2593
v  1500.0154 810.3698 -914.2593
v  1444.3680 810.3699 -911.1476
v  1444.3679 788.3218 -911.1476
# 28 vertices

vn -0.0000 -1.0000 0.0000
vn 0.0000 1.0000 -0.0000
vn -0.9981 0.0000 0.0610
vn -0.0558 -0.0000 -0.9984
vn -0.0665 0.0000 -0.9978
vn -0.0771 0.0000 -0.9970
vn 0.9981 -0.0000 -0.0610
vn 0.0771 -0.0000 0.9970
vn 0.0558 0.0000 0.9984
vn 0.0569 -0.6753 0.7353
vn -0.0569 0.6753 -0.7353
vn 0.9982 -0.0000 -0.0605
vn -0.9982 0.0000 0.0605
vn -0.9974 0.0000 0.0719
vn 0.9974 -0.0000 -0.0719
vn 0.0424 0.6501 0.7587
vn -0.0424 -0.6501 -0.7587
# 17 vertex normals

vt 1.0000 0.0000 0.0000
vt 1.0000 0.5000 0.0000
vt 0.0000 0.5000 0.0000
vt 0.0000 0.0000 0.0000
vt 1.0000 1.0000 0.0000
vt 0.0000 1.0000 0.0000
vt 0.5000 0.0000 0.0000
vt 0.5000 1.0000 0.0000
# 8 texture coords

g Box1160
s 2
f 80/20/44 79/19/44 78/18/44 77/17/44 
f 79/19/44 82/22/44 81/21/44 78/18/44 
s 4
f 86/19/45 85/18/45 84/17/45 83/20/45 
f 88/22/45 87/21/45 85/18/45 86/19/45 
s 8
f 83/22/46 84/21/46 80/17/46 77/20/46 
s 16
f 84/22/47 85/24/48 79/23/48 80/20/47 
f 85/24/48 87/21/49 82/17/49 79/23/48 
s 32
f 87/22/50 88/21/50 81/17/50 82/20/50 
s 64
f 92/22/51 91/24/51 90/23/51 89/20/51 
f 86/24/52 83/21/52 77/17/52 78/23/52 
s off
f 94/20/53 93/23/53 78/23/53 81/20/53 
f 96/24/54 95/22/54 88/22/54 86/24/54 
f 95/22/55 94/20/55 81/20/55 88/22/55 
f 93/23/56 96/24/56 86/24/56 78/23/56 
f 89/20/44 90/23/44 93/23/44 94/20/44 
f 100/23/57 99/24/57 98/24/57 97/23/57 
f 91/24/45 92/22/45 95/22/45 96/24/45 
f 92/22/58 89/20/58 94/20/58 95/22/58 
f 99/24/52 100/23/52 90/23/52 91/24/52 
f 104/23/47 103/24/47 102/24/47 101/23/47 
f 100/23/44 97/23/44 93/23/44 90/23/44 
f 98/24/45 99/24/45 91/24/45 96/24/45 
f 101/23/55 102/24/55 96/24/55 93/23/55 
f 103/24/56 104/23/56 97/23/56 98/24/56 
f 102/24/59 103/24/59 98/24/59 96/24/59 
f 104/23/60 101/23/60 93/23/60 97/23/60 
# 26 polygons

#
# object Box1161
#

v  2102.1663 581.8971 -1465.4591
v  2102.1663 581.8971 -1500.8922
v  2137.5994 581.8971 -1500.8922
v  2137.5994 581.8971 -1465.4591
v  2102.1663 782.0090 -1465.4591
v  2137.5994 782.0090 -1465.4591
v  2137.5994 782.0090 -1500.8922
v  2102.1663 782.0090 -1500.8922
# 8 vertices

vn 0.0000 -1.0000 -0.0000
vn 0.0000 1.0000 -0.0000
vn 0.0000 0.0000 1.0000
vn 1.0000 0.0000 -0.0000
vn 0.0000 0.0000 -1.0000
vn -1.0000 0.0000 -0.0000
# 6 vertex normals

vt 1.0000 0.0000 0.0000
vt 1.0000 1.0000 0.0000
vt 0.0000 1.0000 0.0000
vt 0.0000 0.0000 0.0000
# 4 texture coords

g Box1161
s 2
f 105/25/61 106/26/61 107/27/61 108/28/61 
s 4
f 109/28/62 110/25/62 111/26/62 112/27/62 
s 8
f 105/28/63 108/25/63 110/26/63 109/27/63 
s 16
f 108/28/64 107/25/64 111/26/64 110/27/64 
s 32
f 107/28/65 106/25/65 112/26/65 111/27/65 
s 64
f 106/28/66 105/25/66 109/26/66 112/27/66 
# 6 polygons

#
# object Box1162
#

v  1749.8850 581.8971 -1445.5060
v  1749.8850 581.8971 -1480.9391
v  1785.3181 581.8971 -1480.9391
v  1785.3181 581.8971 -1445.5060
v  1749.8850 782.0090 -1445.5060
v  1785.3181 782.0090 -1445.5060
v  1785.3181 782.0090 -1480.9391
v  1749.8850 782.0090 -1480.9391
# 8 vertices

vn 0.0000 -1.0000 -0.0000
vn 0.0000 1.0000 -0.0000
vn 0.0000 0.0000 1.0000
vn 1.0000 0.0000 -0.0000
vn 0.0000 0.0000 -1.0000
vn -1.0000 0.0000 -0.0000
# 6 vertex normals

vt 1.0000 0.0000 0.0000
vt 1.0000 1.0000 0.0000
vt 0.0000 1.0000 0.0000
vt 0.0000 0.0000 0.0000
# 4 texture coords

g Box1162
s 2
f 113/29/67 114/30/67 115/31/67 116/32/67 
s 4
f 117/32/68 118/29/68 119/30/68 120/31/68 
s 8
f 113/32/69 116/29/69 118/30/69 117/31/69 
s 16
f 116/32/70 115/29/70 119/30/70 118/31/70 
s 32
f 115/32/71 114/29/71 120/30/71 119/31/71 
s 64
f 114/32/72 113/29/72 117/30/72 120/31/72 
# 6 polygons

#
# object Box1163
#

v  1405.2795 581.8971 -1425.5177
v  1405.2795 581.8971 -1460.9508
v  1440.7126 581.8971 -1460.9508
v  1440.7126 581.8971 -1425.5177
v  1405.2795 782.0090 -1425.5177
v  1440.7126 782.0090 -1425.5177
v  1440.7126 782.0090 -1460.9508
v  1405.2795 782.0090 -1460.9508
# 8 vertices

vn 0.0000 -1.0000 -0.0000
vn 0.0000 1.0000 -0.0000
vn 0.0000 0.0000 1.0000
vn 1.0000 0.0000 -0.0000
vn 0.0000 0.0000 -1.0000
vn -1.0000 0.0000 -0.0000
# 6 vertex normals

vt 1.0000 0.0000 0.0000
vt 1.0000 1.0000 0.0000
vt 0.0000 1.0000 0.0000
vt 0.0000 0.0000 0.0000
# 4 texture coords

g Box1163
s 2
f 121/33/73 122/34/73 123/35/73 124/36/73 
s 4
f 125/36/74 126/33/74 127/34/74 128/35/74 
s 8
f 121/36/75 124/33/75 126/34/75 125/35/75 
s 16
f 124/36/76 123/33/76 127/34/76 126/35/76 
s 32
f 123/36/77 122/33/77 128/34/77 127/35/77 
s 64
f 122/36/78 121/33/78 125/34/78 128/35/78 
# 6 polygons

#
# object Box1164
#

v  1043.1077 581.8971 -1407.0646
v  1043.1077 581.8971 -1442.4977
v  1078.5408 581.8971 -1442.4977
v  1078.5408 581.8971 -1407.0646
v  1043.1077 782.0090 -1407.0646
v  1078.5408 782.0090 -1407.0646
v  1078.5408 782.0090 -1442.4977
v  1043.1077 782.0090 -1442.4977
# 8 vertices

vn 0.0000 -1.0000 -0.0000
vn 0.0000 1.0000 -0.0000
vn 0.0000 0.0000 1.0000
vn 1.0000 0.0000 -0.0000
vn 0.0000 0.0000 -1.0000
vn -1.0000 0.0000 -0.0000
# 6 vertex normals

vt 1.0000 0.0000 0.0000
vt 1.0000 1.0000 0.0000
vt 0.0000 1.0000 0.0000
vt 0.0000 0.0000 0.0000
# 4 texture coords

g Box1164
s 2
f 129/37/79 130/38/79 131/39/79 132/40/79 
s 4
f 133/40/80 134/37/80 135/38/80 136/39/80 
s 8
f 129/40/81 132/37/81 134/38/81 133/39/81 
s 16
f 132/40/82 131/37/82 135/38/82 134/39/82 
s 32
f 131/40/83 130/37/83 136/38/83 135/39/83 
s 64
f 130/40/84 129/37/84 133/38/84 136/39/84 
# 6 polygons

#
# object Box1165
#

v  1063.1116 581.8971 -1047.5548
v  1063.1116 581.8971 -1082.9879
v  1098.5447 581.8971 -1082.9879
v  1098.5447 581.8971 -1047.5548
v  1063.1116 782.0090 -1047.5548
v  1098.5447 782.0090 -1047.5548
v  1098.5447 782.0090 -1082.9879
v  1063.1116 782.0090 -1082.9879
# 8 vertices

vn 0.0000 -1.0000 -0.0000
vn 0.0000 1.0000 -0.0000
vn 0.0000 0.0000 1.0000
vn 1.0000 0.0000 -0.0000
vn 0.0000 0.0000 -1.0000
vn -1.0000 0.0000 -0.0000
# 6 vertex normals

vt 1.0000 0.0000 0.0000
vt 1.0000 1.0000 0.0000
vt 0.0000 1.0000 0.0000
vt 0.0000 0.0000 0.0000
# 4 texture coords

g Box1165
s 2
f 137/41/85 138/42/85 139/43/85 140/44/85 
s 4
f 141/44/86 142/41/86 143/42/86 144/43/86 
s 8
f 137/44/87 140/41/87 142/42/87 141/43/87 
s 16
f 140/44/88 139/41/88 143/42/88 142/43/88 
s 32
f 139/44/89 138/41/89 144/42/89 143/43/89 
s 64
f 138/44/90 137/41/90 141/42/90 144/43/90 
# 6 polygons

#
# object Box1166
#

v  2122.1741 581.8971 -1105.9493
v  2122.1741 581.8971 -1141.3824
v  2157.6072 581.8971 -1141.3824
v  2157.6072 581.8971 -1105.9493
v  2122.1741 782.0090 -1105.9493
v  2157.6072 782.0090 -1105.9493
v  2157.6072 782.0090 -1141.3824
v  2122.1741 782.0090 -1141.3824
# 8 vertices

vn 0.0000 -1.0000 -0.0000
vn 0.0000 1.0000 -0.0000
vn 0.0000 0.0000 1.0000
vn 1.0000 0.0000 -0.0000
vn 0.0000 0.0000 -1.0000
vn -1.0000 0.0000 -0.0000
# 6 vertex normals

vt 1.0000 0.0000 0.0000
vt 1.0000 1.0000 0.0000
vt 0.0000 1.0000 0.0000
vt 0.0000 0.0000 0.0000
# 4 texture coords

g Box1166
s 2
f 145/45/91 146/46/91 147/47/91 148/48/91 
s 4
f 149/48/92 150/45/92 151/46/92 152/47/92 
s 8
f 145/48/93 148/45/93 150/46/93 149/47/93 
s 16
f 148/48/94 147/45/94 151/46/94 150/47/94 
s 32
f 147/48/95 146/45/95 152/46/95 151/47/95 
s 64
f 146/48/96 145/45/96 149/46/96 152/47/96 
# 6 polygons

#
# object Box1167
#

v  1769.8850 581.8971 -1085.9962
v  1769.8850 581.8971 -1121.4293
v  1805.3181 581.8971 -1121.4293
v  1805.3181 581.8971 -1085.9962
v  1769.8850 782.0090 -1085.9962
v  1805.3181 782.0090 -1085.9962
v  1805.3181 782.0090 -1121.4293
v  1769.8850 782.0090 -1121.4293
# 8 vertices

vn 0.0000 -1.0000 -0.0000
vn 0.0000 1.0000 -0.0000
vn 0.0000 0.0000 1.0000
vn 1.0000 0.0000 -0.0000
vn 0.0000 0.0000 -1.0000
vn -1.0000 0.0000 -0.0000
# 6 vertex normals

vt 1.0000 0.0000 0.0000
vt 1.0000 1.0000 0.0000
vt 0.0000 1.0000 0.0000
vt 0.0000 0.0000 0.0000
# 4 texture coords

g Box1167
s 2
f 153/49/97 154/50/97 155/51/97 156/52/97 
s 4
f 157/52/98 158/49/98 159/50/98 160/51/98 
s 8
f 153/52/99 156/49/99 158/50/99 157/51/99 
s 16
f 156/52/100 155/49/100 159/50/100 158/51/100 
s 32
f 155/52/101 154/49/101 160/50/101 159/51/101 
s 64
f 154/52/102 153/49/102 157/50/102 160/51/102 
# 6 polygons

#
# object Box1168
#

v  1083.4592 581.8971 -680.4942
v  1083.4592 581.8971 -715.9273
v  1118.8923 581.8971 -715.9273
v  1118.8923 581.8971 -680.4942
v  1083.4592 782.0090 -680.4942
v  1118.8923 782.0090 -680.4942
v  1118.8923 782.0090 -715.9273
v  1083.4592 782.0090 -715.9273
# 8 vertices

vn 0.0000 -1.0000 -0.0000
vn 0.0000 1.0000 -0.0000
vn 0.0000 0.0000 1.0000
vn 1.0000 0.0000 -0.0000
vn 0.0000 0.0000 -1.0000
vn -1.0000 0.0000 -0.0000
# 6 vertex normals

vt 1.0000 0.0000 0.0000
vt 1.0000 1.0000 0.0000
vt 0.0000 1.0000 0.0000
vt 0.0000 0.0000 0.0000
# 4 texture coords

g Box1168
s 2
f 161/53/103 162/54/103 163/55/103 164/56/103 
s 4
f 165/56/104 166/53/104 167/54/104 168/55/104 
s 8
f 161/56/105 164/53/105 166/54/105 165/55/105 
s 16
f 164/56/106 163/53/106 167/54/106 166/55/106 
s 32
f 163/56/107 162/53/107 168/54/107 167/55/107 
s 64
f 162/56/108 161/53/108 165/54/108 168/55/108 
# 6 polygons

#
# object Box1169
#

v  2141.9631 581.8971 -750.4883
v  2141.9631 581.8971 -785.9214
v  2177.3962 581.8971 -785.9214
v  2177.3962 581.8971 -750.4883
v  2141.9631 782.0090 -750.4883
v  2177.3962 782.0090 -750.4883
v  2177.3962 782.0090 -785.9214
v  2141.9631 782.0090 -785.9214
# 8 vertices

vn 0.0000 -1.0000 -0.0000
vn 0.0000 1.0000 -0.0000
vn 0.0000 0.0000 1.0000
vn 1.0000 0.0000 -0.0000
vn 0.0000 0.0000 -1.0000
vn -1.0000 0.0000 -0.0000
# 6 vertex normals

vt 1.0000 0.0000 0.0000
vt 1.0000 1.0000 0.0000
vt 0.0000 1.0000 0.0000
vt 0.0000 0.0000 0.0000
# 4 texture coords

g Box1169
s 2
f 169/57/109 170/58/109 171/59/109 172/60/109 
s 4
f 173/60/110 174/57/110 175/58/110 176/59/110 
s 8
f 169/60/111 172/57/111 174/58/111 173/59/111 
s 16
f 172/60/112 171/57/112 175/58/112 174/59/112 
s 32
f 171/60/113 170/57/113 176/58/113 175/59/113 
s 64
f 170/60/114 169/57/114 173/58/114 176/59/114 
# 6 polygons

#
# object Box1170
#

v  1472.1858 581.8971 -361.2169
v  1472.1858 581.8971 -396.6500
v  1507.6189 581.8971 -396.6500
v  1507.6189 581.8971 -361.2169
v  1472.1858 782.0090 -361.2169
v  1507.6189 782.0090 -361.2169
v  1507.6189 782.0090 -396.6500
v  1472.1858 782.0090 -396.6500
# 8 vertices

vn 0.0000 -1.0000 -0.0000
vn 0.0000 1.0000 -0.0000
vn 0.0000 0.0000 1.0000
vn 1.0000 0.0000 -0.0000
vn 0.0000 0.0000 -1.0000
vn -1.0000 0.0000 -0.0000
# 6 vertex normals

vt 1.0000 0.0000 0.0000
vt 1.0000 1.0000 0.0000
vt 0.0000 1.0000 0.0000
vt 0.0000 0.0000 0.0000
# 4 texture coords

g Box1170
s 2
f 177/61/115 178/62/115 179/63/115 180/64/115 
s 4
f 181/64/116 182/61/116 183/62/116 184/63/116 
s 8
f 177/64/117 180/61/117 182/62/117 181/63/117 
s 16
f 180/64/118 179/61/118 183/62/118 182/63/118 
s 32
f 179/64/119 178/61/119 184/62/119 183/63/119 
s 64
f 178/64/120 177/61/120 181/62/120 184/63/120 
# 6 polygons

#
# object Box1171
#

v  1110.0139 581.8971 -342.7638
v  1110.0139 581.8971 -378.1969
v  1145.4470 581.8971 -378.1969
v  1145.4470 581.8971 -342.7638
v  1110.0139 782.0090 -342.7638
v  1145.4470 782.0090 -342.7638
v  1145.4470 782.0090 -378.1969
v  1110.0139 782.0090 -378.1969
# 8 vertices

vn 0.0000 -1.0000 -0.0000
vn 0.0000 1.0000 -0.0000
vn 0.0000 0.0000 1.0000
vn 1.0000 0.0000 -0.0000
vn 0.0000 0.0000 -1.0000
vn -1.0000 0.0000 -0.0000
# 6 vertex normals

vt 1.0000 0.0000 0.0000
vt 1.0000 1.0000 0.0000
vt 0.0000 1.0000 0.0000
vt 0.0000 0.0000 0.0000
# 4 texture coords

g Box1171
s 2
f 185/65/121 186/66/121 187/67/121 188/68/121 
s 4
f 189/68/122 190/65/122 191/66/122 192/67/122 
s 8
f 185/68/123 188/65/123 190/66/123 189/67/123 
s 16
f 188/68/124 187/65/124 191/66/124 190/67/124 
s 32
f 187/68/125 186/65/125 192/66/125 191/67/125 
s 64
f 186/68/126 185/65/126 189/66/126 192/67/126 
# 6 polygons

#
# object Box1172
#

v  2168.5256 581.8971 -412.7580
v  2168.5256 581.8971 -448.1910
v  2203.9587 581.8971 -448.1910
v  2203.9587 581.8971 -412.7580
v  2168.5256 782.0090 -412.7580
v  2203.9587 782.0090 -412.7580
v  2203.9587 782.0090 -448.1910
v  2168.5256 782.0090 -448.1910
# 8 vertices

vn 0.0000 -1.0000 -0.0000
vn 0.0000 1.0000 -0.0000
vn 0.0000 0.0000 1.0000
vn 1.0000 0.0000 -0.0000
vn 0.0000 0.0000 -1.0000
vn -1.0000 0.0000 -0.0000
# 6 vertex normals

vt 1.0000 0.0000 0.0000
vt 1.0000 1.0000 0.0000
vt 0.0000 1.0000 0.0000
vt 0.0000 0.0000 0.0000
# 4 texture coords

g Box1172
s 2
f 193/69/127 194/70/127 195/71/127 196/72/127 
s 4
f 197/72/128 198/69/128 199/70/128 200/71/128 
s 8
f 193/72/129 196/69/129 198/70/129 197/71/129 
s 16
f 196/72/130 195/69/130 199/70/130 198/71/130 
s 32
f 195/72/131 194/69/131 200/70/131 199/71/131 
s 64
f 194/72/132 193/69/132 197/70/132 200/71/132 
# 6 polygons

#
# object Box1173
#

v  1816.7913 581.8971 -381.2052
v  1816.7913 581.8971 -416.6383
v  1852.2244 581.8971 -416.6383
v  1852.2244 581.8971 -381.2052
v  1816.7913 782.0090 -381.2052
v  1852.2244 782.0090 -381.2052
v  1852.2244 782.0090 -416.6383
v  1816.7913 782.0090 -416.6383
# 8 vertices

vn 0.0000 -1.0000 -0.0000
vn 0.0000 1.0000 -0.0000
vn 0.0000 0.0000 1.0000
vn 1.0000 0.0000 -0.0000
vn 0.0000 0.0000 -1.0000
vn -1.0000 0.0000 -0.0000
# 6 vertex normals

vt 1.0000 0.0000 0.0000
vt 1.0000 1.0000 0.0000
vt 0.0000 1.0000 0.0000
vt 0.0000 0.0000 0.0000
# 4 texture coords

g Box1173
s 2
f 201/73/133 202/74/133 203/75/133 204/76/133 
s 4
f 205/76/134 206/73/134 207/74/134 208/75/134 
s 8
f 201/76/135 204/73/135 206/74/135 205/75/135 
s 16
f 204/76/136 203/73/136 207/74/136 206/75/136 
s 32
f 203/76/137 202/73/137 208/74/137 207/75/137 
s 64
f 202/76/138 201/73/138 205/74/138 208/75/138 
# 6 polygons

